{"glyphs":{"0":{"ha":1053,"x_min":76,"x_max":976,"o":"m 481 -35 q 261 22 351 -35 q 124 179 171 79 q 76 410 76 279 q 147 706 76 579 q 341 902 217 832 q 628 972 465 972 q 689 967 656 972 q 740 951 722 961 q 751 926 747 943 q 757 885 756 908 q 925 760 874 857 q 976 528 976 663 q 936 298 976 401 q 826 120 896 194 q 668 6 757 46 q 481 -35 579 -35 m 490 163 q 567 193 531 163 q 631 276 603 224 q 676 393 660 328 q 693 528 693 458 q 679 628 693 582 q 629 701 665 674 q 526 728 593 728 q 495 726 511 728 q 461 721 479 724 q 376 558 404 647 q 349 389 349 468 q 385 228 349 293 q 490 163 421 163 z "},"1":{"ha":790,"x_min":65,"x_max":668,"o":"m 422 -35 q 289 32 328 -35 q 250 201 250 99 q 265 353 250 268 q 308 579 281 439 q 199 601 251 579 q 111 669 147 622 q 65 796 75 717 q 240 845 167 815 q 369 904 313 875 q 472 953 425 933 q 569 972 519 972 q 648 939 628 972 q 668 861 668 906 q 651 722 668 804 q 614 544 635 639 q 576 357 593 450 q 560 185 560 264 q 600 17 560 85 q 422 -35 507 -35 z "},"2":{"ha":993,"x_min":17,"x_max":908,"o":"m 686 -35 q 518 -12 599 -35 q 339 44 438 10 q 242 -10 289 6 q 160 -26 194 -26 q 53 22 89 -26 q 17 132 17 69 q 42 227 17 181 q 118 304 68 274 q 240 335 168 335 q 276 333 260 335 q 303 328 293 331 q 475 497 413 421 q 538 638 538 572 q 508 714 538 685 q 428 743 478 743 q 373 733 403 743 q 313 689 343 724 q 256 579 282 654 q 160 624 192 586 q 129 713 129 661 q 169 833 129 774 q 298 933 208 893 q 536 972 388 972 q 692 948 628 972 q 796 885 756 924 q 854 799 836 846 q 872 708 872 753 q 828 561 872 636 q 709 412 783 486 q 543 265 635 338 q 646 251 600 256 q 731 246 692 246 l 893 308 q 904 251 900 282 q 908 192 908 219 q 878 63 908 113 q 797 -11 847 13 q 686 -35 747 -35 z "},"3":{"ha":907,"x_min":-14,"x_max":810,"o":"m 274 -217 q 62 -176 138 -217 q -14 -58 -14 -135 q 35 42 -14 7 q 146 78 85 78 q 244 49 192 78 q 331 -40 296 21 q 411 1 372 -29 q 475 72 450 31 q 500 158 500 114 q 488 216 500 188 q 449 271 476 244 q 371 238 419 254 q 275 222 322 222 q 197 244 229 222 q 164 325 164 267 q 213 421 164 379 q 372 463 263 463 q 401 463 386 463 q 431 460 415 463 q 490 535 468 489 q 511 625 511 581 q 483 706 511 672 q 394 740 456 740 q 344 726 375 740 q 282 676 313 711 q 233 578 251 642 q 118 620 154 582 q 82 713 82 658 q 122 833 82 774 q 251 933 163 893 q 482 972 339 972 q 643 949 579 972 q 743 888 707 925 q 794 808 779 851 q 808 726 808 765 q 762 557 808 640 q 631 393 715 474 q 810 143 810 308 q 744 -34 810 49 q 559 -167 679 -117 q 274 -217 439 -217 z "},"4":{"ha":982,"x_min":26,"x_max":940,"o":"m 692 -236 q 581 -210 622 -236 q 523 -140 540 -183 q 506 -44 506 -96 q 507 -12 506 -29 q 511 22 508 4 q 401 6 464 13 q 285 0 339 0 q 159 14 218 0 q 63 63 100 28 q 26 160 26 97 q 53 273 26 207 q 120 415 81 339 q 199 571 160 490 q 266 729 239 651 q 293 875 293 807 q 282 940 293 910 q 358 964 321 956 q 431 972 396 972 q 566 931 514 972 q 618 786 618 890 q 527 506 618 657 q 258 181 436 356 l 547 181 q 591 310 567 246 q 639 422 615 374 q 708 470 663 447 q 806 508 753 493 q 906 524 858 524 q 933 515 926 524 q 940 488 940 507 q 926 405 940 461 q 892 274 911 349 q 859 113 874 199 q 844 -57 844 28 q 853 -127 844 -93 q 878 -186 861 -161 q 692 -236 781 -236 z "},"5":{"ha":882,"x_min":10,"x_max":833,"o":"m 292 -217 q 85 -176 160 -217 q 10 -58 10 -135 q 59 42 10 7 q 169 78 108 78 q 256 50 210 78 q 332 -36 301 22 q 448 27 406 -25 q 490 138 490 79 q 470 217 490 179 q 406 278 450 254 q 290 303 361 303 q 239 299 268 303 q 176 289 210 296 q 147 299 158 290 q 136 321 136 308 l 188 732 q 136 857 136 790 q 168 938 136 903 q 261 972 200 972 q 344 949 304 972 q 414 875 383 926 q 531 886 461 875 q 679 917 601 897 q 825 963 757 938 q 832 913 831 936 q 833 872 833 889 q 772 697 833 760 q 568 633 711 633 q 549 634 563 633 q 506 637 536 635 q 418 642 475 639 l 403 483 q 551 460 478 479 q 684 401 624 440 q 781 302 744 363 q 817 158 817 242 q 751 -30 817 56 q 568 -166 686 -115 q 292 -217 450 -217 z "},"6":{"ha":936,"x_min":51,"x_max":911,"o":"m 400 -35 q 220 8 299 -35 q 97 135 142 50 q 51 347 51 219 q 91 594 51 475 q 197 813 131 713 q 345 990 263 914 q 514 1107 428 1065 q 679 1149 600 1149 q 813 1115 769 1149 q 886 1010 857 1081 q 653 897 754 965 q 476 710 553 828 q 567 721 525 721 q 756 682 679 721 q 872 576 832 643 q 911 425 911 510 q 870 242 911 326 q 758 97 829 158 q 594 0 686 35 q 400 -35 501 -35 m 454 150 q 519 176 485 150 q 577 257 553 203 q 601 393 601 311 q 592 469 601 432 q 558 529 582 506 q 492 553 535 553 q 426 527 461 553 q 367 449 392 501 q 343 319 343 397 q 353 239 343 278 q 388 175 364 200 q 454 150 413 150 z "},"7":{"ha":850,"x_min":85,"x_max":885,"o":"m 379 -168 q 242 -129 294 -168 q 190 0 190 -90 q 230 183 190 79 q 340 404 269 286 q 504 642 411 522 q 378 638 436 638 q 161 704 238 638 q 85 885 85 771 q 86 926 85 904 q 90 972 88 949 q 219 938 147 954 q 367 911 292 922 q 508 894 442 900 q 619 888 574 888 q 688 962 650 939 q 767 985 726 985 q 855 950 825 985 q 885 869 885 915 q 859 781 885 818 q 790 717 833 743 q 722 576 760 657 q 649 407 685 496 q 582 230 613 318 q 533 64 551 142 q 515 -71 515 -14 q 517 -106 515 -90 q 528 -136 519 -121 q 451 -161 488 -154 q 379 -168 415 -168 z "},"8":{"ha":938,"x_min":71,"x_max":900,"o":"m 439 -36 q 251 -10 324 -36 q 139 56 178 15 q 85 143 100 97 q 71 228 71 189 q 130 392 71 314 q 282 525 189 469 q 211 597 246 560 q 154 678 176 635 q 132 772 132 721 q 182 931 132 863 q 323 1036 232 999 q 536 1074 414 1074 q 713 1048 644 1074 q 818 983 781 1022 q 869 899 856 943 q 883 815 883 854 q 832 667 883 735 q 707 556 781 600 q 802 475 758 521 q 873 378 846 429 q 900 274 900 328 q 839 110 900 181 q 674 2 778 40 q 439 -36 569 -36 m 586 639 q 630 706 614 665 q 646 789 646 747 q 619 879 646 840 q 533 919 593 918 q 457 892 489 919 q 425 825 425 864 q 436 781 425 803 q 472 738 447 760 l 586 639 m 453 121 q 539 151 501 121 q 576 229 576 182 q 553 294 576 268 q 478 363 529 319 l 399 428 q 342 356 360 397 q 324 272 324 314 q 358 167 324 213 q 453 121 393 121 z "},"9":{"ha":1036,"x_min":86,"x_max":946,"o":"m 318 -199 q 181 -162 229 -199 q 113 -60 132 -126 q 353 56 244 -24 q 536 253 461 136 q 467 241 500 244 q 403 238 433 238 q 222 280 292 238 q 119 388 151 322 q 86 525 86 454 q 127 707 86 625 q 240 848 168 789 q 403 940 311 907 q 596 972 494 972 q 777 935 699 972 q 901 822 856 897 q 946 635 946 747 q 908 386 946 508 q 805 158 869 264 q 659 -28 740 53 q 490 -153 578 -108 q 318 -199 401 -199 m 506 399 q 571 424 536 399 q 630 502 606 450 q 654 632 654 554 q 644 713 654 674 q 609 776 633 751 q 543 800 585 800 q 478 774 513 800 q 420 694 444 747 q 396 558 396 640 q 406 483 396 519 q 440 422 415 446 q 506 399 464 399 z "},"A":{"ha":1013,"x_min":-8,"x_max":1006,"o":"m 115 -36 q 19 5 47 -36 q -8 114 -8 46 q 12 229 -8 165 q 64 363 32 293 q 132 504 96 433 q 202 640 168 575 q 260 758 236 706 q 243 832 253 793 q 225 906 233 871 q 356 978 288 949 q 519 1007 424 1007 q 581 997 556 1007 q 619 972 606 988 q 690 997 656 988 q 764 1007 725 1007 q 842 977 817 1007 q 874 901 867 947 q 882 803 882 854 q 876 643 882 724 q 871 472 871 563 q 881 286 871 376 q 919 126 890 196 q 1006 24 949 57 q 915 -21 958 -6 q 811 -36 871 -36 q 700 1 743 -36 q 633 103 657 39 q 597 244 608 167 l 314 244 q 294 166 301 201 q 288 103 288 131 q 299 29 288 58 q 203 -19 247 -3 q 115 -36 158 -36 m 372 390 l 588 390 q 590 531 588 468 q 595 651 592 593 q 603 771 599 708 l 558 771 q 461 578 511 678 q 372 390 411 478 z "},"Á":{"ha":1013,"x_min":-8,"x_max":1006,"o":"m 115 -36 q 19 5 47 -36 q -8 114 -8 46 q 12 229 -8 165 q 64 363 32 293 q 132 504 96 433 q 202 640 168 575 q 260 758 236 706 q 243 832 253 793 q 225 906 233 871 q 356 978 288 949 q 519 1007 424 1007 q 581 997 556 1007 q 619 972 606 988 q 690 997 656 988 q 764 1007 725 1007 q 842 977 817 1007 q 874 901 867 947 q 882 803 882 854 q 876 643 882 724 q 871 472 871 563 q 881 286 871 376 q 919 126 890 196 q 1006 24 949 57 q 915 -21 958 -6 q 811 -36 871 -36 q 700 1 743 -36 q 633 103 657 39 q 597 244 608 167 l 314 244 q 294 166 301 201 q 288 103 288 131 q 299 29 288 58 q 203 -19 247 -3 q 115 -36 158 -36 m 372 390 l 588 390 q 590 531 588 468 q 595 651 592 593 q 603 771 599 708 l 558 771 q 461 578 511 678 q 372 390 411 478 m 463 1046 q 412 1069 435 1046 q 385 1151 389 1093 q 490 1199 439 1164 q 588 1274 540 1235 q 682 1341 636 1313 q 774 1369 728 1369 q 828 1341 806 1369 q 851 1238 851 1313 q 848 1188 851 1214 q 838 1136 844 1161 q 822 1138 831 1138 q 806 1139 813 1139 q 715 1125 758 1139 q 631 1092 672 1111 q 549 1060 590 1074 q 463 1046 507 1046 z "},"Ă":{"ha":1013,"x_min":-8,"x_max":1006,"o":"m 115 -36 q 19 5 47 -36 q -8 114 -8 46 q 12 229 -8 165 q 64 363 32 293 q 132 504 96 433 q 202 640 168 575 q 260 758 236 706 q 243 832 253 793 q 225 906 233 871 q 356 978 288 949 q 519 1007 424 1007 q 581 997 556 1007 q 619 972 606 988 q 690 997 656 988 q 764 1007 725 1007 q 842 977 817 1007 q 874 901 867 947 q 882 803 882 854 q 876 643 882 724 q 871 472 871 563 q 881 286 871 376 q 919 126 890 196 q 1006 24 949 57 q 915 -21 958 -6 q 811 -36 871 -36 q 700 1 743 -36 q 633 103 657 39 q 597 244 608 167 l 314 244 q 294 166 301 201 q 288 103 288 131 q 299 29 288 58 q 203 -19 247 -3 q 115 -36 158 -36 m 372 390 l 588 390 q 590 531 588 468 q 595 651 592 593 q 603 771 599 708 l 558 771 q 461 578 511 678 q 372 390 411 478 m 554 1058 q 418 1098 471 1058 q 365 1226 365 1138 q 368 1276 365 1251 q 379 1331 371 1301 q 478 1263 422 1281 q 604 1244 533 1244 q 743 1275 674 1244 q 864 1358 813 1306 q 869 1324 867 1340 q 871 1292 871 1307 q 842 1185 871 1229 q 765 1113 813 1142 q 663 1072 718 1085 q 554 1058 607 1058 z "},"Â":{"ha":1013,"x_min":-8,"x_max":1006,"o":"m 115 -36 q 19 5 47 -36 q -8 114 -8 46 q 12 229 -8 165 q 64 363 32 293 q 132 504 96 433 q 202 640 168 575 q 260 758 236 706 q 243 832 253 793 q 225 906 233 871 q 356 978 288 949 q 519 1007 424 1007 q 581 997 556 1007 q 619 972 606 988 q 690 997 656 988 q 764 1007 725 1007 q 842 977 817 1007 q 874 901 867 947 q 882 803 882 854 q 876 643 882 724 q 871 472 871 563 q 881 286 871 376 q 919 126 890 196 q 1006 24 949 57 q 915 -21 958 -6 q 811 -36 871 -36 q 700 1 743 -36 q 633 103 657 39 q 597 244 608 167 l 314 244 q 294 166 301 201 q 288 103 288 131 q 299 29 288 58 q 203 -19 247 -3 q 115 -36 158 -36 m 372 390 l 588 390 q 590 531 588 468 q 595 651 592 593 q 603 771 599 708 l 558 771 q 461 578 511 678 q 372 390 411 478 m 408 1033 q 347 1041 365 1033 q 329 1060 329 1049 q 349 1114 329 1081 q 397 1185 368 1147 q 454 1256 425 1222 q 501 1310 483 1289 q 556 1327 518 1319 q 642 1340 593 1335 q 738 1344 690 1344 q 851 1333 803 1344 q 900 1293 900 1321 q 893 1206 900 1244 q 886 1122 886 1168 q 892 1079 886 1099 q 906 1044 897 1060 q 858 1036 882 1039 q 807 1033 833 1033 q 699 1065 725 1033 q 674 1147 674 1097 q 677 1201 674 1172 q 683 1258 681 1229 l 647 1258 q 588 1157 611 1214 q 564 1050 564 1100 q 482 1037 521 1040 q 408 1033 443 1033 z "},"Ä":{"ha":1013,"x_min":-8,"x_max":1006,"o":"m 115 -36 q 19 5 47 -36 q -8 114 -8 46 q 12 229 -8 165 q 64 363 32 293 q 132 504 96 433 q 202 640 168 575 q 260 758 236 706 q 243 832 253 793 q 225 906 233 871 q 356 978 288 949 q 519 1007 424 1007 q 581 997 556 1007 q 619 972 606 988 q 690 997 656 988 q 764 1007 725 1007 q 842 977 817 1007 q 874 901 867 947 q 882 803 882 854 q 876 643 882 724 q 871 472 871 563 q 881 286 871 376 q 919 126 890 196 q 1006 24 949 57 q 915 -21 958 -6 q 811 -36 871 -36 q 700 1 743 -36 q 633 103 657 39 q 597 244 608 167 l 314 244 q 294 166 301 201 q 288 103 288 131 q 299 29 288 58 q 203 -19 247 -3 q 115 -36 158 -36 m 372 390 l 588 390 q 590 531 588 468 q 595 651 592 593 q 603 771 599 708 l 558 771 q 461 578 511 678 q 372 390 411 478 m 806 1064 q 713 1092 750 1064 q 675 1168 675 1119 q 703 1253 675 1219 q 772 1302 731 1286 q 849 1318 813 1318 q 942 1290 906 1318 q 979 1213 979 1261 q 955 1134 979 1168 q 891 1082 931 1100 q 806 1064 851 1064 m 388 1064 q 294 1092 332 1064 q 257 1168 257 1119 q 285 1253 257 1219 q 353 1302 313 1286 q 431 1318 394 1318 q 524 1290 488 1318 q 561 1213 561 1261 q 537 1134 561 1168 q 473 1082 513 1100 q 388 1064 433 1064 z "},"À":{"ha":1013,"x_min":-8,"x_max":1006,"o":"m 115 -36 q 19 5 47 -36 q -8 114 -8 46 q 12 229 -8 165 q 64 363 32 293 q 132 504 96 433 q 202 640 168 575 q 260 758 236 706 q 243 832 253 793 q 225 906 233 871 q 356 978 288 949 q 519 1007 424 1007 q 581 997 556 1007 q 619 972 606 988 q 690 997 656 988 q 764 1007 725 1007 q 842 977 817 1007 q 874 901 867 947 q 882 803 882 854 q 876 643 882 724 q 871 472 871 563 q 881 286 871 376 q 919 126 890 196 q 1006 24 949 57 q 915 -21 958 -6 q 811 -36 871 -36 q 700 1 743 -36 q 633 103 657 39 q 597 244 608 167 l 314 244 q 294 166 301 201 q 288 103 288 131 q 299 29 288 58 q 203 -19 247 -3 q 115 -36 158 -36 m 372 390 l 588 390 q 590 531 588 468 q 595 651 592 593 q 603 771 599 708 l 558 771 q 461 578 511 678 q 372 390 411 478 m 774 1046 q 688 1060 729 1046 q 605 1092 646 1074 q 521 1125 564 1111 q 431 1139 478 1139 q 415 1138 424 1139 q 399 1136 406 1138 q 388 1188 392 1161 q 385 1238 385 1214 q 408 1341 385 1313 q 463 1369 432 1369 q 554 1341 508 1369 q 648 1274 600 1313 q 747 1199 696 1235 q 851 1151 797 1164 q 824 1069 847 1093 q 774 1046 801 1046 z "},"Ā":{"ha":1013,"x_min":-8,"x_max":1006,"o":"m 115 -36 q 19 5 47 -36 q -8 114 -8 46 q 12 229 -8 165 q 64 363 32 293 q 132 504 96 433 q 202 640 168 575 q 260 758 236 706 q 243 832 253 793 q 225 906 233 871 q 356 978 288 949 q 519 1007 424 1007 q 581 997 556 1007 q 619 972 606 988 q 690 997 656 988 q 764 1007 725 1007 q 842 977 817 1007 q 874 901 867 947 q 882 803 882 854 q 876 643 882 724 q 871 472 871 563 q 881 286 871 376 q 919 126 890 196 q 1006 24 949 57 q 915 -21 958 -6 q 811 -36 871 -36 q 700 1 743 -36 q 633 103 657 39 q 597 244 608 167 l 314 244 q 294 166 301 201 q 288 103 288 131 q 299 29 288 58 q 203 -19 247 -3 q 115 -36 158 -36 m 372 390 l 588 390 q 590 531 588 468 q 595 651 592 593 q 603 771 599 708 l 558 771 q 461 578 511 678 q 372 390 411 478 m 406 1090 q 372 1106 386 1090 q 357 1164 357 1121 q 368 1241 357 1207 q 397 1311 379 1275 q 451 1298 418 1301 q 500 1294 485 1294 q 637 1299 567 1294 q 779 1303 707 1303 q 852 1281 826 1303 q 878 1204 878 1258 q 874 1155 878 1181 q 858 1104 869 1129 q 808 1119 842 1115 q 753 1124 774 1124 q 638 1115 699 1124 q 517 1099 576 1107 q 406 1090 458 1090 z "},"Ą":{"ha":1013,"x_min":-8,"x_max":1088,"o":"m 115 -36 q 19 5 47 -36 q -8 114 -8 46 q 12 229 -8 165 q 64 363 32 293 q 132 504 96 433 q 202 640 168 575 q 260 758 236 706 q 243 832 253 793 q 225 906 233 871 q 356 978 288 949 q 519 1007 424 1007 q 581 997 556 1007 q 619 972 606 988 q 690 997 656 988 q 764 1007 725 1007 q 842 977 817 1007 q 874 901 867 947 q 882 803 882 854 q 876 643 882 724 q 871 472 871 563 q 881 286 871 376 q 919 126 890 196 q 1006 24 949 57 q 915 -21 958 -6 q 811 -36 871 -36 q 700 1 743 -36 q 633 103 657 39 q 597 244 608 167 l 314 244 q 294 166 301 201 q 288 103 288 131 q 299 29 288 58 q 203 -19 247 -3 q 115 -36 158 -36 m 372 390 l 588 390 q 590 531 588 468 q 595 651 592 593 q 603 771 599 708 l 558 771 q 461 578 511 678 q 372 390 411 478 m 822 -396 q 667 -347 715 -396 q 619 -233 619 -299 q 658 -118 619 -174 q 763 -23 697 -62 q 907 31 828 17 l 979 31 l 979 8 q 839 -75 882 -25 q 796 -186 796 -125 q 817 -240 796 -221 q 869 -258 839 -258 q 928 -239 903 -258 q 967 -190 953 -219 q 981 -132 981 -161 q 975 -97 981 -112 q 1061 -144 1035 -112 q 1088 -212 1088 -175 q 1054 -298 1088 -256 q 962 -368 1021 -340 q 822 -396 903 -396 z "},"Å":{"ha":1013,"x_min":-8,"x_max":1006,"o":"m 115 -36 q 19 5 47 -36 q -8 114 -8 46 q 12 229 -8 165 q 64 363 32 293 q 132 504 96 433 q 202 640 168 575 q 260 758 236 706 q 243 832 253 793 q 225 906 233 871 q 356 978 288 949 q 519 1007 424 1007 q 581 997 556 1007 q 619 972 606 988 q 690 997 656 988 q 764 1007 725 1007 q 842 977 817 1007 q 874 901 867 947 q 882 803 882 854 q 876 643 882 724 q 871 472 871 563 q 881 286 871 376 q 919 126 890 196 q 1006 24 949 57 q 915 -21 958 -6 q 811 -36 871 -36 q 700 1 743 -36 q 633 103 657 39 q 597 244 608 167 l 314 244 q 294 166 301 201 q 288 103 288 131 q 299 29 288 58 q 203 -19 247 -3 q 115 -36 158 -36 m 372 390 l 588 390 q 590 531 588 468 q 595 651 592 593 q 603 771 599 708 l 558 771 q 461 578 511 678 q 372 390 411 478 m 592 1017 q 428 1065 486 1017 q 369 1190 369 1114 q 404 1308 369 1258 q 501 1387 439 1358 q 643 1415 563 1415 q 808 1367 750 1415 q 865 1242 865 1319 q 831 1123 865 1174 q 734 1044 796 1072 q 592 1017 672 1017 m 594 1107 q 664 1149 635 1107 q 693 1243 693 1190 q 678 1299 693 1275 q 610 1322 663 1322 q 592 1322 600 1322 q 574 1319 585 1321 q 537 1258 549 1292 q 525 1196 525 1225 q 544 1133 525 1160 q 594 1107 563 1107 z "},"Ǻ":{"ha":1013,"x_min":-8,"x_max":1013,"o":"m 607 1017 q 443 1065 501 1017 q 385 1190 385 1114 q 419 1308 385 1258 q 516 1387 454 1358 q 658 1415 578 1415 q 672 1415 665 1415 q 683 1414 678 1415 q 774 1480 731 1444 q 859 1542 817 1515 q 943 1568 901 1568 q 992 1543 971 1568 q 1013 1450 1013 1518 q 1010 1405 1013 1428 q 1000 1358 1007 1382 q 987 1360 994 1360 q 972 1361 979 1361 q 910 1353 940 1361 q 853 1335 881 1346 q 881 1242 881 1294 q 846 1123 881 1174 q 749 1044 811 1072 q 607 1017 688 1017 m 610 1107 q 679 1149 650 1107 q 708 1243 708 1190 q 693 1299 708 1275 q 625 1322 678 1322 q 608 1322 615 1322 q 589 1319 600 1321 q 552 1258 564 1292 q 540 1196 540 1225 q 559 1133 540 1160 q 610 1107 578 1107 m 115 -36 q 19 5 47 -36 q -8 114 -8 46 q 12 229 -8 165 q 64 363 32 293 q 132 504 96 433 q 202 640 168 575 q 260 758 236 706 q 243 832 253 793 q 225 906 233 871 q 356 978 288 949 q 519 1007 424 1007 q 581 997 556 1007 q 619 972 606 988 q 690 997 656 988 q 764 1007 725 1007 q 842 977 817 1007 q 874 901 867 947 q 882 803 882 854 q 876 643 882 724 q 871 472 871 563 q 881 286 871 376 q 919 126 890 196 q 1006 24 949 57 q 915 -21 958 -6 q 811 -36 871 -36 q 700 1 743 -36 q 633 103 657 39 q 597 244 608 167 l 314 244 q 294 166 301 201 q 288 103 288 131 q 299 29 288 58 q 203 -19 247 -3 q 115 -36 158 -36 m 372 390 l 588 390 q 590 531 588 468 q 595 651 592 593 q 603 771 599 708 l 558 771 q 461 578 511 678 q 372 390 411 478 z "},"Ã":{"ha":1013,"x_min":-8,"x_max":1006,"o":"m 115 -36 q 19 5 47 -36 q -8 114 -8 46 q 12 229 -8 165 q 64 363 32 293 q 132 504 96 433 q 202 640 168 575 q 260 758 236 706 q 243 832 253 793 q 225 906 233 871 q 356 978 288 949 q 519 1007 424 1007 q 581 997 556 1007 q 619 972 606 988 q 690 997 656 988 q 764 1007 725 1007 q 842 977 817 1007 q 874 901 867 947 q 882 803 882 854 q 876 643 882 724 q 871 472 871 563 q 881 286 871 376 q 919 126 890 196 q 1006 24 949 57 q 915 -21 958 -6 q 811 -36 871 -36 q 700 1 743 -36 q 633 103 657 39 q 597 244 608 167 l 314 244 q 294 166 301 201 q 288 103 288 131 q 299 29 288 58 q 203 -19 247 -3 q 115 -36 158 -36 m 372 390 l 588 390 q 590 531 588 468 q 595 651 592 593 q 603 771 599 708 l 558 771 q 461 578 511 678 q 372 390 411 478 m 424 1064 q 360 1083 385 1064 q 335 1151 335 1101 q 372 1297 335 1215 q 431 1276 401 1283 q 488 1269 460 1269 q 601 1290 547 1269 q 706 1331 654 1311 q 813 1351 758 1351 q 876 1333 851 1351 q 901 1264 901 1314 q 864 1118 901 1200 q 806 1140 835 1133 q 749 1146 776 1146 q 636 1126 690 1146 q 530 1085 582 1106 q 424 1064 478 1064 z "},"Æ":{"ha":1343,"x_min":-8,"x_max":1371,"o":"m 115 -36 q 19 5 47 -36 q -8 114 -8 46 q 12 229 -8 165 q 64 363 32 293 q 132 504 96 433 q 202 640 168 575 q 260 758 236 706 l 225 906 q 407 956 310 933 q 608 994 504 979 q 811 1008 711 1008 q 923 986 889 1008 q 967 931 957 964 q 1081 942 1015 932 q 1219 967 1146 951 q 1360 1001 1292 982 q 1369 953 1367 975 q 1371 911 1371 931 q 1335 782 1371 832 q 1238 708 1299 732 q 1106 685 1178 685 q 950 718 1028 685 q 931 614 942 669 q 910 504 921 558 l 999 504 q 1062 516 1026 504 q 1124 536 1097 528 q 1130 499 1129 518 q 1131 469 1131 481 q 1085 372 1131 403 q 979 342 1040 342 l 881 342 q 871 269 875 304 q 867 189 867 235 l 1092 189 q 1304 243 1197 204 q 1311 211 1310 228 q 1313 175 1313 194 q 1293 78 1313 126 q 1233 -3 1274 29 q 1132 -35 1193 -35 q 1067 -29 1100 -35 q 997 -17 1033 -24 q 941 -6 971 -11 q 875 4 911 0 q 736 -36 808 -36 q 605 17 643 -36 q 567 179 567 71 q 571 248 567 207 q 582 342 575 289 l 342 342 q 302 215 317 276 q 288 103 288 154 q 299 29 288 58 q 203 -19 247 -3 q 115 -36 158 -36 m 413 504 l 608 504 l 657 771 l 558 771 q 488 648 526 717 q 413 504 449 579 z "},"Ǽ":{"ha":1343,"x_min":-8,"x_max":1371,"o":"m 115 -36 q 19 5 47 -36 q -8 114 -8 46 q 12 229 -8 165 q 64 363 32 293 q 132 504 96 433 q 202 640 168 575 q 260 758 236 706 l 225 906 q 407 956 310 933 q 608 994 504 979 q 811 1008 711 1008 q 923 986 889 1008 q 967 931 957 964 q 1081 942 1015 932 q 1219 967 1146 951 q 1360 1001 1292 982 q 1369 953 1367 975 q 1371 911 1371 931 q 1335 782 1371 832 q 1238 708 1299 732 q 1106 685 1178 685 q 950 718 1028 685 q 931 614 942 669 q 910 504 921 558 l 999 504 q 1062 516 1026 504 q 1124 536 1097 528 q 1130 499 1129 518 q 1131 469 1131 481 q 1085 372 1131 403 q 979 342 1040 342 l 881 342 q 871 269 875 304 q 867 189 867 235 l 1092 189 q 1304 243 1197 204 q 1311 211 1310 228 q 1313 175 1313 194 q 1293 78 1313 126 q 1233 -3 1274 29 q 1132 -35 1193 -35 q 1067 -29 1100 -35 q 997 -17 1033 -24 q 941 -6 971 -11 q 875 4 911 0 q 736 -36 808 -36 q 605 17 643 -36 q 567 179 567 71 q 571 248 567 207 q 582 342 575 289 l 342 342 q 302 215 317 276 q 288 103 288 154 q 299 29 288 58 q 203 -19 247 -3 q 115 -36 158 -36 m 413 504 l 608 504 l 657 771 l 558 771 q 488 648 526 717 q 413 504 449 579 m 654 1046 q 603 1069 626 1046 q 576 1151 581 1093 q 681 1199 631 1164 q 780 1274 732 1235 q 874 1341 828 1313 q 965 1369 919 1369 q 1020 1341 997 1369 q 1043 1238 1043 1313 q 1040 1188 1043 1214 q 1029 1136 1036 1161 q 1013 1138 1022 1138 q 997 1139 1004 1139 q 907 1125 950 1139 q 823 1092 864 1111 q 740 1060 782 1074 q 654 1046 699 1046 z "},"B":{"ha":1051,"x_min":83,"x_max":1010,"o":"m 253 -36 q 122 17 160 -36 q 83 179 83 71 q 106 388 83 249 q 171 758 129 528 l 97 907 q 236 978 163 949 q 383 1008 310 1008 q 456 985 432 1008 q 486 925 479 961 q 620 984 550 961 q 767 1007 690 1007 q 876 989 821 1007 q 968 926 931 971 q 1006 797 1006 881 q 950 628 1006 701 q 788 511 894 556 q 898 474 847 501 q 979 394 949 446 q 1010 263 1010 343 q 977 135 1010 190 q 891 41 944 79 q 773 -16 838 3 q 644 -35 708 -35 q 512 -18 567 -35 q 421 24 457 -1 q 253 -36 339 -36 m 431 525 q 562 551 499 531 q 666 613 625 572 q 707 719 707 654 q 599 824 707 824 q 539 818 568 824 q 482 803 510 813 q 460 676 474 750 q 431 525 446 601 m 532 160 q 642 193 594 160 q 689 296 689 226 q 649 391 689 363 q 551 419 608 419 q 478 412 517 419 q 406 393 440 404 q 390 294 396 338 q 383 228 383 251 l 383 192 q 454 169 415 178 q 532 160 493 160 z "},"C":{"ha":949,"x_min":42,"x_max":935,"o":"m 463 -35 q 248 15 343 -35 q 97 167 153 64 q 42 426 42 269 q 68 583 42 503 q 145 740 94 664 q 272 876 196 815 q 447 972 347 936 q 669 1007 547 1007 q 805 986 744 1007 q 900 924 865 965 q 935 822 935 883 q 908 722 935 763 q 837 662 881 682 q 742 642 793 642 q 622 672 681 642 q 528 763 564 703 q 437 683 479 739 q 369 551 394 626 q 344 396 344 476 q 359 290 344 339 q 404 210 374 240 q 482 179 435 179 q 557 209 521 179 q 617 289 593 239 q 640 401 640 339 q 783 394 725 401 q 871 361 840 386 q 901 283 901 336 q 871 175 901 231 q 783 72 840 119 q 644 -6 725 24 q 463 -35 563 -35 z "},"Ć":{"ha":949,"x_min":42,"x_max":935,"o":"m 463 -35 q 248 15 343 -35 q 97 167 153 64 q 42 426 42 269 q 68 583 42 503 q 145 740 94 664 q 272 876 196 815 q 447 972 347 936 q 669 1007 547 1007 q 805 986 744 1007 q 900 924 865 965 q 935 822 935 883 q 908 722 935 763 q 837 662 881 682 q 742 642 793 642 q 622 672 681 642 q 528 763 564 703 q 437 683 479 739 q 369 551 394 626 q 344 396 344 476 q 359 290 344 339 q 404 210 374 240 q 482 179 435 179 q 557 209 521 179 q 617 289 593 239 q 640 401 640 339 q 783 394 725 401 q 871 361 840 386 q 901 283 901 336 q 871 175 901 231 q 783 72 840 119 q 644 -6 725 24 q 463 -35 563 -35 m 443 1046 q 392 1069 415 1046 q 365 1151 369 1093 q 470 1199 419 1164 q 569 1274 521 1235 q 663 1341 617 1313 q 754 1369 708 1369 q 809 1341 786 1369 q 832 1238 832 1313 q 828 1188 832 1214 q 818 1136 825 1161 q 802 1138 811 1138 q 786 1139 793 1139 q 696 1125 739 1139 q 612 1092 653 1111 q 529 1060 571 1074 q 443 1046 488 1046 z "},"Č":{"ha":949,"x_min":42,"x_max":947,"o":"m 463 -35 q 248 15 343 -35 q 97 167 153 64 q 42 426 42 269 q 68 583 42 503 q 145 740 94 664 q 272 876 196 815 q 447 972 347 936 q 669 1007 547 1007 q 805 986 744 1007 q 900 924 865 965 q 935 822 935 883 q 908 722 935 763 q 837 662 881 682 q 742 642 793 642 q 622 672 681 642 q 528 763 564 703 q 437 683 479 739 q 369 551 394 626 q 344 396 344 476 q 359 290 344 339 q 404 210 374 240 q 482 179 435 179 q 557 209 521 179 q 617 289 593 239 q 640 401 640 339 q 783 394 725 401 q 871 361 840 386 q 901 283 901 336 q 871 175 901 231 q 783 72 840 119 q 644 -6 725 24 q 463 -35 563 -35 m 593 1028 q 476 1046 525 1028 q 426 1107 426 1064 l 426 1222 q 414 1279 426 1258 q 383 1313 401 1300 q 444 1331 410 1324 q 514 1339 479 1339 q 595 1317 564 1339 q 626 1235 626 1294 q 622 1178 626 1211 q 611 1114 617 1146 l 653 1114 q 693 1180 676 1138 q 710 1265 710 1222 q 709 1289 710 1276 q 707 1314 708 1301 q 768 1332 735 1325 q 840 1339 801 1339 q 924 1324 900 1339 q 947 1285 947 1308 q 931 1231 947 1261 q 890 1171 914 1201 q 840 1113 865 1140 q 797 1065 815 1085 q 706 1038 763 1049 q 593 1028 650 1028 z "},"Ç":{"ha":949,"x_min":42,"x_max":935,"o":"m 463 -35 q 248 15 343 -35 q 97 167 153 64 q 42 426 42 269 q 68 583 42 503 q 145 740 94 664 q 272 876 196 815 q 447 972 347 936 q 669 1007 547 1007 q 805 986 744 1007 q 900 924 865 965 q 935 822 935 883 q 908 722 935 763 q 837 662 881 682 q 742 642 793 642 q 622 672 681 642 q 528 763 564 703 q 437 683 479 739 q 369 551 394 626 q 344 396 344 476 q 359 290 344 339 q 404 210 374 240 q 482 179 435 179 q 557 209 521 179 q 617 289 593 239 q 640 401 640 339 q 783 394 725 401 q 871 361 840 386 q 901 283 901 336 q 871 175 901 231 q 783 72 840 119 q 644 -6 725 24 q 463 -35 563 -35 m 272 -399 q 149 -375 194 -399 q 83 -317 103 -351 q 64 -250 64 -283 q 88 -167 64 -204 q 153 -106 111 -129 q 250 -83 196 -83 q 222 -126 232 -99 q 211 -181 211 -153 q 233 -242 211 -222 q 282 -261 254 -261 q 357 -228 321 -261 q 393 -135 393 -194 q 363 -47 393 -90 q 269 24 333 -3 l 269 39 l 322 39 q 459 12 406 39 q 538 -60 513 -15 q 564 -154 564 -104 q 530 -269 564 -212 q 431 -362 496 -325 q 272 -399 367 -399 z "},"Ĉ":{"ha":949,"x_min":42,"x_max":935,"o":"m 463 -35 q 248 15 343 -35 q 97 167 153 64 q 42 426 42 269 q 68 583 42 503 q 145 740 94 664 q 272 876 196 815 q 447 972 347 936 q 669 1007 547 1007 q 805 986 744 1007 q 900 924 865 965 q 935 822 935 883 q 908 722 935 763 q 837 662 881 682 q 742 642 793 642 q 622 672 681 642 q 528 763 564 703 q 437 683 479 739 q 369 551 394 626 q 344 396 344 476 q 359 290 344 339 q 404 210 374 240 q 482 179 435 179 q 557 209 521 179 q 617 289 593 239 q 640 401 640 339 q 783 394 725 401 q 871 361 840 386 q 901 283 901 336 q 871 175 901 231 q 783 72 840 119 q 644 -6 725 24 q 463 -35 563 -35 m 389 1033 q 328 1041 346 1033 q 310 1060 310 1049 q 329 1114 310 1081 q 377 1185 349 1147 q 435 1256 406 1222 q 482 1310 464 1289 q 536 1327 499 1319 q 622 1340 574 1335 q 718 1344 671 1344 q 832 1333 783 1344 q 881 1293 881 1321 q 874 1206 881 1244 q 867 1122 867 1168 q 872 1079 867 1099 q 886 1044 878 1060 q 838 1036 863 1039 q 788 1033 814 1033 q 680 1065 706 1033 q 654 1147 654 1097 q 658 1201 654 1172 q 664 1258 661 1229 l 628 1258 q 568 1157 592 1214 q 544 1050 544 1100 q 463 1037 501 1040 q 389 1033 424 1033 z "},"Ċ":{"ha":949,"x_min":42,"x_max":935,"o":"m 463 -35 q 248 15 343 -35 q 97 167 153 64 q 42 426 42 269 q 68 583 42 503 q 145 740 94 664 q 272 876 196 815 q 447 972 347 936 q 669 1007 547 1007 q 805 986 744 1007 q 900 924 865 965 q 935 822 935 883 q 908 722 935 763 q 837 662 881 682 q 742 642 793 642 q 622 672 681 642 q 528 763 564 703 q 437 683 479 739 q 369 551 394 626 q 344 396 344 476 q 359 290 344 339 q 404 210 374 240 q 482 179 435 179 q 557 209 521 179 q 617 289 593 239 q 640 401 640 339 q 783 394 725 401 q 871 361 840 386 q 901 283 901 336 q 871 175 901 231 q 783 72 840 119 q 644 -6 725 24 q 463 -35 563 -35 m 572 1039 q 456 1076 499 1039 q 414 1171 414 1113 q 474 1312 414 1258 q 625 1365 535 1365 q 741 1328 699 1365 q 783 1232 783 1292 q 723 1092 783 1146 q 572 1039 663 1039 z "},"D":{"ha":1078,"x_min":83,"x_max":1078,"o":"m 393 -35 q 234 -6 304 -35 q 124 81 164 24 q 83 226 83 139 q 97 364 83 279 q 129 551 110 449 q 167 758 149 653 l 93 907 q 242 979 171 951 q 393 1007 314 1007 q 449 996 426 1007 q 485 965 471 985 q 597 996 544 986 q 697 1006 650 1006 q 908 949 824 1006 q 1035 799 993 892 q 1078 596 1078 706 q 1051 419 1078 508 q 969 249 1024 331 q 832 103 914 167 q 640 2 750 39 q 393 -35 531 -35 m 443 168 q 620 221 549 168 q 728 360 692 274 q 764 546 764 446 q 707 749 764 671 q 538 828 650 828 q 511 826 525 828 q 482 822 497 825 q 460 683 474 767 q 431 506 447 600 q 401 324 415 413 q 378 174 386 236 q 411 169 394 171 q 443 168 428 168 z "},"Ð":{"ha":1108,"x_min":0,"x_max":1108,"o":"m 113 325 q 33 344 67 325 q 0 414 0 363 q 15 478 0 442 q 57 546 29 514 q 101 535 78 538 q 146 532 124 532 q 157 532 151 532 q 177 644 167 586 q 197 758 188 701 l 124 907 q 273 979 201 951 q 424 1007 344 1007 q 479 996 457 1007 q 515 965 501 985 q 628 996 575 986 q 728 1006 681 1006 q 939 949 854 1006 q 1066 799 1024 892 q 1108 596 1108 706 q 1081 419 1108 508 q 999 249 1054 331 q 863 103 944 167 q 671 2 781 39 q 424 -35 561 -35 q 265 -6 335 -35 q 154 81 194 24 q 114 226 114 139 q 116 271 114 246 q 122 325 118 296 q 113 325 117 325 m 474 168 q 651 221 579 168 q 758 360 722 274 q 794 546 794 446 q 738 749 794 671 q 568 828 681 828 q 542 826 556 828 q 513 822 528 825 q 498 728 507 783 q 479 611 489 674 q 529 624 506 619 q 576 629 553 629 q 656 611 622 629 q 689 540 689 593 q 674 476 689 513 q 632 408 660 440 q 589 419 611 417 q 543 422 567 422 q 494 420 518 422 q 446 414 469 418 q 425 283 435 346 q 408 174 415 221 q 442 169 425 171 q 474 168 458 168 z "},"Ď":{"ha":1078,"x_min":83,"x_max":1078,"o":"m 393 -35 q 234 -6 304 -35 q 124 81 164 24 q 83 226 83 139 q 97 364 83 279 q 129 551 110 449 q 167 758 149 653 l 93 907 q 242 979 171 951 q 393 1007 314 1007 q 449 996 426 1007 q 485 965 471 985 q 597 996 544 986 q 697 1006 650 1006 q 908 949 824 1006 q 1035 799 993 892 q 1078 596 1078 706 q 1051 419 1078 508 q 969 249 1024 331 q 832 103 914 167 q 640 2 750 39 q 393 -35 531 -35 m 443 168 q 620 221 549 168 q 728 360 692 274 q 764 546 764 446 q 707 749 764 671 q 538 828 650 828 q 511 826 525 828 q 482 822 497 825 q 460 683 474 767 q 431 506 447 600 q 401 324 415 413 q 378 174 386 236 q 411 169 394 171 q 443 168 428 168 m 603 1028 q 485 1046 535 1028 q 436 1107 436 1064 l 436 1222 q 424 1279 436 1258 q 393 1313 411 1300 q 454 1331 419 1324 q 524 1339 489 1339 q 605 1317 574 1339 q 636 1235 636 1294 q 631 1178 636 1211 q 621 1114 626 1146 l 663 1114 q 703 1180 686 1138 q 719 1265 719 1222 q 719 1289 719 1276 q 717 1314 718 1301 q 778 1332 744 1325 q 850 1339 811 1339 q 933 1324 910 1339 q 957 1285 957 1308 q 940 1231 957 1261 q 899 1171 924 1201 q 850 1113 875 1140 q 807 1065 825 1085 q 716 1038 772 1049 q 603 1028 660 1028 z "},"Đ":{"ha":1108,"x_min":0,"x_max":1108,"o":"m 113 325 q 33 344 67 325 q 0 414 0 363 q 15 478 0 442 q 57 546 29 514 q 101 535 78 538 q 146 532 124 532 q 157 532 151 532 q 177 644 167 586 q 197 758 188 701 l 124 907 q 273 979 201 951 q 424 1007 344 1007 q 479 996 457 1007 q 515 965 501 985 q 628 996 575 986 q 728 1006 681 1006 q 939 949 854 1006 q 1066 799 1024 892 q 1108 596 1108 706 q 1081 419 1108 508 q 999 249 1054 331 q 863 103 944 167 q 671 2 781 39 q 424 -35 561 -35 q 265 -6 335 -35 q 154 81 194 24 q 114 226 114 139 q 116 271 114 246 q 122 325 118 296 q 113 325 117 325 m 474 168 q 651 221 579 168 q 758 360 722 274 q 794 546 794 446 q 738 749 794 671 q 568 828 681 828 q 542 826 556 828 q 513 822 528 825 q 498 728 507 783 q 479 611 489 674 q 529 624 506 619 q 576 629 553 629 q 656 611 622 629 q 689 540 689 593 q 674 476 689 513 q 632 408 660 440 q 589 419 611 417 q 543 422 567 422 q 494 420 518 422 q 446 414 469 418 q 425 283 435 346 q 408 174 415 221 q 442 169 425 171 q 474 168 458 168 z "},"E":{"ha":860,"x_min":83,"x_max":888,"o":"m 253 -36 q 122 17 160 -36 q 83 179 83 71 q 106 388 83 249 q 171 758 129 528 l 97 907 q 236 978 163 949 q 383 1008 310 1008 q 453 986 431 1008 q 485 931 476 964 q 599 942 533 932 q 736 967 664 951 q 876 1001 808 982 q 885 953 883 975 q 888 911 888 931 q 851 782 888 832 q 755 708 815 732 q 622 685 694 685 q 467 718 544 685 q 449 619 458 671 q 428 514 439 567 q 472 507 450 510 q 515 504 493 504 q 578 519 543 510 q 640 536 614 528 q 647 499 646 518 q 647 469 647 481 q 602 372 647 403 q 496 342 557 342 q 446 345 469 342 q 399 354 422 349 q 388 275 392 313 q 383 189 383 238 l 608 189 q 821 243 714 204 q 828 211 826 228 q 829 175 829 194 q 810 78 829 126 q 750 -3 790 29 q 649 -35 710 -35 q 583 -29 617 -35 q 514 -17 550 -24 q 458 -6 488 -11 q 392 4 428 0 q 253 -36 325 -36 z "},"É":{"ha":860,"x_min":83,"x_max":888,"o":"m 253 -36 q 122 17 160 -36 q 83 179 83 71 q 106 388 83 249 q 171 758 129 528 l 97 907 q 236 978 163 949 q 383 1008 310 1008 q 453 986 431 1008 q 485 931 476 964 q 599 942 533 932 q 736 967 664 951 q 876 1001 808 982 q 885 953 883 975 q 888 911 888 931 q 851 782 888 832 q 755 708 815 732 q 622 685 694 685 q 467 718 544 685 q 449 619 458 671 q 428 514 439 567 q 472 507 450 510 q 515 504 493 504 q 578 519 543 510 q 640 536 614 528 q 647 499 646 518 q 647 469 647 481 q 602 372 647 403 q 496 342 557 342 q 446 345 469 342 q 399 354 422 349 q 388 275 392 313 q 383 189 383 238 l 608 189 q 821 243 714 204 q 828 211 826 228 q 829 175 829 194 q 810 78 829 126 q 750 -3 790 29 q 649 -35 710 -35 q 583 -29 617 -35 q 514 -17 550 -24 q 458 -6 488 -11 q 392 4 428 0 q 253 -36 325 -36 m 415 1046 q 365 1069 388 1046 q 338 1151 342 1093 q 442 1199 392 1164 q 541 1274 493 1235 q 635 1341 589 1313 q 726 1369 681 1369 q 781 1341 758 1369 q 804 1238 804 1313 q 801 1188 804 1214 q 790 1136 797 1161 q 774 1138 783 1138 q 758 1139 765 1139 q 668 1125 711 1139 q 584 1092 625 1111 q 501 1060 543 1074 q 415 1046 460 1046 z "},"Ĕ":{"ha":860,"x_min":83,"x_max":888,"o":"m 253 -36 q 122 17 160 -36 q 83 179 83 71 q 106 388 83 249 q 171 758 129 528 l 97 907 q 236 978 163 949 q 383 1008 310 1008 q 453 986 431 1008 q 485 931 476 964 q 599 942 533 932 q 736 967 664 951 q 876 1001 808 982 q 885 953 883 975 q 888 911 888 931 q 851 782 888 832 q 755 708 815 732 q 622 685 694 685 q 467 718 544 685 q 449 619 458 671 q 428 514 439 567 q 472 507 450 510 q 515 504 493 504 q 578 519 543 510 q 640 536 614 528 q 647 499 646 518 q 647 469 647 481 q 602 372 647 403 q 496 342 557 342 q 446 345 469 342 q 399 354 422 349 q 388 275 392 313 q 383 189 383 238 l 608 189 q 821 243 714 204 q 828 211 826 228 q 829 175 829 194 q 810 78 829 126 q 750 -3 790 29 q 649 -35 710 -35 q 583 -29 617 -35 q 514 -17 550 -24 q 458 -6 488 -11 q 392 4 428 0 q 253 -36 325 -36 m 507 1058 q 371 1098 424 1058 q 318 1226 318 1138 q 321 1276 318 1251 q 332 1331 324 1301 q 431 1263 375 1281 q 557 1244 486 1244 q 696 1275 626 1244 q 817 1358 765 1306 q 822 1324 819 1340 q 824 1292 824 1307 q 794 1185 824 1229 q 718 1113 765 1142 q 615 1072 671 1085 q 507 1058 560 1058 z "},"Ě":{"ha":860,"x_min":83,"x_max":919,"o":"m 253 -36 q 122 17 160 -36 q 83 179 83 71 q 106 388 83 249 q 171 758 129 528 l 97 907 q 236 978 163 949 q 383 1008 310 1008 q 453 986 431 1008 q 485 931 476 964 q 599 942 533 932 q 736 967 664 951 q 876 1001 808 982 q 885 953 883 975 q 888 911 888 931 q 851 782 888 832 q 755 708 815 732 q 622 685 694 685 q 467 718 544 685 q 449 619 458 671 q 428 514 439 567 q 472 507 450 510 q 515 504 493 504 q 578 519 543 510 q 640 536 614 528 q 647 499 646 518 q 647 469 647 481 q 602 372 647 403 q 496 342 557 342 q 446 345 469 342 q 399 354 422 349 q 388 275 392 313 q 383 189 383 238 l 608 189 q 821 243 714 204 q 828 211 826 228 q 829 175 829 194 q 810 78 829 126 q 750 -3 790 29 q 649 -35 710 -35 q 583 -29 617 -35 q 514 -17 550 -24 q 458 -6 488 -11 q 392 4 428 0 q 253 -36 325 -36 m 565 1028 q 448 1046 497 1028 q 399 1107 399 1064 l 399 1222 q 386 1279 399 1258 q 356 1313 374 1300 q 417 1331 382 1324 q 486 1339 451 1339 q 567 1317 536 1339 q 599 1235 599 1294 q 594 1178 599 1211 q 583 1114 589 1146 l 625 1114 q 665 1180 649 1138 q 682 1265 682 1222 q 681 1289 682 1276 q 679 1314 681 1301 q 740 1332 707 1325 q 813 1339 774 1339 q 896 1324 872 1339 q 919 1285 919 1308 q 903 1231 919 1261 q 862 1171 886 1201 q 813 1113 838 1140 q 769 1065 788 1085 q 678 1038 735 1049 q 565 1028 622 1028 z "},"Ê":{"ha":860,"x_min":83,"x_max":888,"o":"m 253 -36 q 122 17 160 -36 q 83 179 83 71 q 106 388 83 249 q 171 758 129 528 l 97 907 q 236 978 163 949 q 383 1008 310 1008 q 453 986 431 1008 q 485 931 476 964 q 599 942 533 932 q 736 967 664 951 q 876 1001 808 982 q 885 953 883 975 q 888 911 888 931 q 851 782 888 832 q 755 708 815 732 q 622 685 694 685 q 467 718 544 685 q 449 619 458 671 q 428 514 439 567 q 472 507 450 510 q 515 504 493 504 q 578 519 543 510 q 640 536 614 528 q 647 499 646 518 q 647 469 647 481 q 602 372 647 403 q 496 342 557 342 q 446 345 469 342 q 399 354 422 349 q 388 275 392 313 q 383 189 383 238 l 608 189 q 821 243 714 204 q 828 211 826 228 q 829 175 829 194 q 810 78 829 126 q 750 -3 790 29 q 649 -35 710 -35 q 583 -29 617 -35 q 514 -17 550 -24 q 458 -6 488 -11 q 392 4 428 0 q 253 -36 325 -36 m 361 1033 q 300 1041 318 1033 q 282 1060 282 1049 q 301 1114 282 1081 q 349 1185 321 1147 q 407 1256 378 1222 q 454 1310 436 1289 q 508 1327 471 1319 q 594 1340 546 1335 q 690 1344 643 1344 q 804 1333 756 1344 q 853 1293 853 1321 q 846 1206 853 1244 q 839 1122 839 1168 q 844 1079 839 1099 q 858 1044 850 1060 q 810 1036 835 1039 q 760 1033 786 1033 q 652 1065 678 1033 q 626 1147 626 1097 q 630 1201 626 1172 q 636 1258 633 1229 l 600 1258 q 540 1157 564 1214 q 517 1050 517 1100 q 435 1037 474 1040 q 361 1033 396 1033 z "},"Ë":{"ha":860,"x_min":83,"x_max":932,"o":"m 253 -36 q 122 17 160 -36 q 83 179 83 71 q 106 388 83 249 q 171 758 129 528 l 97 907 q 236 978 163 949 q 383 1008 310 1008 q 453 986 431 1008 q 485 931 476 964 q 599 942 533 932 q 736 967 664 951 q 876 1001 808 982 q 885 953 883 975 q 888 911 888 931 q 851 782 888 832 q 755 708 815 732 q 622 685 694 685 q 467 718 544 685 q 449 619 458 671 q 428 514 439 567 q 472 507 450 510 q 515 504 493 504 q 578 519 543 510 q 640 536 614 528 q 647 499 646 518 q 647 469 647 481 q 602 372 647 403 q 496 342 557 342 q 446 345 469 342 q 399 354 422 349 q 388 275 392 313 q 383 189 383 238 l 608 189 q 821 243 714 204 q 828 211 826 228 q 829 175 829 194 q 810 78 829 126 q 750 -3 790 29 q 649 -35 710 -35 q 583 -29 617 -35 q 514 -17 550 -24 q 458 -6 488 -11 q 392 4 428 0 q 253 -36 325 -36 m 758 1064 q 665 1092 703 1064 q 628 1168 628 1119 q 656 1253 628 1219 q 724 1302 683 1286 q 801 1318 765 1318 q 895 1290 858 1318 q 932 1213 932 1261 q 908 1134 932 1168 q 844 1082 883 1100 q 758 1064 804 1064 m 340 1064 q 247 1092 285 1064 q 210 1168 210 1119 q 238 1253 210 1219 q 306 1302 265 1286 q 383 1318 347 1318 q 477 1290 440 1318 q 514 1213 514 1261 q 490 1134 514 1168 q 426 1082 465 1100 q 340 1064 386 1064 z "},"Ė":{"ha":860,"x_min":83,"x_max":888,"o":"m 253 -36 q 122 17 160 -36 q 83 179 83 71 q 106 388 83 249 q 171 758 129 528 l 97 907 q 236 978 163 949 q 383 1008 310 1008 q 453 986 431 1008 q 485 931 476 964 q 599 942 533 932 q 736 967 664 951 q 876 1001 808 982 q 885 953 883 975 q 888 911 888 931 q 851 782 888 832 q 755 708 815 732 q 622 685 694 685 q 467 718 544 685 q 449 619 458 671 q 428 514 439 567 q 472 507 450 510 q 515 504 493 504 q 578 519 543 510 q 640 536 614 528 q 647 499 646 518 q 647 469 647 481 q 602 372 647 403 q 496 342 557 342 q 446 345 469 342 q 399 354 422 349 q 388 275 392 313 q 383 189 383 238 l 608 189 q 821 243 714 204 q 828 211 826 228 q 829 175 829 194 q 810 78 829 126 q 750 -3 790 29 q 649 -35 710 -35 q 583 -29 617 -35 q 514 -17 550 -24 q 458 -6 488 -11 q 392 4 428 0 q 253 -36 325 -36 m 544 1039 q 428 1076 471 1039 q 386 1171 386 1113 q 447 1312 386 1258 q 597 1365 507 1365 q 713 1328 671 1365 q 756 1232 756 1292 q 695 1092 756 1146 q 544 1039 635 1039 z "},"È":{"ha":860,"x_min":83,"x_max":888,"o":"m 253 -36 q 122 17 160 -36 q 83 179 83 71 q 106 388 83 249 q 171 758 129 528 l 97 907 q 236 978 163 949 q 383 1008 310 1008 q 453 986 431 1008 q 485 931 476 964 q 599 942 533 932 q 736 967 664 951 q 876 1001 808 982 q 885 953 883 975 q 888 911 888 931 q 851 782 888 832 q 755 708 815 732 q 622 685 694 685 q 467 718 544 685 q 449 619 458 671 q 428 514 439 567 q 472 507 450 510 q 515 504 493 504 q 578 519 543 510 q 640 536 614 528 q 647 499 646 518 q 647 469 647 481 q 602 372 647 403 q 496 342 557 342 q 446 345 469 342 q 399 354 422 349 q 388 275 392 313 q 383 189 383 238 l 608 189 q 821 243 714 204 q 828 211 826 228 q 829 175 829 194 q 810 78 829 126 q 750 -3 790 29 q 649 -35 710 -35 q 583 -29 617 -35 q 514 -17 550 -24 q 458 -6 488 -11 q 392 4 428 0 q 253 -36 325 -36 m 726 1046 q 640 1060 682 1046 q 558 1092 599 1074 q 474 1125 517 1111 q 383 1139 431 1139 q 367 1138 376 1139 q 351 1136 358 1138 q 341 1188 344 1161 q 338 1238 338 1214 q 361 1341 338 1313 q 415 1369 385 1369 q 507 1341 461 1369 q 601 1274 553 1313 q 699 1199 649 1235 q 804 1151 750 1164 q 777 1069 800 1093 q 726 1046 754 1046 z "},"Ē":{"ha":860,"x_min":83,"x_max":888,"o":"m 253 -36 q 122 17 160 -36 q 83 179 83 71 q 106 388 83 249 q 171 758 129 528 l 97 907 q 236 978 163 949 q 383 1008 310 1008 q 453 986 431 1008 q 485 931 476 964 q 599 942 533 932 q 736 967 664 951 q 876 1001 808 982 q 885 953 883 975 q 888 911 888 931 q 851 782 888 832 q 755 708 815 732 q 622 685 694 685 q 467 718 544 685 q 449 619 458 671 q 428 514 439 567 q 472 507 450 510 q 515 504 493 504 q 578 519 543 510 q 640 536 614 528 q 647 499 646 518 q 647 469 647 481 q 602 372 647 403 q 496 342 557 342 q 446 345 469 342 q 399 354 422 349 q 388 275 392 313 q 383 189 383 238 l 608 189 q 821 243 714 204 q 828 211 826 228 q 829 175 829 194 q 810 78 829 126 q 750 -3 790 29 q 649 -35 710 -35 q 583 -29 617 -35 q 514 -17 550 -24 q 458 -6 488 -11 q 392 4 428 0 q 253 -36 325 -36 m 358 1090 q 324 1106 339 1090 q 310 1164 310 1121 q 321 1241 310 1207 q 350 1311 332 1275 q 404 1298 371 1301 q 453 1294 438 1294 q 590 1299 519 1294 q 732 1303 660 1303 q 805 1281 779 1303 q 831 1204 831 1258 q 826 1155 831 1181 q 811 1104 822 1129 q 760 1119 794 1115 q 706 1124 726 1124 q 590 1115 651 1124 q 470 1099 529 1107 q 358 1090 411 1090 z "},"Ę":{"ha":860,"x_min":83,"x_max":888,"o":"m 253 -36 q 122 17 160 -36 q 83 179 83 71 q 106 388 83 249 q 171 758 129 528 l 97 907 q 236 978 163 949 q 383 1008 310 1008 q 453 986 431 1008 q 485 931 476 964 q 599 942 533 932 q 736 967 664 951 q 876 1001 808 982 q 885 953 883 975 q 888 911 888 931 q 851 782 888 832 q 755 708 815 732 q 622 685 694 685 q 467 718 544 685 q 449 619 458 671 q 428 514 439 567 q 472 507 450 510 q 515 504 493 504 q 578 519 543 510 q 640 536 614 528 q 647 499 646 518 q 647 469 647 481 q 602 372 647 403 q 496 342 557 342 q 446 345 469 342 q 399 354 422 349 q 388 275 392 313 q 383 189 383 238 l 608 189 q 821 243 714 204 q 828 211 826 228 q 829 175 829 194 q 810 78 829 126 q 750 -3 790 29 q 649 -35 710 -35 q 583 -29 617 -35 q 514 -17 550 -24 q 458 -6 488 -11 q 392 4 428 0 q 253 -36 325 -36 m 604 -396 q 449 -347 497 -396 q 401 -233 401 -299 q 440 -118 401 -174 q 544 -23 479 -62 q 689 31 610 17 l 761 31 l 761 8 q 621 -75 664 -25 q 578 -186 578 -125 q 599 -240 578 -221 q 651 -258 621 -258 q 710 -239 685 -258 q 749 -190 735 -219 q 763 -132 763 -161 q 757 -97 763 -112 q 843 -144 817 -112 q 869 -212 869 -175 q 836 -298 869 -256 q 744 -368 803 -340 q 604 -396 685 -396 z "},"F":{"ha":818,"x_min":83,"x_max":874,"o":"m 253 -36 q 122 17 160 -36 q 83 179 83 71 q 106 388 83 249 q 171 758 129 528 l 97 907 q 236 978 163 949 q 383 1008 310 1008 q 453 986 431 1008 q 485 931 476 964 q 657 953 554 933 q 863 1001 760 972 q 874 896 874 939 q 842 792 874 835 q 756 727 810 749 q 638 706 703 706 q 555 717 594 706 q 472 749 515 728 q 451 637 464 697 q 428 515 439 576 q 472 507 450 510 q 517 504 494 504 q 580 519 544 510 q 642 536 615 528 q 648 499 647 518 q 649 469 649 481 q 603 372 649 403 q 497 342 558 342 q 446 345 469 342 q 399 354 422 349 q 383 228 383 267 q 394 108 383 157 q 425 26 404 60 q 253 -36 342 -36 z "},"G":{"ha":1003,"x_min":42,"x_max":975,"o":"m 776 -231 q 651 -171 685 -231 q 618 -12 618 -111 q 544 -28 583 -22 q 463 -35 506 -35 q 248 15 343 -35 q 97 167 153 64 q 42 426 42 269 q 68 583 42 503 q 145 740 94 664 q 272 876 196 815 q 447 972 347 936 q 669 1007 547 1007 q 805 986 744 1007 q 900 924 865 965 q 935 822 935 883 q 908 722 935 763 q 837 662 881 682 q 742 642 793 642 q 622 672 681 642 q 528 763 564 703 q 437 683 479 739 q 369 551 394 626 q 344 396 344 476 q 392 224 344 279 q 503 169 439 169 q 594 194 547 169 q 678 267 640 219 q 642 340 661 303 q 607 413 624 376 q 737 482 667 453 q 875 511 807 511 q 955 479 935 511 q 975 399 975 447 q 963 317 975 368 q 937 203 951 265 q 910 76 922 142 q 899 -47 899 11 q 908 -119 899 -86 q 936 -174 918 -153 q 855 -216 897 -201 q 776 -231 813 -231 z "},"Ğ":{"ha":1003,"x_min":42,"x_max":975,"o":"m 776 -231 q 651 -171 685 -231 q 618 -12 618 -111 q 544 -28 583 -22 q 463 -35 506 -35 q 248 15 343 -35 q 97 167 153 64 q 42 426 42 269 q 68 583 42 503 q 145 740 94 664 q 272 876 196 815 q 447 972 347 936 q 669 1007 547 1007 q 805 986 744 1007 q 900 924 865 965 q 935 822 935 883 q 908 722 935 763 q 837 662 881 682 q 742 642 793 642 q 622 672 681 642 q 528 763 564 703 q 437 683 479 739 q 369 551 394 626 q 344 396 344 476 q 392 224 344 279 q 503 169 439 169 q 594 194 547 169 q 678 267 640 219 q 642 340 661 303 q 607 413 624 376 q 737 482 667 453 q 875 511 807 511 q 955 479 935 511 q 975 399 975 447 q 963 317 975 368 q 937 203 951 265 q 910 76 922 142 q 899 -47 899 11 q 908 -119 899 -86 q 936 -174 918 -153 q 855 -216 897 -201 q 776 -231 813 -231 m 517 1058 q 381 1098 433 1058 q 328 1226 328 1138 q 331 1276 328 1251 q 342 1331 333 1301 q 440 1263 385 1281 q 567 1244 496 1244 q 706 1275 636 1244 q 826 1358 775 1306 q 831 1324 829 1340 q 833 1292 833 1307 q 804 1185 833 1229 q 728 1113 775 1142 q 625 1072 681 1085 q 517 1058 569 1058 z "},"Ĝ":{"ha":1003,"x_min":42,"x_max":975,"o":"m 776 -231 q 651 -171 685 -231 q 618 -12 618 -111 q 544 -28 583 -22 q 463 -35 506 -35 q 248 15 343 -35 q 97 167 153 64 q 42 426 42 269 q 68 583 42 503 q 145 740 94 664 q 272 876 196 815 q 447 972 347 936 q 669 1007 547 1007 q 805 986 744 1007 q 900 924 865 965 q 935 822 935 883 q 908 722 935 763 q 837 662 881 682 q 742 642 793 642 q 622 672 681 642 q 528 763 564 703 q 437 683 479 739 q 369 551 394 626 q 344 396 344 476 q 392 224 344 279 q 503 169 439 169 q 594 194 547 169 q 678 267 640 219 q 642 340 661 303 q 607 413 624 376 q 737 482 667 453 q 875 511 807 511 q 955 479 935 511 q 975 399 975 447 q 963 317 975 368 q 937 203 951 265 q 910 76 922 142 q 899 -47 899 11 q 908 -119 899 -86 q 936 -174 918 -153 q 855 -216 897 -201 q 776 -231 813 -231 m 371 1033 q 310 1041 328 1033 q 292 1060 292 1049 q 311 1114 292 1081 q 359 1185 331 1147 q 417 1256 388 1222 q 464 1310 446 1289 q 518 1327 481 1319 q 604 1340 556 1335 q 700 1344 653 1344 q 814 1333 765 1344 q 863 1293 863 1321 q 856 1206 863 1244 q 849 1122 849 1168 q 854 1079 849 1099 q 868 1044 860 1060 q 820 1036 844 1039 q 769 1033 796 1033 q 662 1065 688 1033 q 636 1147 636 1097 q 640 1201 636 1172 q 646 1258 643 1229 l 610 1258 q 550 1157 574 1214 q 526 1050 526 1100 q 444 1037 483 1040 q 371 1033 406 1033 z "},"Ģ":{"ha":1003,"x_min":42,"x_max":975,"o":"m 776 -231 q 651 -171 685 -231 q 618 -12 618 -111 q 544 -28 583 -22 q 463 -35 506 -35 q 248 15 343 -35 q 97 167 153 64 q 42 426 42 269 q 68 583 42 503 q 145 740 94 664 q 272 876 196 815 q 447 972 347 936 q 669 1007 547 1007 q 805 986 744 1007 q 900 924 865 965 q 935 822 935 883 q 908 722 935 763 q 837 662 881 682 q 742 642 793 642 q 622 672 681 642 q 528 763 564 703 q 437 683 479 739 q 369 551 394 626 q 344 396 344 476 q 392 224 344 279 q 503 169 439 169 q 594 194 547 169 q 678 267 640 219 q 642 340 661 303 q 607 413 624 376 q 737 482 667 453 q 875 511 807 511 q 955 479 935 511 q 975 399 975 447 q 963 317 975 368 q 937 203 951 265 q 910 76 922 142 q 899 -47 899 11 q 908 -119 899 -86 q 936 -174 918 -153 q 855 -216 897 -201 q 776 -231 813 -231 m 267 -589 l 249 -533 q 319 -481 290 -514 q 365 -412 349 -449 q 381 -346 381 -376 l 293 -233 q 318 -159 296 -193 q 376 -104 340 -125 q 454 -83 413 -83 q 553 -127 518 -83 q 588 -228 588 -171 q 549 -387 588 -312 q 438 -515 510 -462 q 267 -589 365 -568 z "},"Ġ":{"ha":1003,"x_min":42,"x_max":975,"o":"m 776 -231 q 651 -171 685 -231 q 618 -12 618 -111 q 544 -28 583 -22 q 463 -35 506 -35 q 248 15 343 -35 q 97 167 153 64 q 42 426 42 269 q 68 583 42 503 q 145 740 94 664 q 272 876 196 815 q 447 972 347 936 q 669 1007 547 1007 q 805 986 744 1007 q 900 924 865 965 q 935 822 935 883 q 908 722 935 763 q 837 662 881 682 q 742 642 793 642 q 622 672 681 642 q 528 763 564 703 q 437 683 479 739 q 369 551 394 626 q 344 396 344 476 q 392 224 344 279 q 503 169 439 169 q 594 194 547 169 q 678 267 640 219 q 642 340 661 303 q 607 413 624 376 q 737 482 667 453 q 875 511 807 511 q 955 479 935 511 q 975 399 975 447 q 963 317 975 368 q 937 203 951 265 q 910 76 922 142 q 899 -47 899 11 q 908 -119 899 -86 q 936 -174 918 -153 q 855 -216 897 -201 q 776 -231 813 -231 m 554 1039 q 438 1076 481 1039 q 396 1171 396 1113 q 456 1312 396 1258 q 607 1365 517 1365 q 723 1328 681 1365 q 765 1232 765 1292 q 705 1092 765 1146 q 554 1039 644 1039 z "},"H":{"ha":1144,"x_min":83,"x_max":1103,"o":"m 253 -36 q 122 17 160 -36 q 83 179 83 71 q 106 388 83 249 q 171 758 129 528 l 97 907 q 236 978 163 949 q 383 1008 310 1008 q 469 969 449 1008 q 490 878 490 931 q 481 801 490 854 q 459 678 472 747 q 432 536 446 608 l 743 536 q 762 640 751 585 q 783 758 772 696 l 710 907 q 849 978 775 949 q 996 1008 922 1008 q 1082 969 1061 1008 q 1103 878 1103 931 q 1095 806 1103 856 q 1075 692 1088 757 q 1049 558 1063 628 q 1024 422 1036 488 q 1003 305 1011 356 q 996 228 996 254 q 1006 108 996 157 q 1038 26 1017 60 q 865 -36 954 -36 q 734 17 772 -36 q 696 179 696 71 q 701 259 696 211 q 715 371 706 307 l 401 371 q 388 285 393 324 q 383 228 383 247 q 394 108 383 157 q 425 26 404 60 q 253 -36 342 -36 z "},"Ħ":{"ha":1144,"x_min":4,"x_max":1217,"o":"m 253 -36 q 122 17 160 -36 q 83 179 83 71 q 98 335 83 235 q 140 592 113 436 l 139 592 q 42 606 79 592 q 4 661 4 621 q 28 715 4 685 q 92 771 51 744 q 169 761 128 764 l 97 907 q 236 978 163 949 q 383 1008 310 1008 q 469 969 449 1008 q 490 878 490 931 q 486 831 490 861 q 475 760 482 800 q 619 781 549 768 q 760 806 690 793 l 710 907 q 849 978 775 949 q 996 1008 922 1008 q 1082 969 1061 1008 q 1103 878 1103 931 q 1097 824 1103 861 q 1184 799 1151 817 q 1217 750 1217 781 q 1132 649 1217 700 q 1069 661 1101 656 q 1044 533 1057 599 q 1021 406 1032 467 q 1003 299 1010 346 q 996 228 996 251 q 1006 108 996 157 q 1038 26 1017 60 q 865 -36 954 -36 q 734 17 772 -36 q 696 179 696 71 q 701 259 696 211 q 715 371 706 307 l 401 371 q 388 285 393 324 q 383 228 383 247 q 394 108 383 157 q 425 26 404 60 q 253 -36 342 -36 m 432 536 l 743 536 q 755 601 749 567 q 767 671 761 635 q 606 650 685 664 q 449 624 528 636 q 440 580 444 601 q 432 536 436 558 z "},"Ĥ":{"ha":1144,"x_min":83,"x_max":1103,"o":"m 253 -36 q 122 17 160 -36 q 83 179 83 71 q 106 388 83 249 q 171 758 129 528 l 97 907 q 236 978 163 949 q 383 1008 310 1008 q 469 969 449 1008 q 490 878 490 931 q 481 801 490 854 q 459 678 472 747 q 432 536 446 608 l 743 536 q 762 640 751 585 q 783 758 772 696 l 710 907 q 849 978 775 949 q 996 1008 922 1008 q 1082 969 1061 1008 q 1103 878 1103 931 q 1095 806 1103 856 q 1075 692 1088 757 q 1049 558 1063 628 q 1024 422 1036 488 q 1003 305 1011 356 q 996 228 996 254 q 1006 108 996 157 q 1038 26 1017 60 q 865 -36 954 -36 q 734 17 772 -36 q 696 179 696 71 q 701 259 696 211 q 715 371 706 307 l 401 371 q 388 285 393 324 q 383 228 383 247 q 394 108 383 157 q 425 26 404 60 q 253 -36 342 -36 m 432 1033 q 371 1041 389 1033 q 353 1060 353 1049 q 372 1114 353 1081 q 420 1185 392 1147 q 478 1256 449 1222 q 525 1310 507 1289 q 579 1327 542 1319 q 665 1340 617 1335 q 761 1344 714 1344 q 875 1333 826 1344 q 924 1293 924 1321 q 917 1206 924 1244 q 910 1122 910 1168 q 915 1079 910 1099 q 929 1044 921 1060 q 881 1036 906 1039 q 831 1033 857 1033 q 723 1065 749 1033 q 697 1147 697 1097 q 701 1201 697 1172 q 707 1258 704 1229 l 671 1258 q 611 1157 635 1214 q 588 1050 588 1100 q 506 1037 544 1040 q 432 1033 467 1033 z "},"I":{"ha":539,"x_min":90,"x_max":497,"o":"m 260 -36 q 128 17 167 -36 q 90 179 90 71 q 113 388 90 249 q 178 758 136 528 l 104 907 q 243 978 169 949 q 390 1008 317 1008 q 476 969 456 1008 q 497 878 497 931 q 490 806 497 856 q 469 692 482 757 q 444 558 457 628 q 418 422 431 488 q 398 305 406 356 q 390 228 390 254 q 401 108 390 157 q 432 26 411 60 q 260 -36 349 -36 z "},"Ĳ":{"ha":1307,"x_min":90,"x_max":1307,"o":"m 260 -36 q 128 17 167 -36 q 90 179 90 71 q 113 388 90 249 q 178 758 136 528 l 104 907 q 243 978 169 949 q 390 1008 317 1008 q 476 969 456 1008 q 497 878 497 931 q 490 806 497 856 q 469 692 482 757 q 444 558 457 628 q 418 422 431 488 q 398 305 406 356 q 390 228 390 254 q 401 108 390 157 q 432 26 411 60 q 260 -36 349 -36 m 807 -62 q 668 -37 729 -62 q 573 32 607 -12 q 539 132 539 76 q 586 251 539 207 q 693 294 633 294 q 804 253 750 294 q 888 122 858 213 l 922 150 q 894 242 904 203 q 885 317 885 281 q 890 351 885 319 q 904 435 894 383 q 927 551 914 488 q 958 679 940 615 q 752 696 836 679 q 626 757 668 713 q 583 883 583 801 q 588 937 583 907 q 597 1001 592 967 q 713 963 650 979 q 837 935 775 946 q 950 918 899 924 q 1032 913 1001 913 q 1097 983 1060 961 q 1178 1006 1135 1006 q 1274 966 1242 1006 q 1307 874 1307 926 q 1294 809 1307 838 q 1261 760 1281 781 l 1213 361 q 1158 168 1199 249 q 1058 37 1117 88 q 933 -38 999 -14 q 807 -62 868 -62 z "},"Í":{"ha":539,"x_min":90,"x_max":572,"o":"m 260 -36 q 128 17 167 -36 q 90 179 90 71 q 113 388 90 249 q 178 758 136 528 l 104 907 q 243 978 169 949 q 390 1008 317 1008 q 476 969 456 1008 q 497 878 497 931 q 490 806 497 856 q 469 692 482 757 q 444 558 457 628 q 418 422 431 488 q 398 305 406 356 q 390 228 390 254 q 401 108 390 157 q 432 26 411 60 q 260 -36 349 -36 m 183 1046 q 133 1069 156 1046 q 106 1151 110 1093 q 210 1199 160 1164 q 309 1274 261 1235 q 403 1341 357 1313 q 494 1369 449 1369 q 549 1341 526 1369 q 572 1238 572 1313 q 569 1188 572 1214 q 558 1136 565 1161 q 542 1138 551 1138 q 526 1139 533 1139 q 436 1125 479 1139 q 352 1092 393 1111 q 269 1060 311 1074 q 183 1046 228 1046 z "},"Ĭ":{"ha":539,"x_min":86,"x_max":592,"o":"m 260 -36 q 128 17 167 -36 q 90 179 90 71 q 113 388 90 249 q 178 758 136 528 l 104 907 q 243 978 169 949 q 390 1008 317 1008 q 476 969 456 1008 q 497 878 497 931 q 490 806 497 856 q 469 692 482 757 q 444 558 457 628 q 418 422 431 488 q 398 305 406 356 q 390 228 390 254 q 401 108 390 157 q 432 26 411 60 q 260 -36 349 -36 m 275 1058 q 139 1098 192 1058 q 86 1226 86 1138 q 89 1276 86 1251 q 100 1331 92 1301 q 199 1263 143 1281 q 325 1244 254 1244 q 464 1275 394 1244 q 585 1358 533 1306 q 590 1324 588 1340 q 592 1292 592 1307 q 563 1185 592 1229 q 486 1113 533 1142 q 383 1072 439 1085 q 275 1058 328 1058 z "},"Î":{"ha":539,"x_min":50,"x_max":626,"o":"m 260 -36 q 128 17 167 -36 q 90 179 90 71 q 113 388 90 249 q 178 758 136 528 l 104 907 q 243 978 169 949 q 390 1008 317 1008 q 476 969 456 1008 q 497 878 497 931 q 490 806 497 856 q 469 692 482 757 q 444 558 457 628 q 418 422 431 488 q 398 305 406 356 q 390 228 390 254 q 401 108 390 157 q 432 26 411 60 q 260 -36 349 -36 m 129 1033 q 68 1041 86 1033 q 50 1060 50 1049 q 69 1114 50 1081 q 117 1185 89 1147 q 175 1256 146 1222 q 222 1310 204 1289 q 276 1327 239 1319 q 363 1340 314 1335 q 458 1344 411 1344 q 572 1333 524 1344 q 621 1293 621 1321 q 614 1206 621 1244 q 607 1122 607 1168 q 613 1079 607 1099 q 626 1044 618 1060 q 578 1036 603 1039 q 528 1033 554 1033 q 420 1065 446 1033 q 394 1147 394 1097 q 398 1201 394 1172 q 404 1258 401 1229 l 368 1258 q 308 1157 332 1214 q 285 1050 285 1100 q 203 1037 242 1040 q 129 1033 164 1033 z "},"Ï":{"ha":539,"x_min":-22,"x_max":700,"o":"m 260 -36 q 128 17 167 -36 q 90 179 90 71 q 113 388 90 249 q 178 758 136 528 l 104 907 q 243 978 169 949 q 390 1008 317 1008 q 476 969 456 1008 q 497 878 497 931 q 490 806 497 856 q 469 692 482 757 q 444 558 457 628 q 418 422 431 488 q 398 305 406 356 q 390 228 390 254 q 401 108 390 157 q 432 26 411 60 q 260 -36 349 -36 m 526 1064 q 433 1092 471 1064 q 396 1168 396 1119 q 424 1253 396 1219 q 492 1302 451 1286 q 569 1318 533 1318 q 663 1290 626 1318 q 700 1213 700 1261 q 676 1134 700 1168 q 612 1082 651 1100 q 526 1064 572 1064 m 108 1064 q 15 1092 53 1064 q -22 1168 -22 1119 q 6 1253 -22 1219 q 74 1302 33 1286 q 151 1318 115 1318 q 245 1290 208 1318 q 282 1213 282 1261 q 258 1134 282 1168 q 194 1082 233 1100 q 108 1064 154 1064 z "},"İ":{"ha":539,"x_min":90,"x_max":524,"o":"m 260 -36 q 128 17 167 -36 q 90 179 90 71 q 113 388 90 249 q 178 758 136 528 l 104 907 q 243 978 169 949 q 390 1008 317 1008 q 476 969 456 1008 q 497 878 497 931 q 490 806 497 856 q 469 692 482 757 q 444 558 457 628 q 418 422 431 488 q 398 305 406 356 q 390 228 390 254 q 401 108 390 157 q 432 26 411 60 q 260 -36 349 -36 m 313 1039 q 197 1076 239 1039 q 154 1171 154 1113 q 215 1312 154 1258 q 365 1365 275 1365 q 481 1328 439 1365 q 524 1232 524 1292 q 463 1092 524 1146 q 313 1039 403 1039 z "},"Ì":{"ha":539,"x_min":90,"x_max":572,"o":"m 260 -36 q 128 17 167 -36 q 90 179 90 71 q 113 388 90 249 q 178 758 136 528 l 104 907 q 243 978 169 949 q 390 1008 317 1008 q 476 969 456 1008 q 497 878 497 931 q 490 806 497 856 q 469 692 482 757 q 444 558 457 628 q 418 422 431 488 q 398 305 406 356 q 390 228 390 254 q 401 108 390 157 q 432 26 411 60 q 260 -36 349 -36 m 494 1046 q 408 1060 450 1046 q 326 1092 367 1074 q 242 1125 285 1111 q 151 1139 199 1139 q 135 1138 144 1139 q 119 1136 126 1138 q 109 1188 113 1161 q 106 1238 106 1214 q 129 1341 106 1313 q 183 1369 153 1369 q 275 1341 229 1369 q 369 1274 321 1313 q 467 1199 417 1235 q 572 1151 518 1164 q 545 1069 568 1093 q 494 1046 522 1046 z "},"Ī":{"ha":539,"x_min":78,"x_max":599,"o":"m 260 -36 q 128 17 167 -36 q 90 179 90 71 q 113 388 90 249 q 178 758 136 528 l 104 907 q 243 978 169 949 q 390 1008 317 1008 q 476 969 456 1008 q 497 878 497 931 q 490 806 497 856 q 469 692 482 757 q 444 558 457 628 q 418 422 431 488 q 398 305 406 356 q 390 228 390 254 q 401 108 390 157 q 432 26 411 60 q 260 -36 349 -36 m 126 1090 q 92 1106 107 1090 q 78 1164 78 1121 q 89 1241 78 1207 q 118 1311 100 1275 q 172 1298 139 1301 q 221 1294 206 1294 q 358 1299 288 1294 q 500 1303 428 1303 q 573 1281 547 1303 q 599 1204 599 1258 q 594 1155 599 1181 q 579 1104 590 1129 q 528 1119 563 1115 q 474 1124 494 1124 q 358 1115 419 1124 q 238 1099 297 1107 q 126 1090 179 1090 z "},"Į":{"ha":539,"x_min":29,"x_max":497,"o":"m 260 -36 q 128 17 167 -36 q 90 179 90 71 q 113 388 90 249 q 178 758 136 528 l 104 907 q 243 978 169 949 q 390 1008 317 1008 q 476 969 456 1008 q 497 878 497 931 q 490 806 497 856 q 469 692 482 757 q 444 558 457 628 q 418 422 431 488 q 398 305 406 356 q 390 228 390 254 q 401 108 390 157 q 432 26 411 60 q 260 -36 349 -36 m 232 -396 q 77 -347 125 -396 q 29 -233 29 -299 q 68 -118 29 -174 q 172 -23 107 -62 q 317 31 238 17 l 389 31 l 389 8 q 249 -75 292 -25 q 206 -186 206 -125 q 227 -240 206 -221 q 279 -258 249 -258 q 338 -239 313 -258 q 376 -190 363 -219 q 390 -132 390 -161 q 385 -97 390 -112 q 471 -144 444 -112 q 497 -212 497 -175 q 464 -298 497 -256 q 372 -368 431 -340 q 232 -396 313 -396 z "},"Ĩ":{"ha":539,"x_min":56,"x_max":622,"o":"m 260 -36 q 128 17 167 -36 q 90 179 90 71 q 113 388 90 249 q 178 758 136 528 l 104 907 q 243 978 169 949 q 390 1008 317 1008 q 476 969 456 1008 q 497 878 497 931 q 490 806 497 856 q 469 692 482 757 q 444 558 457 628 q 418 422 431 488 q 398 305 406 356 q 390 228 390 254 q 401 108 390 157 q 432 26 411 60 q 260 -36 349 -36 m 144 1064 q 81 1083 106 1064 q 56 1151 56 1101 q 93 1297 56 1215 q 151 1276 122 1283 q 208 1269 181 1269 q 322 1290 268 1269 q 427 1331 375 1311 q 533 1351 479 1351 q 597 1333 572 1351 q 622 1264 622 1314 q 585 1118 622 1200 q 526 1140 556 1133 q 469 1146 497 1146 q 357 1126 411 1146 q 251 1085 303 1106 q 144 1064 199 1064 z "},"J":{"ha":768,"x_min":0,"x_max":768,"o":"m 268 -62 q 129 -37 190 -62 q 34 32 68 -12 q 0 132 0 76 q 47 251 0 207 q 154 294 94 294 q 265 253 211 294 q 349 122 319 213 l 383 150 q 356 242 365 203 q 346 317 346 281 q 351 351 346 319 q 365 435 356 383 q 388 551 375 488 q 419 679 401 615 q 213 696 297 679 q 87 757 129 713 q 44 883 44 801 q 49 937 44 907 q 58 1001 53 967 q 174 963 111 979 q 298 935 236 946 q 411 918 360 924 q 493 913 463 913 q 558 983 521 961 q 639 1006 596 1006 q 735 966 703 1006 q 768 874 768 926 q 755 809 768 838 q 722 760 742 781 l 674 361 q 619 168 660 249 q 519 37 578 88 q 394 -38 460 -14 q 268 -62 329 -62 z "},"Ĵ":{"ha":768,"x_min":0,"x_max":768,"o":"m 268 -62 q 129 -37 190 -62 q 34 32 68 -12 q 0 132 0 76 q 47 251 0 207 q 154 294 94 294 q 265 253 211 294 q 349 122 319 213 l 383 150 q 356 242 365 203 q 346 317 346 281 q 351 351 346 319 q 365 435 356 383 q 388 551 375 488 q 419 679 401 615 q 213 696 297 679 q 87 757 129 713 q 44 883 44 801 q 49 937 44 907 q 58 1001 53 967 q 174 963 111 979 q 298 935 236 946 q 411 918 360 924 q 493 913 463 913 q 558 983 521 961 q 639 1006 596 1006 q 735 966 703 1006 q 768 874 768 926 q 755 809 768 838 q 722 760 742 781 l 674 361 q 619 168 660 249 q 519 37 578 88 q 394 -38 460 -14 q 268 -62 329 -62 m 231 1033 q 169 1041 188 1033 q 151 1060 151 1049 q 171 1114 151 1081 q 219 1185 190 1147 q 276 1256 247 1222 q 324 1310 306 1289 q 378 1327 340 1319 q 464 1340 415 1335 q 560 1344 513 1344 q 674 1333 625 1344 q 722 1293 722 1321 q 715 1206 722 1244 q 708 1122 708 1168 q 714 1079 708 1099 q 728 1044 719 1060 q 680 1036 704 1039 q 629 1033 656 1033 q 522 1065 547 1033 q 496 1147 496 1097 q 499 1201 496 1172 q 506 1258 503 1229 l 469 1258 q 410 1157 433 1214 q 386 1050 386 1100 q 304 1037 343 1040 q 231 1033 265 1033 z "},"K":{"ha":1000,"x_min":83,"x_max":1022,"o":"m 253 -36 q 122 17 160 -36 q 83 179 83 71 q 106 388 83 249 q 171 758 129 528 l 97 907 q 236 978 163 949 q 383 1008 310 1008 q 469 969 449 1008 q 490 878 490 931 q 481 801 490 854 q 459 678 472 747 q 432 536 446 608 l 497 590 q 640 733 581 660 q 700 879 700 807 q 689 944 700 915 q 883 1007 792 1007 q 988 969 957 1007 q 1019 868 1019 931 q 956 719 1019 800 q 743 553 893 639 q 797 399 767 478 q 863 250 826 321 q 939 124 899 179 q 1022 42 979 69 q 967 3 1003 21 q 894 -24 932 -14 q 824 -35 856 -35 q 718 -15 764 -35 q 637 53 672 4 q 569 193 601 103 l 489 419 l 403 374 q 389 287 394 325 q 383 228 383 249 q 394 108 383 157 q 425 26 404 60 q 253 -36 342 -36 z "},"Ķ":{"ha":1000,"x_min":83,"x_max":1022,"o":"m 253 -36 q 122 17 160 -36 q 83 179 83 71 q 106 388 83 249 q 171 758 129 528 l 97 907 q 236 978 163 949 q 383 1008 310 1008 q 469 969 449 1008 q 490 878 490 931 q 481 801 490 854 q 459 678 472 747 q 432 536 446 608 l 497 590 q 640 733 581 660 q 700 879 700 807 q 689 944 700 915 q 883 1007 792 1007 q 988 969 957 1007 q 1019 868 1019 931 q 956 719 1019 800 q 743 553 893 639 q 797 399 767 478 q 863 250 826 321 q 939 124 899 179 q 1022 42 979 69 q 967 3 1003 21 q 894 -24 932 -14 q 824 -35 856 -35 q 718 -15 764 -35 q 637 53 672 4 q 569 193 601 103 l 489 419 l 403 374 q 389 287 394 325 q 383 228 383 249 q 394 108 383 157 q 425 26 404 60 q 253 -36 342 -36 m 349 -589 l 331 -533 q 401 -481 372 -514 q 447 -412 431 -449 q 463 -346 463 -376 l 375 -233 q 400 -159 378 -193 q 458 -104 422 -125 q 536 -83 494 -83 q 635 -127 600 -83 q 669 -228 669 -171 q 631 -387 669 -312 q 519 -515 592 -462 q 349 -589 447 -568 z "},"L":{"ha":763,"x_min":83,"x_max":754,"o":"m 253 -36 q 122 17 160 -36 q 83 179 83 71 q 106 388 83 249 q 171 758 129 528 l 97 907 q 236 978 163 949 q 383 1008 310 1008 q 469 969 449 1008 q 490 878 490 931 q 483 806 490 856 q 463 691 475 757 q 437 553 450 625 q 411 410 424 481 q 391 283 399 340 q 383 189 383 225 l 533 189 q 746 243 639 204 q 753 211 751 228 q 754 175 754 194 q 735 78 754 126 q 675 -3 715 29 q 574 -35 635 -35 q 469 -24 514 -35 q 376 -4 425 -14 q 315 -28 346 -21 q 253 -36 285 -36 z "},"Ĺ":{"ha":763,"x_min":83,"x_max":754,"o":"m 253 -36 q 122 17 160 -36 q 83 179 83 71 q 106 388 83 249 q 171 758 129 528 l 97 907 q 236 978 163 949 q 383 1008 310 1008 q 469 969 449 1008 q 490 878 490 931 q 483 806 490 856 q 463 691 475 757 q 437 553 450 625 q 411 410 424 481 q 391 283 399 340 q 383 189 383 225 l 533 189 q 746 243 639 204 q 753 211 751 228 q 754 175 754 194 q 735 78 754 126 q 675 -3 715 29 q 574 -35 635 -35 q 469 -24 514 -35 q 376 -4 425 -14 q 315 -28 346 -21 q 253 -36 285 -36 m 183 1046 q 133 1069 156 1046 q 106 1151 110 1093 q 210 1199 160 1164 q 309 1274 261 1235 q 403 1341 357 1313 q 494 1369 449 1369 q 549 1341 526 1369 q 572 1238 572 1313 q 569 1188 572 1214 q 558 1136 565 1161 q 542 1138 551 1138 q 526 1139 533 1139 q 436 1125 479 1139 q 352 1092 393 1111 q 269 1060 311 1074 q 183 1046 228 1046 z "},"Ľ":{"ha":763,"x_min":83,"x_max":940,"o":"m 253 -36 q 122 17 160 -36 q 83 179 83 71 q 106 388 83 249 q 171 758 129 528 l 97 907 q 236 978 163 949 q 383 1008 310 1008 q 469 969 449 1008 q 490 878 490 931 q 483 806 490 856 q 463 691 475 757 q 437 553 450 625 q 411 410 424 481 q 391 283 399 340 q 383 189 383 225 l 533 189 q 746 243 639 204 q 753 211 751 228 q 754 175 754 194 q 735 78 754 126 q 675 -3 715 29 q 574 -35 635 -35 q 469 -24 514 -35 q 376 -4 425 -14 q 315 -28 346 -21 q 253 -36 285 -36 m 733 796 l 646 908 q 671 983 649 949 q 729 1038 693 1017 q 807 1058 765 1058 q 906 1015 871 1058 q 940 914 940 971 q 901 754 940 829 q 790 626 863 679 q 619 553 718 574 l 601 608 q 672 660 643 628 q 717 729 701 693 q 733 796 733 765 z "},"Ļ":{"ha":763,"x_min":83,"x_max":754,"o":"m 253 -36 q 122 17 160 -36 q 83 179 83 71 q 106 388 83 249 q 171 758 129 528 l 97 907 q 236 978 163 949 q 383 1008 310 1008 q 469 969 449 1008 q 490 878 490 931 q 483 806 490 856 q 463 691 475 757 q 437 553 450 625 q 411 410 424 481 q 391 283 399 340 q 383 189 383 225 l 533 189 q 746 243 639 204 q 753 211 751 228 q 754 175 754 194 q 735 78 754 126 q 675 -3 715 29 q 574 -35 635 -35 q 469 -24 514 -35 q 376 -4 425 -14 q 315 -28 346 -21 q 253 -36 285 -36 m 231 -589 l 213 -533 q 283 -481 254 -514 q 328 -412 313 -449 q 344 -346 344 -376 l 257 -233 q 282 -159 260 -193 q 340 -104 304 -125 q 418 -83 376 -83 q 517 -127 482 -83 q 551 -228 551 -171 q 513 -387 551 -312 q 401 -515 474 -462 q 231 -589 329 -568 z "},"Ŀ":{"ha":763,"x_min":83,"x_max":858,"o":"m 253 -36 q 122 17 160 -36 q 83 179 83 71 q 106 388 83 249 q 171 758 129 528 l 97 907 q 236 978 163 949 q 383 1008 310 1008 q 469 969 449 1008 q 490 878 490 931 q 483 806 490 856 q 463 691 475 757 q 437 553 450 625 q 411 410 424 481 q 391 283 399 340 q 383 189 383 225 l 533 189 q 746 243 639 204 q 753 211 751 228 q 754 175 754 194 q 735 78 754 126 q 675 -3 715 29 q 574 -35 635 -35 q 469 -24 514 -35 q 376 -4 425 -14 q 315 -28 346 -21 q 253 -36 285 -36 m 683 389 q 577 431 619 389 q 535 535 535 474 q 558 622 535 582 q 622 686 582 661 q 710 711 661 711 q 816 669 774 711 q 858 565 858 626 q 835 479 858 519 q 772 414 811 439 q 683 389 732 389 z "},"Ł":{"ha":763,"x_min":-53,"x_max":754,"o":"m 253 -36 q 122 17 160 -36 q 83 179 83 71 q 89 264 83 214 q 106 382 94 314 q 60 378 81 378 q -19 397 14 378 q -53 467 -53 415 q -38 531 -53 494 q 4 599 -24 567 q 48 588 25 590 q 93 585 71 585 q 140 586 117 585 q 155 669 147 626 q 171 758 163 711 l 97 907 q 236 978 163 949 q 383 1008 310 1008 q 469 969 449 1008 q 490 878 490 931 q 481 796 490 853 q 458 667 472 739 q 507 678 483 674 q 551 682 531 682 q 631 664 597 682 q 664 593 664 646 q 649 529 664 565 q 607 461 635 493 q 564 472 586 469 q 518 475 542 475 q 469 473 493 475 q 421 467 444 471 q 394 306 406 381 q 383 189 383 232 l 533 189 q 746 243 639 204 q 753 211 751 228 q 754 175 754 194 q 735 78 754 126 q 675 -3 715 29 q 574 -35 635 -35 q 469 -24 514 -35 q 376 -4 425 -14 q 315 -28 346 -21 q 253 -36 285 -36 z "},"M":{"ha":1439,"x_min":83,"x_max":1393,"o":"m 253 -36 q 122 17 160 -36 q 83 179 83 71 q 106 388 83 249 q 171 758 129 528 l 97 907 q 236 978 163 949 q 383 1008 310 1008 q 501 988 450 1008 q 589 912 551 968 q 652 748 626 856 q 694 465 678 640 l 711 465 q 794 657 744 561 q 914 832 844 753 q 1076 959 983 911 q 1286 1007 1168 1007 q 1372 969 1351 1007 q 1393 878 1393 931 q 1385 806 1393 856 q 1365 692 1378 757 q 1340 558 1353 628 q 1314 422 1326 488 q 1294 305 1301 356 q 1286 228 1286 254 q 1297 108 1286 157 q 1328 26 1307 60 q 1156 -36 1244 -36 q 1024 17 1063 -36 q 986 179 986 71 q 1003 350 986 239 q 1051 636 1021 461 l 1029 636 q 925 459 969 557 q 855 265 881 361 q 821 93 829 168 q 745 45 786 61 q 664 29 704 29 q 601 55 631 29 q 547 146 572 81 q 503 330 522 211 q 474 636 485 449 l 451 636 q 418 474 433 557 q 393 325 403 392 q 383 228 383 258 q 394 108 383 157 q 425 26 404 60 q 253 -36 342 -36 z "},"N":{"ha":1208,"x_min":76,"x_max":1181,"o":"m 246 -36 q 115 17 153 -36 q 76 179 76 71 q 99 388 76 249 q 164 758 122 528 l 90 907 q 229 978 156 949 q 376 1007 303 1007 q 533 976 476 1007 q 619 890 590 946 q 662 760 647 835 q 689 597 676 685 q 726 413 701 508 q 803 218 751 317 l 836 240 q 772 418 797 317 q 746 621 746 519 q 780 810 746 722 q 882 952 814 897 q 1051 1007 950 1007 q 1119 1001 1083 1007 q 1181 981 1154 994 q 1151 816 1168 906 q 1117 635 1135 726 q 1085 461 1100 543 q 1062 319 1071 379 q 1053 233 1053 258 q 1064 115 1053 161 q 1097 36 1075 68 q 1022 -6 1057 10 q 948 -28 988 -21 q 856 -35 908 -35 q 674 17 747 -35 q 557 158 601 68 q 491 365 513 249 q 463 613 469 482 l 440 613 q 409 457 424 535 q 385 318 394 379 q 376 228 376 257 q 387 108 376 157 q 418 26 397 60 q 246 -36 335 -36 z "},"Ń":{"ha":1208,"x_min":76,"x_max":1181,"o":"m 246 -36 q 115 17 153 -36 q 76 179 76 71 q 99 388 76 249 q 164 758 122 528 l 90 907 q 229 978 156 949 q 376 1007 303 1007 q 533 976 476 1007 q 619 890 590 946 q 662 760 647 835 q 689 597 676 685 q 726 413 701 508 q 803 218 751 317 l 836 240 q 772 418 797 317 q 746 621 746 519 q 780 810 746 722 q 882 952 814 897 q 1051 1007 950 1007 q 1119 1001 1083 1007 q 1181 981 1154 994 q 1151 816 1168 906 q 1117 635 1135 726 q 1085 461 1100 543 q 1062 319 1071 379 q 1053 233 1053 258 q 1064 115 1053 161 q 1097 36 1075 68 q 1022 -6 1057 10 q 948 -28 988 -21 q 856 -35 908 -35 q 674 17 747 -35 q 557 158 601 68 q 491 365 513 249 q 463 613 469 482 l 440 613 q 409 457 424 535 q 385 318 394 379 q 376 228 376 257 q 387 108 376 157 q 418 26 397 60 q 246 -36 335 -36 m 532 1046 q 481 1069 504 1046 q 454 1151 458 1093 q 559 1199 508 1164 q 658 1274 610 1235 q 751 1341 706 1313 q 843 1369 797 1369 q 898 1341 875 1369 q 921 1238 921 1313 q 917 1188 921 1214 q 907 1136 914 1161 q 891 1138 900 1138 q 875 1139 882 1139 q 785 1125 828 1139 q 701 1092 742 1111 q 618 1060 660 1074 q 532 1046 576 1046 z "},"Ň":{"ha":1208,"x_min":76,"x_max":1181,"o":"m 246 -36 q 115 17 153 -36 q 76 179 76 71 q 99 388 76 249 q 164 758 122 528 l 90 907 q 229 978 156 949 q 376 1007 303 1007 q 533 976 476 1007 q 619 890 590 946 q 662 760 647 835 q 689 597 676 685 q 726 413 701 508 q 803 218 751 317 l 836 240 q 772 418 797 317 q 746 621 746 519 q 780 810 746 722 q 882 952 814 897 q 1051 1007 950 1007 q 1119 1001 1083 1007 q 1181 981 1154 994 q 1151 816 1168 906 q 1117 635 1135 726 q 1085 461 1100 543 q 1062 319 1071 379 q 1053 233 1053 258 q 1064 115 1053 161 q 1097 36 1075 68 q 1022 -6 1057 10 q 948 -28 988 -21 q 856 -35 908 -35 q 674 17 747 -35 q 557 158 601 68 q 491 365 513 249 q 463 613 469 482 l 440 613 q 409 457 424 535 q 385 318 394 379 q 376 228 376 257 q 387 108 376 157 q 418 26 397 60 q 246 -36 335 -36 m 682 1028 q 565 1046 614 1028 q 515 1107 515 1064 l 515 1222 q 503 1279 515 1258 q 472 1313 490 1300 q 533 1331 499 1324 q 603 1339 568 1339 q 684 1317 653 1339 q 715 1235 715 1294 q 710 1178 715 1211 q 700 1114 706 1146 l 742 1114 q 782 1180 765 1138 q 799 1265 799 1222 q 798 1289 799 1276 q 796 1314 797 1301 q 857 1332 824 1325 q 929 1339 890 1339 q 1013 1324 989 1339 q 1036 1285 1036 1308 q 1019 1231 1036 1261 q 978 1171 1003 1201 q 929 1113 954 1140 q 886 1065 904 1085 q 795 1038 851 1049 q 682 1028 739 1028 z "},"Ņ":{"ha":1208,"x_min":76,"x_max":1181,"o":"m 246 -36 q 115 17 153 -36 q 76 179 76 71 q 99 388 76 249 q 164 758 122 528 l 90 907 q 229 978 156 949 q 376 1007 303 1007 q 533 976 476 1007 q 619 890 590 946 q 662 760 647 835 q 689 597 676 685 q 726 413 701 508 q 803 218 751 317 l 836 240 q 772 418 797 317 q 746 621 746 519 q 780 810 746 722 q 882 952 814 897 q 1051 1007 950 1007 q 1119 1001 1083 1007 q 1181 981 1154 994 q 1151 816 1168 906 q 1117 635 1135 726 q 1085 461 1100 543 q 1062 319 1071 379 q 1053 233 1053 258 q 1064 115 1053 161 q 1097 36 1075 68 q 1022 -6 1057 10 q 948 -28 988 -21 q 856 -35 908 -35 q 674 17 747 -35 q 557 158 601 68 q 491 365 513 249 q 463 613 469 482 l 440 613 q 409 457 424 535 q 385 318 394 379 q 376 228 376 257 q 387 108 376 157 q 418 26 397 60 q 246 -36 335 -36 m 397 -589 l 379 -533 q 450 -481 421 -514 q 495 -412 479 -449 q 511 -346 511 -376 l 424 -233 q 449 -159 426 -193 q 507 -104 471 -125 q 585 -83 543 -83 q 683 -127 649 -83 q 718 -228 718 -171 q 679 -387 718 -312 q 568 -515 640 -462 q 397 -589 496 -568 z "},"Ñ":{"ha":1208,"x_min":76,"x_max":1181,"o":"m 246 -36 q 115 17 153 -36 q 76 179 76 71 q 99 388 76 249 q 164 758 122 528 l 90 907 q 229 978 156 949 q 376 1007 303 1007 q 533 976 476 1007 q 619 890 590 946 q 662 760 647 835 q 689 597 676 685 q 726 413 701 508 q 803 218 751 317 l 836 240 q 772 418 797 317 q 746 621 746 519 q 780 810 746 722 q 882 952 814 897 q 1051 1007 950 1007 q 1119 1001 1083 1007 q 1181 981 1154 994 q 1151 816 1168 906 q 1117 635 1135 726 q 1085 461 1100 543 q 1062 319 1071 379 q 1053 233 1053 258 q 1064 115 1053 161 q 1097 36 1075 68 q 1022 -6 1057 10 q 948 -28 988 -21 q 856 -35 908 -35 q 674 17 747 -35 q 557 158 601 68 q 491 365 513 249 q 463 613 469 482 l 440 613 q 409 457 424 535 q 385 318 394 379 q 376 228 376 257 q 387 108 376 157 q 418 26 397 60 q 246 -36 335 -36 m 493 1064 q 429 1083 454 1064 q 404 1151 404 1101 q 442 1297 404 1215 q 500 1276 471 1283 q 557 1269 529 1269 q 670 1290 617 1269 q 776 1331 724 1311 q 882 1351 828 1351 q 946 1333 921 1351 q 971 1264 971 1314 q 933 1118 971 1200 q 875 1140 904 1133 q 818 1146 846 1146 q 706 1126 760 1146 q 599 1085 651 1106 q 493 1064 547 1064 z "},"Ŋ":{"ha":1208,"x_min":76,"x_max":1201,"o":"m 628 -399 q 489 -374 550 -399 q 394 -304 428 -349 q 360 -204 360 -260 q 407 -85 360 -129 q 514 -42 454 -42 q 625 -83 571 -42 q 708 -214 679 -124 l 742 -186 l 463 613 l 440 613 q 409 457 424 535 q 385 318 394 379 q 376 228 376 257 q 387 108 376 157 q 418 26 397 60 q 246 -36 335 -36 q 115 17 153 -36 q 76 179 76 71 q 99 388 76 249 q 164 758 122 528 l 90 907 q 228 978 156 949 q 371 1007 301 1007 q 515 960 454 1007 q 618 835 575 914 q 692 660 661 757 q 746 458 722 563 q 793 257 769 354 q 812 442 801 347 q 832 615 822 536 q 850 738 842 693 q 744 768 781 738 q 708 882 708 799 q 714 950 708 922 q 729 1007 719 978 q 835 978 782 988 q 942 965 889 968 q 1001 1018 968 1001 q 1072 1035 1035 1035 q 1169 995 1136 1035 q 1201 903 1201 956 q 1188 838 1201 867 q 1156 789 1175 810 l 1033 25 q 973 -167 1015 -87 q 874 -299 931 -247 q 753 -374 817 -350 q 628 -399 689 -399 z "},"O":{"ha":1075,"x_min":35,"x_max":1054,"o":"m 515 -35 q 258 24 365 -35 q 92 186 150 82 q 35 425 35 290 q 101 731 35 600 q 290 934 167 861 q 585 1007 413 1007 q 703 973 668 1007 q 738 874 738 939 q 737 856 738 864 q 735 836 736 847 q 849 878 788 878 q 947 847 900 878 q 1024 750 994 815 q 1054 585 1054 685 q 1009 321 1054 436 q 887 126 964 206 q 714 6 810 47 q 515 -35 618 -35 m 526 168 q 651 222 594 168 q 728 360 707 275 q 659 480 679 419 q 639 600 639 540 q 654 711 639 663 q 694 794 669 760 q 644 799 669 799 q 509 765 567 799 q 413 677 451 732 q 356 558 375 622 q 338 431 338 493 q 359 300 338 360 q 423 204 381 240 q 526 168 465 168 z "},"Ó":{"ha":1075,"x_min":35,"x_max":1054,"o":"m 515 -35 q 258 24 365 -35 q 92 186 150 82 q 35 425 35 290 q 101 731 35 600 q 290 934 167 861 q 585 1007 413 1007 q 703 973 668 1007 q 738 874 738 939 q 737 856 738 864 q 735 836 736 847 q 849 878 788 878 q 947 847 900 878 q 1024 750 994 815 q 1054 585 1054 685 q 1009 321 1054 436 q 887 126 964 206 q 714 6 810 47 q 515 -35 618 -35 m 526 168 q 651 222 594 168 q 728 360 707 275 q 659 480 679 419 q 639 600 639 540 q 654 711 639 663 q 694 794 669 760 q 644 799 669 799 q 509 765 567 799 q 413 677 451 732 q 356 558 375 622 q 338 431 338 493 q 359 300 338 360 q 423 204 381 240 q 526 168 465 168 m 483 1046 q 433 1069 456 1046 q 406 1151 410 1093 q 510 1199 460 1164 q 609 1274 561 1235 q 703 1341 657 1313 q 794 1369 749 1369 q 849 1341 826 1369 q 872 1238 872 1313 q 869 1188 872 1214 q 858 1136 865 1161 q 842 1138 851 1138 q 826 1139 833 1139 q 736 1125 779 1139 q 652 1092 693 1111 q 569 1060 611 1074 q 483 1046 528 1046 z "},"Ŏ":{"ha":1075,"x_min":35,"x_max":1054,"o":"m 515 -35 q 258 24 365 -35 q 92 186 150 82 q 35 425 35 290 q 101 731 35 600 q 290 934 167 861 q 585 1007 413 1007 q 703 973 668 1007 q 738 874 738 939 q 737 856 738 864 q 735 836 736 847 q 849 878 788 878 q 947 847 900 878 q 1024 750 994 815 q 1054 585 1054 685 q 1009 321 1054 436 q 887 126 964 206 q 714 6 810 47 q 515 -35 618 -35 m 526 168 q 651 222 594 168 q 728 360 707 275 q 659 480 679 419 q 639 600 639 540 q 654 711 639 663 q 694 794 669 760 q 644 799 669 799 q 509 765 567 799 q 413 677 451 732 q 356 558 375 622 q 338 431 338 493 q 359 300 338 360 q 423 204 381 240 q 526 168 465 168 m 575 1058 q 439 1098 492 1058 q 386 1226 386 1138 q 389 1276 386 1251 q 400 1331 392 1301 q 499 1263 443 1281 q 625 1244 554 1244 q 764 1275 694 1244 q 885 1358 833 1306 q 890 1324 888 1340 q 892 1292 892 1307 q 863 1185 892 1229 q 786 1113 833 1142 q 683 1072 739 1085 q 575 1058 628 1058 z "},"Ô":{"ha":1075,"x_min":35,"x_max":1054,"o":"m 515 -35 q 258 24 365 -35 q 92 186 150 82 q 35 425 35 290 q 101 731 35 600 q 290 934 167 861 q 585 1007 413 1007 q 703 973 668 1007 q 738 874 738 939 q 737 856 738 864 q 735 836 736 847 q 849 878 788 878 q 947 847 900 878 q 1024 750 994 815 q 1054 585 1054 685 q 1009 321 1054 436 q 887 126 964 206 q 714 6 810 47 q 515 -35 618 -35 m 526 168 q 651 222 594 168 q 728 360 707 275 q 659 480 679 419 q 639 600 639 540 q 654 711 639 663 q 694 794 669 760 q 644 799 669 799 q 509 765 567 799 q 413 677 451 732 q 356 558 375 622 q 338 431 338 493 q 359 300 338 360 q 423 204 381 240 q 526 168 465 168 m 429 1033 q 368 1041 386 1033 q 350 1060 350 1049 q 369 1114 350 1081 q 417 1185 389 1147 q 475 1256 446 1222 q 522 1310 504 1289 q 576 1327 539 1319 q 663 1340 614 1335 q 758 1344 711 1344 q 872 1333 824 1344 q 921 1293 921 1321 q 914 1206 921 1244 q 907 1122 907 1168 q 913 1079 907 1099 q 926 1044 918 1060 q 878 1036 903 1039 q 828 1033 854 1033 q 720 1065 746 1033 q 694 1147 694 1097 q 698 1201 694 1172 q 704 1258 701 1229 l 668 1258 q 608 1157 632 1214 q 585 1050 585 1100 q 503 1037 542 1040 q 429 1033 464 1033 z "},"Ö":{"ha":1075,"x_min":35,"x_max":1054,"o":"m 515 -35 q 258 24 365 -35 q 92 186 150 82 q 35 425 35 290 q 101 731 35 600 q 290 934 167 861 q 585 1007 413 1007 q 703 973 668 1007 q 738 874 738 939 q 737 856 738 864 q 735 836 736 847 q 849 878 788 878 q 947 847 900 878 q 1024 750 994 815 q 1054 585 1054 685 q 1009 321 1054 436 q 887 126 964 206 q 714 6 810 47 q 515 -35 618 -35 m 526 168 q 651 222 594 168 q 728 360 707 275 q 659 480 679 419 q 639 600 639 540 q 654 711 639 663 q 694 794 669 760 q 644 799 669 799 q 509 765 567 799 q 413 677 451 732 q 356 558 375 622 q 338 431 338 493 q 359 300 338 360 q 423 204 381 240 q 526 168 465 168 m 826 1064 q 733 1092 771 1064 q 696 1168 696 1119 q 724 1253 696 1219 q 792 1302 751 1286 q 869 1318 833 1318 q 963 1290 926 1318 q 1000 1213 1000 1261 q 976 1134 1000 1168 q 912 1082 951 1100 q 826 1064 872 1064 m 408 1064 q 315 1092 353 1064 q 278 1168 278 1119 q 306 1253 278 1219 q 374 1302 333 1286 q 451 1318 415 1318 q 545 1290 508 1318 q 582 1213 582 1261 q 558 1134 582 1168 q 494 1082 533 1100 q 408 1064 454 1064 z "},"Ò":{"ha":1075,"x_min":35,"x_max":1054,"o":"m 515 -35 q 258 24 365 -35 q 92 186 150 82 q 35 425 35 290 q 101 731 35 600 q 290 934 167 861 q 585 1007 413 1007 q 703 973 668 1007 q 738 874 738 939 q 737 856 738 864 q 735 836 736 847 q 849 878 788 878 q 947 847 900 878 q 1024 750 994 815 q 1054 585 1054 685 q 1009 321 1054 436 q 887 126 964 206 q 714 6 810 47 q 515 -35 618 -35 m 526 168 q 651 222 594 168 q 728 360 707 275 q 659 480 679 419 q 639 600 639 540 q 654 711 639 663 q 694 794 669 760 q 644 799 669 799 q 509 765 567 799 q 413 677 451 732 q 356 558 375 622 q 338 431 338 493 q 359 300 338 360 q 423 204 381 240 q 526 168 465 168 m 794 1046 q 708 1060 750 1046 q 626 1092 667 1074 q 542 1125 585 1111 q 451 1139 499 1139 q 435 1138 444 1139 q 419 1136 426 1138 q 409 1188 413 1161 q 406 1238 406 1214 q 429 1341 406 1313 q 483 1369 453 1369 q 575 1341 529 1369 q 669 1274 621 1313 q 767 1199 717 1235 q 872 1151 818 1164 q 845 1069 868 1093 q 794 1046 822 1046 z "},"Ő":{"ha":1075,"x_min":35,"x_max":1094,"o":"m 515 -35 q 258 24 365 -35 q 92 186 150 82 q 35 425 35 290 q 101 731 35 600 q 290 934 167 861 q 585 1007 413 1007 q 703 973 668 1007 q 738 874 738 939 q 737 856 738 864 q 735 836 736 847 q 849 878 788 878 q 947 847 900 878 q 1024 750 994 815 q 1054 585 1054 685 q 1009 321 1054 436 q 887 126 964 206 q 714 6 810 47 q 515 -35 618 -35 m 526 168 q 651 222 594 168 q 728 360 707 275 q 659 480 679 419 q 639 600 639 540 q 654 711 639 663 q 694 794 669 760 q 644 799 669 799 q 509 765 567 799 q 413 677 451 732 q 356 558 375 622 q 338 431 338 493 q 359 300 338 360 q 423 204 381 240 q 526 168 465 168 m 750 1039 q 692 1064 719 1039 q 643 1149 664 1089 q 713 1191 682 1163 q 774 1253 744 1219 q 832 1319 803 1288 q 894 1372 861 1351 q 969 1392 928 1392 q 1021 1380 992 1392 q 1072 1329 1050 1368 q 1094 1208 1094 1290 q 1014 1183 1056 1208 q 928 1124 972 1157 q 840 1065 885 1090 q 750 1039 794 1039 m 290 1039 q 232 1064 260 1039 q 183 1149 204 1089 q 253 1191 222 1163 q 314 1253 285 1219 q 372 1319 343 1288 q 435 1372 401 1351 q 510 1392 468 1392 q 561 1380 532 1392 q 613 1329 590 1368 q 635 1208 635 1290 q 554 1183 596 1208 q 469 1124 513 1157 q 380 1065 425 1090 q 290 1039 335 1039 z "},"Ō":{"ha":1075,"x_min":35,"x_max":1054,"o":"m 515 -35 q 258 24 365 -35 q 92 186 150 82 q 35 425 35 290 q 101 731 35 600 q 290 934 167 861 q 585 1007 413 1007 q 703 973 668 1007 q 738 874 738 939 q 737 856 738 864 q 735 836 736 847 q 849 878 788 878 q 947 847 900 878 q 1024 750 994 815 q 1054 585 1054 685 q 1009 321 1054 436 q 887 126 964 206 q 714 6 810 47 q 515 -35 618 -35 m 526 168 q 651 222 594 168 q 728 360 707 275 q 659 480 679 419 q 639 600 639 540 q 654 711 639 663 q 694 794 669 760 q 644 799 669 799 q 509 765 567 799 q 413 677 451 732 q 356 558 375 622 q 338 431 338 493 q 359 300 338 360 q 423 204 381 240 q 526 168 465 168 m 426 1090 q 392 1106 407 1090 q 378 1164 378 1121 q 389 1241 378 1207 q 418 1311 400 1275 q 472 1298 439 1301 q 521 1294 506 1294 q 658 1299 588 1294 q 800 1303 728 1303 q 873 1281 847 1303 q 899 1204 899 1258 q 894 1155 899 1181 q 879 1104 890 1129 q 828 1119 863 1115 q 774 1124 794 1124 q 658 1115 719 1124 q 538 1099 597 1107 q 426 1090 479 1090 z "},"Ø":{"ha":1075,"x_min":35,"x_max":1054,"o":"m 371 -154 q 310 -145 342 -154 q 246 -110 279 -136 q 281 -65 264 -93 q 313 0 297 -36 q 108 161 181 49 q 35 425 35 274 q 99 727 35 597 q 285 930 164 857 q 574 1006 406 1003 q 615 1096 589 1067 q 692 1125 642 1125 q 779 1108 739 1125 q 853 1060 819 1090 q 801 963 826 1019 q 757 851 776 906 q 849 878 800 878 q 947 847 900 878 q 1024 750 994 815 q 1054 585 1054 685 q 1009 321 1054 436 q 887 126 964 206 q 714 6 810 47 q 515 -35 618 -35 q 460 -122 494 -90 q 371 -154 425 -154 m 382 218 q 457 512 422 369 q 519 776 492 654 q 414 685 457 746 q 349 549 371 624 q 326 401 326 474 q 340 298 326 346 q 382 218 353 250 m 575 181 q 692 267 644 206 q 765 409 740 329 q 790 567 790 489 q 776 676 790 625 q 729 757 761 726 q 674 558 699 651 q 626 372 649 464 q 575 181 603 281 z "},"Ǿ":{"ha":1075,"x_min":35,"x_max":1054,"o":"m 371 -154 q 310 -145 342 -154 q 246 -110 279 -136 q 281 -65 264 -93 q 313 0 297 -36 q 108 161 181 49 q 35 425 35 274 q 99 727 35 597 q 285 930 164 857 q 574 1006 406 1003 q 615 1096 589 1067 q 692 1125 642 1125 q 779 1108 739 1125 q 853 1060 819 1090 q 801 963 826 1019 q 757 851 776 906 q 849 878 800 878 q 947 847 900 878 q 1024 750 994 815 q 1054 585 1054 685 q 1009 321 1054 436 q 887 126 964 206 q 714 6 810 47 q 515 -35 618 -35 q 460 -122 494 -90 q 371 -154 425 -154 m 382 218 q 457 512 422 369 q 519 776 492 654 q 414 685 457 746 q 349 549 371 624 q 326 401 326 474 q 340 298 326 346 q 382 218 353 250 m 575 181 q 692 267 644 206 q 765 409 740 329 q 790 567 790 489 q 776 676 790 625 q 729 757 761 726 q 674 558 699 651 q 626 372 649 464 q 575 181 603 281 m 508 1131 q 458 1154 481 1131 q 431 1236 435 1178 q 535 1284 485 1249 q 634 1358 586 1319 q 728 1426 682 1397 q 819 1454 774 1454 q 874 1426 851 1454 q 897 1322 897 1397 q 894 1272 897 1299 q 883 1221 890 1246 q 867 1223 876 1222 q 851 1224 858 1224 q 761 1210 804 1224 q 677 1177 718 1196 q 594 1144 636 1158 q 508 1131 553 1131 z "},"Õ":{"ha":1075,"x_min":35,"x_max":1054,"o":"m 515 -35 q 258 24 365 -35 q 92 186 150 82 q 35 425 35 290 q 101 731 35 600 q 290 934 167 861 q 585 1007 413 1007 q 703 973 668 1007 q 738 874 738 939 q 737 856 738 864 q 735 836 736 847 q 849 878 788 878 q 947 847 900 878 q 1024 750 994 815 q 1054 585 1054 685 q 1009 321 1054 436 q 887 126 964 206 q 714 6 810 47 q 515 -35 618 -35 m 526 168 q 651 222 594 168 q 728 360 707 275 q 659 480 679 419 q 639 600 639 540 q 654 711 639 663 q 694 794 669 760 q 644 799 669 799 q 509 765 567 799 q 413 677 451 732 q 356 558 375 622 q 338 431 338 493 q 359 300 338 360 q 423 204 381 240 q 526 168 465 168 m 444 1064 q 381 1083 406 1064 q 356 1151 356 1101 q 393 1297 356 1215 q 451 1276 422 1283 q 508 1269 481 1269 q 622 1290 568 1269 q 727 1331 675 1311 q 833 1351 779 1351 q 897 1333 872 1351 q 922 1264 922 1314 q 885 1118 922 1200 q 826 1140 856 1133 q 769 1146 797 1146 q 657 1126 711 1146 q 551 1085 603 1106 q 444 1064 499 1064 z "},"Œ":{"ha":1333,"x_min":35,"x_max":1361,"o":"m 515 -35 q 258 24 365 -35 q 92 186 150 82 q 35 425 35 290 q 101 731 35 600 q 290 933 167 861 q 585 1006 413 1006 q 688 997 643 1006 q 777 978 733 989 q 872 960 821 968 q 990 951 922 951 q 1143 963 1056 951 q 1350 1001 1231 974 q 1359 953 1357 975 q 1361 911 1361 931 q 1325 782 1361 832 q 1228 708 1289 732 q 1096 685 1168 685 q 940 718 1018 685 q 922 619 932 671 q 901 514 913 567 q 945 507 924 510 q 989 504 967 504 q 1052 519 1017 510 q 1114 536 1088 528 q 1120 499 1119 518 q 1121 469 1121 481 q 1076 372 1121 403 q 969 342 1031 342 q 919 345 943 342 q 872 354 896 349 q 861 272 865 314 q 857 189 857 231 l 1082 189 q 1294 243 1188 204 q 1301 211 1300 228 q 1303 175 1303 194 q 1283 78 1303 126 q 1224 -3 1264 29 q 1122 -35 1183 -35 q 1026 -27 1068 -35 q 942 -10 983 -19 q 851 6 900 -1 q 736 14 803 14 q 515 -35 631 -35 m 526 168 q 542 169 533 168 q 557 171 550 169 q 569 312 557 219 q 603 529 582 404 q 650 799 624 654 q 510 765 569 799 q 413 677 451 732 q 356 558 375 622 q 338 431 338 493 q 359 300 338 360 q 423 204 381 240 q 526 168 465 168 z "},"P":{"ha":996,"x_min":83,"x_max":996,"o":"m 253 -36 q 122 17 160 -36 q 83 179 83 71 q 106 388 83 249 q 171 758 129 528 l 97 907 q 236 978 163 949 q 383 1008 310 1008 q 463 994 421 1008 q 524 965 506 981 q 624 996 576 986 q 714 1006 672 1006 q 868 962 806 1006 q 963 847 931 918 q 996 694 996 776 q 968 549 996 622 q 883 417 940 476 q 739 321 826 357 q 532 285 651 285 q 462 290 497 285 q 392 304 426 294 q 383 228 383 254 q 394 108 383 157 q 425 26 404 60 q 253 -36 342 -36 m 458 458 q 567 487 515 458 q 653 564 619 515 q 686 675 686 613 q 651 781 686 735 q 546 828 617 828 q 482 817 518 828 q 466 715 476 775 q 444 589 456 654 q 418 463 432 524 q 458 458 438 458 z "},"Þ":{"ha":971,"x_min":83,"x_max":971,"o":"m 253 -36 q 122 17 160 -36 q 83 179 83 71 q 106 388 83 249 q 171 758 129 528 l 97 907 q 236 978 163 949 q 383 1008 310 1008 q 469 969 449 1008 q 490 878 490 931 q 486 833 490 861 q 593 864 539 854 q 689 874 647 874 q 843 830 781 874 q 938 715 906 786 q 971 563 971 644 q 943 417 971 490 q 858 285 915 344 q 714 189 801 225 q 507 153 626 153 q 446 156 476 153 q 385 167 415 160 q 425 26 393 74 q 253 -36 342 -36 m 425 326 q 556 360 504 326 q 634 443 608 393 q 660 543 660 493 q 625 651 660 604 q 521 697 590 697 q 489 694 506 697 q 457 688 472 692 q 441 584 451 644 q 419 457 431 524 q 393 328 407 390 q 408 326 400 326 q 425 326 415 326 z "},"Q":{"ha":1075,"x_min":35,"x_max":1054,"o":"m 799 -290 q 642 -266 724 -290 q 487 -208 560 -242 q 361 -144 414 -174 q 301 -201 333 -182 q 239 -228 268 -221 q 190 -235 210 -235 q 104 -198 133 -235 q 75 -118 75 -161 q 93 -53 75 -85 q 149 -1 111 -22 q 243 19 186 19 l 243 32 q 89 192 143 90 q 35 425 35 294 q 101 731 35 600 q 290 934 167 861 q 585 1007 413 1007 q 703 973 668 1007 q 738 874 738 939 q 737 856 738 864 q 735 836 736 847 q 849 878 788 878 q 947 847 900 878 q 1024 750 994 815 q 1054 585 1054 685 q 994 284 1054 411 q 835 79 933 157 q 619 -24 736 1 l 619 -36 q 678 -42 649 -40 q 736 -44 707 -44 q 859 -35 797 -44 q 985 -3 921 -26 q 997 -48 993 -25 q 1000 -94 1000 -71 q 978 -190 1000 -146 q 913 -262 957 -235 q 799 -290 868 -290 m 526 168 q 651 222 594 168 q 728 360 707 275 q 659 480 679 419 q 639 600 639 540 q 654 711 639 663 q 694 794 669 760 q 644 799 669 799 q 509 765 567 799 q 413 677 451 732 q 356 558 375 622 q 338 431 338 493 q 359 300 338 360 q 423 204 381 240 q 526 168 465 168 z "},"R":{"ha":1018,"x_min":83,"x_max":1046,"o":"m 253 -36 q 122 17 160 -36 q 83 179 83 71 q 106 388 83 249 q 171 758 129 528 l 97 907 q 236 978 163 949 q 383 1007 310 1007 q 466 996 421 1007 q 538 965 511 985 q 725 1007 642 1007 q 877 965 815 1007 q 971 857 939 924 q 1003 714 1003 790 q 958 543 1003 628 q 822 403 914 458 q 890 242 853 317 q 967 116 926 168 q 1046 42 1007 64 q 992 3 1026 21 q 918 -24 957 -14 q 847 -35 879 -35 q 742 -16 788 -35 q 660 53 696 3 q 593 193 625 103 l 544 333 q 399 356 472 333 q 383 228 383 267 q 394 108 383 157 q 425 26 404 60 q 253 -36 342 -36 m 460 507 q 591 535 539 507 q 669 608 643 564 q 694 694 694 651 q 660 788 694 747 q 556 829 625 829 q 483 819 519 829 q 469 730 478 782 q 451 620 461 678 q 428 508 442 563 q 442 507 435 507 q 460 507 450 507 z "},"Ŕ":{"ha":1018,"x_min":83,"x_max":1046,"o":"m 253 -36 q 122 17 160 -36 q 83 179 83 71 q 106 388 83 249 q 171 758 129 528 l 97 907 q 236 978 163 949 q 383 1007 310 1007 q 466 996 421 1007 q 538 965 511 985 q 725 1007 642 1007 q 877 965 815 1007 q 971 857 939 924 q 1003 714 1003 790 q 958 543 1003 628 q 822 403 914 458 q 890 242 853 317 q 967 116 926 168 q 1046 42 1007 64 q 992 3 1026 21 q 918 -24 957 -14 q 847 -35 879 -35 q 742 -16 788 -35 q 660 53 696 3 q 593 193 625 103 l 544 333 q 399 356 472 333 q 383 228 383 267 q 394 108 383 157 q 425 26 404 60 q 253 -36 342 -36 m 460 507 q 591 535 539 507 q 669 608 643 564 q 694 694 694 651 q 660 788 694 747 q 556 829 625 829 q 483 819 519 829 q 469 730 478 782 q 451 620 461 678 q 428 508 442 563 q 442 507 435 507 q 460 507 450 507 m 465 1046 q 415 1069 438 1046 q 388 1151 392 1093 q 492 1199 442 1164 q 591 1274 543 1235 q 685 1341 639 1313 q 776 1369 731 1369 q 831 1341 808 1369 q 854 1238 854 1313 q 851 1188 854 1214 q 840 1136 847 1161 q 824 1138 833 1138 q 808 1139 815 1139 q 718 1125 761 1139 q 634 1092 675 1111 q 551 1060 593 1074 q 465 1046 510 1046 z "},"Ř":{"ha":1018,"x_min":83,"x_max":1046,"o":"m 253 -36 q 122 17 160 -36 q 83 179 83 71 q 106 388 83 249 q 171 758 129 528 l 97 907 q 236 978 163 949 q 383 1007 310 1007 q 466 996 421 1007 q 538 965 511 985 q 725 1007 642 1007 q 877 965 815 1007 q 971 857 939 924 q 1003 714 1003 790 q 958 543 1003 628 q 822 403 914 458 q 890 242 853 317 q 967 116 926 168 q 1046 42 1007 64 q 992 3 1026 21 q 918 -24 957 -14 q 847 -35 879 -35 q 742 -16 788 -35 q 660 53 696 3 q 593 193 625 103 l 544 333 q 399 356 472 333 q 383 228 383 267 q 394 108 383 157 q 425 26 404 60 q 253 -36 342 -36 m 460 507 q 591 535 539 507 q 669 608 643 564 q 694 694 694 651 q 660 788 694 747 q 556 829 625 829 q 483 819 519 829 q 469 730 478 782 q 451 620 461 678 q 428 508 442 563 q 442 507 435 507 q 460 507 450 507 m 615 1028 q 498 1046 547 1028 q 449 1107 449 1064 l 449 1222 q 436 1279 449 1258 q 406 1313 424 1300 q 467 1331 432 1324 q 536 1339 501 1339 q 617 1317 586 1339 q 649 1235 649 1294 q 644 1178 649 1211 q 633 1114 639 1146 l 675 1114 q 715 1180 699 1138 q 732 1265 732 1222 q 731 1289 732 1276 q 729 1314 731 1301 q 790 1332 757 1325 q 863 1339 824 1339 q 946 1324 922 1339 q 969 1285 969 1308 q 953 1231 969 1261 q 912 1171 936 1201 q 863 1113 888 1140 q 819 1065 838 1085 q 728 1038 785 1049 q 615 1028 672 1028 z "},"Ŗ":{"ha":1018,"x_min":83,"x_max":1046,"o":"m 253 -36 q 122 17 160 -36 q 83 179 83 71 q 106 388 83 249 q 171 758 129 528 l 97 907 q 236 978 163 949 q 383 1007 310 1007 q 466 996 421 1007 q 538 965 511 985 q 725 1007 642 1007 q 877 965 815 1007 q 971 857 939 924 q 1003 714 1003 790 q 958 543 1003 628 q 822 403 914 458 q 890 242 853 317 q 967 116 926 168 q 1046 42 1007 64 q 992 3 1026 21 q 918 -24 957 -14 q 847 -35 879 -35 q 742 -16 788 -35 q 660 53 696 3 q 593 193 625 103 l 544 333 q 399 356 472 333 q 383 228 383 267 q 394 108 383 157 q 425 26 404 60 q 253 -36 342 -36 m 460 507 q 591 535 539 507 q 669 608 643 564 q 694 694 694 651 q 660 788 694 747 q 556 829 625 829 q 483 819 519 829 q 469 730 478 782 q 451 620 461 678 q 428 508 442 563 q 442 507 435 507 q 460 507 450 507 m 331 -589 l 313 -533 q 383 -481 354 -514 q 428 -412 413 -449 q 444 -346 444 -376 l 357 -233 q 382 -159 360 -193 q 440 -104 404 -125 q 518 -83 476 -83 q 617 -127 582 -83 q 651 -228 651 -171 q 613 -387 651 -312 q 501 -515 574 -462 q 331 -589 429 -568 z "},"S":{"ha":956,"x_min":49,"x_max":942,"o":"m 458 -35 q 253 -17 333 -35 q 128 31 172 0 q 66 101 83 61 q 49 185 49 140 q 62 268 49 226 q 108 354 75 310 q 172 276 128 314 q 273 215 217 239 q 383 192 329 192 q 503 215 456 192 q 572 286 551 238 q 218 417 336 318 q 100 651 100 517 q 133 790 100 731 q 219 891 165 850 q 338 958 274 932 q 464 995 401 983 q 575 1007 526 1007 q 847 966 751 1007 q 942 822 942 925 q 915 722 942 763 q 844 662 888 682 q 749 642 800 642 q 629 677 688 642 q 547 776 571 713 q 451 744 499 776 q 390 654 404 711 q 688 556 575 610 q 853 433 801 501 q 904 278 904 365 q 844 107 904 176 q 684 1 785 38 q 458 -35 583 -35 z "},"Ś":{"ha":956,"x_min":49,"x_max":942,"o":"m 458 -35 q 253 -17 333 -35 q 128 31 172 0 q 66 101 83 61 q 49 185 49 140 q 62 268 49 226 q 108 354 75 310 q 172 276 128 314 q 273 215 217 239 q 383 192 329 192 q 503 215 456 192 q 572 286 551 238 q 218 417 336 318 q 100 651 100 517 q 133 790 100 731 q 219 891 165 850 q 338 958 274 932 q 464 995 401 983 q 575 1007 526 1007 q 847 966 751 1007 q 942 822 942 925 q 915 722 942 763 q 844 662 888 682 q 749 642 800 642 q 629 677 688 642 q 547 776 571 713 q 451 744 499 776 q 390 654 404 711 q 688 556 575 610 q 853 433 801 501 q 904 278 904 365 q 844 107 904 176 q 684 1 785 38 q 458 -35 583 -35 m 424 1046 q 373 1069 396 1046 q 346 1151 350 1093 q 451 1199 400 1164 q 549 1274 501 1235 q 643 1341 597 1313 q 735 1369 689 1369 q 790 1341 767 1369 q 813 1238 813 1313 q 809 1188 813 1214 q 799 1136 806 1161 q 783 1138 792 1138 q 767 1139 774 1139 q 676 1125 719 1139 q 592 1092 633 1111 q 510 1060 551 1074 q 424 1046 468 1046 z "},"Š":{"ha":956,"x_min":49,"x_max":942,"o":"m 458 -35 q 253 -17 333 -35 q 128 31 172 0 q 66 101 83 61 q 49 185 49 140 q 62 268 49 226 q 108 354 75 310 q 172 276 128 314 q 273 215 217 239 q 383 192 329 192 q 503 215 456 192 q 572 286 551 238 q 218 417 336 318 q 100 651 100 517 q 133 790 100 731 q 219 891 165 850 q 338 958 274 932 q 464 995 401 983 q 575 1007 526 1007 q 847 966 751 1007 q 942 822 942 925 q 915 722 942 763 q 844 662 888 682 q 749 642 800 642 q 629 677 688 642 q 547 776 571 713 q 451 744 499 776 q 390 654 404 711 q 688 556 575 610 q 853 433 801 501 q 904 278 904 365 q 844 107 904 176 q 684 1 785 38 q 458 -35 583 -35 m 574 1028 q 456 1046 506 1028 q 407 1107 407 1064 l 407 1222 q 394 1279 407 1258 q 364 1313 382 1300 q 425 1331 390 1324 q 494 1339 460 1339 q 576 1317 544 1339 q 607 1235 607 1294 q 602 1178 607 1211 q 592 1114 597 1146 l 633 1114 q 674 1180 657 1138 q 690 1265 690 1222 q 690 1289 690 1276 q 688 1314 689 1301 q 749 1332 715 1325 q 821 1339 782 1339 q 904 1324 881 1339 q 928 1285 928 1308 q 911 1231 928 1261 q 870 1171 894 1201 q 821 1113 846 1140 q 778 1065 796 1085 q 687 1038 743 1049 q 574 1028 631 1028 z "},"Ş":{"ha":956,"x_min":49,"x_max":942,"o":"m 458 -35 q 253 -17 333 -35 q 128 31 172 0 q 66 101 83 61 q 49 185 49 140 q 62 268 49 226 q 108 354 75 310 q 172 276 128 314 q 273 215 217 239 q 383 192 329 192 q 503 215 456 192 q 572 286 551 238 q 218 417 336 318 q 100 651 100 517 q 133 790 100 731 q 219 891 165 850 q 338 958 274 932 q 464 995 401 983 q 575 1007 526 1007 q 847 966 751 1007 q 942 822 942 925 q 915 722 942 763 q 844 662 888 682 q 749 642 800 642 q 629 677 688 642 q 547 776 571 713 q 451 744 499 776 q 390 654 404 711 q 688 556 575 610 q 853 433 801 501 q 904 278 904 365 q 844 107 904 176 q 684 1 785 38 q 458 -35 583 -35 m 335 -399 q 211 -375 257 -399 q 146 -317 165 -351 q 126 -250 126 -283 q 150 -167 126 -204 q 216 -106 174 -129 q 313 -83 258 -83 q 284 -126 294 -99 q 274 -181 274 -153 q 295 -242 274 -222 q 344 -261 317 -261 q 419 -228 383 -261 q 456 -135 456 -194 q 426 -47 456 -90 q 332 24 396 -3 l 332 39 l 385 39 q 522 12 468 39 q 601 -60 575 -15 q 626 -154 626 -104 q 592 -269 626 -212 q 494 -362 558 -325 q 335 -399 429 -399 z "},"Ŝ":{"ha":956,"x_min":49,"x_max":942,"o":"m 458 -35 q 253 -17 333 -35 q 128 31 172 0 q 66 101 83 61 q 49 185 49 140 q 62 268 49 226 q 108 354 75 310 q 172 276 128 314 q 273 215 217 239 q 383 192 329 192 q 503 215 456 192 q 572 286 551 238 q 218 417 336 318 q 100 651 100 517 q 133 790 100 731 q 219 891 165 850 q 338 958 274 932 q 464 995 401 983 q 575 1007 526 1007 q 847 966 751 1007 q 942 822 942 925 q 915 722 942 763 q 844 662 888 682 q 749 642 800 642 q 629 677 688 642 q 547 776 571 713 q 451 744 499 776 q 390 654 404 711 q 688 556 575 610 q 853 433 801 501 q 904 278 904 365 q 844 107 904 176 q 684 1 785 38 q 458 -35 583 -35 m 369 1033 q 308 1041 326 1033 q 290 1060 290 1049 q 310 1114 290 1081 q 358 1185 329 1147 q 415 1256 386 1222 q 463 1310 444 1289 q 517 1327 479 1319 q 603 1340 554 1335 q 699 1344 651 1344 q 813 1333 764 1344 q 861 1293 861 1321 q 854 1206 861 1244 q 847 1122 847 1168 q 853 1079 847 1099 q 867 1044 858 1060 q 819 1036 843 1039 q 768 1033 794 1033 q 660 1065 686 1033 q 635 1147 635 1097 q 638 1201 635 1172 q 644 1258 642 1229 l 608 1258 q 549 1157 572 1214 q 525 1050 525 1100 q 443 1037 482 1040 q 369 1033 404 1033 z "},"Ș":{"ha":956,"x_min":49,"x_max":942,"o":"m 458 -35 q 253 -17 333 -35 q 128 31 172 0 q 66 101 83 61 q 49 185 49 140 q 62 268 49 226 q 108 354 75 310 q 172 276 128 314 q 273 215 217 239 q 383 192 329 192 q 503 215 456 192 q 572 286 551 238 q 218 417 336 318 q 100 651 100 517 q 133 790 100 731 q 219 891 165 850 q 338 958 274 932 q 464 995 401 983 q 575 1007 526 1007 q 847 966 751 1007 q 942 822 942 925 q 915 722 942 763 q 844 662 888 682 q 749 642 800 642 q 629 677 688 642 q 547 776 571 713 q 451 744 499 776 q 390 654 404 711 q 688 556 575 610 q 853 433 801 501 q 904 278 904 365 q 844 107 904 176 q 684 1 785 38 q 458 -35 583 -35 m 225 -589 l 207 -533 q 278 -481 249 -514 q 323 -412 307 -449 q 339 -346 339 -376 l 251 -233 q 276 -159 254 -193 q 335 -104 299 -125 q 413 -83 371 -83 q 511 -127 476 -83 q 546 -228 546 -171 q 507 -387 546 -312 q 396 -515 468 -462 q 225 -589 324 -568 z "},"T":{"ha":826,"x_min":18,"x_max":885,"o":"m 382 -36 q 251 17 289 -36 q 213 179 213 71 q 233 378 213 246 q 293 724 254 510 q 212 711 261 719 q 113 694 163 703 q 29 676 63 685 q 19 728 21 703 q 18 767 18 753 q 47 896 18 846 q 122 969 75 946 q 225 993 169 993 q 365 980 296 993 q 505 953 435 967 q 649 936 575 939 q 763 961 700 946 q 874 990 826 976 q 883 939 882 964 q 885 900 885 914 q 853 771 885 821 q 770 697 822 721 q 656 674 718 674 q 621 674 638 674 q 589 676 604 675 q 563 546 576 614 q 539 415 550 478 q 520 302 528 351 q 513 228 513 253 q 523 108 513 157 q 554 26 533 60 q 382 -36 471 -36 z "},"Ŧ":{"ha":826,"x_min":18,"x_max":885,"o":"m 136 244 q 82 261 103 244 q 61 322 61 278 q 74 382 61 349 q 110 444 88 415 q 175 428 142 433 q 240 424 208 424 q 264 560 251 485 q 293 724 276 635 q 212 711 261 719 q 113 694 163 703 q 29 676 63 685 q 19 728 21 703 q 18 767 18 753 q 47 896 18 846 q 122 969 75 946 q 225 993 169 993 q 365 980 296 993 q 505 953 435 967 q 649 936 575 939 q 763 961 700 946 q 874 990 826 976 q 883 939 882 964 q 885 900 885 914 q 853 771 885 821 q 770 697 822 721 q 656 674 718 674 q 621 674 638 674 q 589 676 604 675 q 572 590 581 635 q 556 501 564 546 q 619 508 589 508 q 701 489 668 508 q 735 421 735 469 q 688 308 735 367 q 617 331 653 324 q 546 338 581 338 q 525 338 536 338 q 516 273 519 301 q 513 228 513 244 q 523 108 513 157 q 554 26 533 60 q 382 -36 471 -36 q 251 17 289 -36 q 213 179 213 71 q 217 254 213 210 q 177 247 197 250 q 136 244 157 244 z "},"Ť":{"ha":826,"x_min":18,"x_max":885,"o":"m 382 -36 q 251 17 289 -36 q 213 179 213 71 q 233 378 213 246 q 293 724 254 510 q 212 711 261 719 q 113 694 163 703 q 29 676 63 685 q 19 728 21 703 q 18 767 18 753 q 47 896 18 846 q 122 969 75 946 q 225 993 169 993 q 365 980 296 993 q 505 953 435 967 q 649 936 575 939 q 763 961 700 946 q 874 990 826 976 q 883 939 882 964 q 885 900 885 914 q 853 771 885 821 q 770 697 822 721 q 656 674 718 674 q 621 674 638 674 q 589 676 604 675 q 563 546 576 614 q 539 415 550 478 q 520 302 528 351 q 513 228 513 253 q 523 108 513 157 q 554 26 533 60 q 382 -36 471 -36 m 478 1028 q 360 1046 410 1028 q 311 1107 311 1064 l 311 1222 q 299 1279 311 1258 q 268 1313 286 1300 q 329 1331 294 1324 q 399 1339 364 1339 q 480 1317 449 1339 q 511 1235 511 1294 q 506 1178 511 1211 q 496 1114 501 1146 l 538 1114 q 578 1180 561 1138 q 594 1265 594 1222 q 594 1289 594 1276 q 592 1314 593 1301 q 653 1332 619 1325 q 725 1339 686 1339 q 808 1324 785 1339 q 832 1285 832 1308 q 815 1231 832 1261 q 774 1171 799 1201 q 725 1113 750 1140 q 682 1065 700 1085 q 591 1038 647 1049 q 478 1028 535 1028 z "},"Ţ":{"ha":826,"x_min":18,"x_max":885,"o":"m 382 -36 q 251 17 289 -36 q 213 179 213 71 q 233 378 213 246 q 293 724 254 510 q 212 711 261 719 q 113 694 163 703 q 29 676 63 685 q 19 728 21 703 q 18 767 18 753 q 47 896 18 846 q 122 969 75 946 q 225 993 169 993 q 365 980 296 993 q 505 953 435 967 q 649 936 575 939 q 763 961 700 946 q 874 990 826 976 q 883 939 882 964 q 885 900 885 914 q 853 771 885 821 q 770 697 822 721 q 656 674 718 674 q 621 674 638 674 q 589 676 604 675 q 563 546 576 614 q 539 415 550 478 q 520 302 528 351 q 513 228 513 253 q 523 108 513 157 q 554 26 533 60 q 382 -36 471 -36 m 289 -399 q 165 -375 211 -399 q 100 -317 119 -351 q 81 -250 81 -283 q 104 -167 81 -204 q 170 -106 128 -129 q 267 -83 213 -83 q 238 -126 249 -99 q 228 -181 228 -153 q 249 -242 228 -222 q 299 -261 271 -261 q 374 -228 338 -261 q 410 -135 410 -194 q 380 -47 410 -90 q 286 24 350 -3 l 286 39 l 339 39 q 476 12 422 39 q 555 -60 529 -15 q 581 -154 581 -104 q 547 -269 581 -212 q 448 -362 513 -325 q 289 -399 383 -399 z "},"Ț":{"ha":826,"x_min":18,"x_max":885,"o":"m 382 -36 q 251 17 289 -36 q 213 179 213 71 q 233 378 213 246 q 293 724 254 510 q 212 711 261 719 q 113 694 163 703 q 29 676 63 685 q 19 728 21 703 q 18 767 18 753 q 47 896 18 846 q 122 969 75 946 q 225 993 169 993 q 365 980 296 993 q 505 953 435 967 q 649 936 575 939 q 763 961 700 946 q 874 990 826 976 q 883 939 882 964 q 885 900 885 914 q 853 771 885 821 q 770 697 822 721 q 656 674 718 674 q 621 674 638 674 q 589 676 604 675 q 563 546 576 614 q 539 415 550 478 q 520 302 528 351 q 513 228 513 253 q 523 108 513 157 q 554 26 533 60 q 382 -36 471 -36 m 179 -589 l 161 -533 q 232 -481 203 -514 q 277 -412 261 -449 q 293 -346 293 -376 l 206 -233 q 231 -159 208 -193 q 289 -104 253 -125 q 367 -83 325 -83 q 465 -127 431 -83 q 500 -228 500 -171 q 461 -387 500 -312 q 350 -515 422 -462 q 179 -589 278 -568 z "},"U":{"ha":1149,"x_min":90,"x_max":1121,"o":"m 863 -36 q 746 3 796 -36 q 696 131 696 43 q 696 148 696 139 q 697 167 696 157 l 683 171 q 314 -35 546 -35 q 144 28 197 -35 q 90 201 90 90 q 103 345 90 254 q 135 544 117 436 q 172 758 154 653 l 99 907 q 242 979 175 951 q 385 1007 310 1007 q 471 969 450 1007 q 492 878 492 932 q 485 816 492 860 q 467 713 478 772 q 445 588 457 653 q 423 463 433 524 q 406 357 413 403 q 399 290 399 311 q 416 210 399 239 q 474 181 433 181 q 551 210 507 181 q 639 298 594 239 q 715 446 683 357 q 686 621 686 532 q 720 810 686 722 q 822 952 754 897 q 992 1007 890 1007 q 1058 1001 1024 1007 q 1121 981 1092 996 q 1092 815 1108 906 q 1058 633 1075 725 q 1026 457 1040 540 q 1002 313 1011 374 q 993 228 993 253 q 1003 108 993 157 q 1035 26 1014 60 q 863 -36 951 -36 z "},"Ú":{"ha":1149,"x_min":90,"x_max":1121,"o":"m 863 -36 q 746 3 796 -36 q 696 131 696 43 q 696 148 696 139 q 697 167 696 157 l 683 171 q 314 -35 546 -35 q 144 28 197 -35 q 90 201 90 90 q 103 345 90 254 q 135 544 117 436 q 172 758 154 653 l 99 907 q 242 979 175 951 q 385 1007 310 1007 q 471 969 450 1007 q 492 878 492 932 q 485 816 492 860 q 467 713 478 772 q 445 588 457 653 q 423 463 433 524 q 406 357 413 403 q 399 290 399 311 q 416 210 399 239 q 474 181 433 181 q 551 210 507 181 q 639 298 594 239 q 715 446 683 357 q 686 621 686 532 q 720 810 686 722 q 822 952 754 897 q 992 1007 890 1007 q 1058 1001 1024 1007 q 1121 981 1092 996 q 1092 815 1108 906 q 1058 633 1075 725 q 1026 457 1040 540 q 1002 313 1011 374 q 993 228 993 253 q 1003 108 993 157 q 1035 26 1014 60 q 863 -36 951 -36 m 536 1046 q 485 1069 508 1046 q 458 1151 463 1093 q 563 1199 513 1164 q 662 1274 614 1235 q 756 1341 710 1313 q 847 1369 801 1369 q 902 1341 879 1369 q 925 1238 925 1313 q 922 1188 925 1214 q 911 1136 918 1161 q 895 1138 904 1138 q 879 1139 886 1139 q 789 1125 832 1139 q 705 1092 746 1111 q 622 1060 664 1074 q 536 1046 581 1046 z "},"Ŭ":{"ha":1149,"x_min":90,"x_max":1121,"o":"m 863 -36 q 746 3 796 -36 q 696 131 696 43 q 696 148 696 139 q 697 167 696 157 l 683 171 q 314 -35 546 -35 q 144 28 197 -35 q 90 201 90 90 q 103 345 90 254 q 135 544 117 436 q 172 758 154 653 l 99 907 q 242 979 175 951 q 385 1007 310 1007 q 471 969 450 1007 q 492 878 492 932 q 485 816 492 860 q 467 713 478 772 q 445 588 457 653 q 423 463 433 524 q 406 357 413 403 q 399 290 399 311 q 416 210 399 239 q 474 181 433 181 q 551 210 507 181 q 639 298 594 239 q 715 446 683 357 q 686 621 686 532 q 720 810 686 722 q 822 952 754 897 q 992 1007 890 1007 q 1058 1001 1024 1007 q 1121 981 1092 996 q 1092 815 1108 906 q 1058 633 1075 725 q 1026 457 1040 540 q 1002 313 1011 374 q 993 228 993 253 q 1003 108 993 157 q 1035 26 1014 60 q 863 -36 951 -36 m 628 1058 q 492 1098 544 1058 q 439 1226 439 1138 q 442 1276 439 1251 q 453 1331 444 1301 q 551 1263 496 1281 q 678 1244 607 1244 q 817 1275 747 1244 q 938 1358 886 1306 q 942 1324 940 1340 q 944 1292 944 1307 q 915 1185 944 1229 q 839 1113 886 1142 q 736 1072 792 1085 q 628 1058 681 1058 z "},"Û":{"ha":1149,"x_min":90,"x_max":1121,"o":"m 863 -36 q 746 3 796 -36 q 696 131 696 43 q 696 148 696 139 q 697 167 696 157 l 683 171 q 314 -35 546 -35 q 144 28 197 -35 q 90 201 90 90 q 103 345 90 254 q 135 544 117 436 q 172 758 154 653 l 99 907 q 242 979 175 951 q 385 1007 310 1007 q 471 969 450 1007 q 492 878 492 932 q 485 816 492 860 q 467 713 478 772 q 445 588 457 653 q 423 463 433 524 q 406 357 413 403 q 399 290 399 311 q 416 210 399 239 q 474 181 433 181 q 551 210 507 181 q 639 298 594 239 q 715 446 683 357 q 686 621 686 532 q 720 810 686 722 q 822 952 754 897 q 992 1007 890 1007 q 1058 1001 1024 1007 q 1121 981 1092 996 q 1092 815 1108 906 q 1058 633 1075 725 q 1026 457 1040 540 q 1002 313 1011 374 q 993 228 993 253 q 1003 108 993 157 q 1035 26 1014 60 q 863 -36 951 -36 m 482 1033 q 421 1041 439 1033 q 403 1060 403 1049 q 422 1114 403 1081 q 470 1185 442 1147 q 528 1256 499 1222 q 575 1310 557 1289 q 629 1327 592 1319 q 715 1340 667 1335 q 811 1344 764 1344 q 925 1333 876 1344 q 974 1293 974 1321 q 967 1206 974 1244 q 960 1122 960 1168 q 965 1079 960 1099 q 979 1044 971 1060 q 931 1036 956 1039 q 881 1033 907 1033 q 773 1065 799 1033 q 747 1147 747 1097 q 751 1201 747 1172 q 757 1258 754 1229 l 721 1258 q 661 1157 685 1214 q 638 1050 638 1100 q 556 1037 594 1040 q 482 1033 517 1033 z "},"Ü":{"ha":1149,"x_min":90,"x_max":1121,"o":"m 863 -36 q 746 3 796 -36 q 696 131 696 43 q 696 148 696 139 q 697 167 696 157 l 683 171 q 314 -35 546 -35 q 144 28 197 -35 q 90 201 90 90 q 103 345 90 254 q 135 544 117 436 q 172 758 154 653 l 99 907 q 242 979 175 951 q 385 1007 310 1007 q 471 969 450 1007 q 492 878 492 932 q 485 816 492 860 q 467 713 478 772 q 445 588 457 653 q 423 463 433 524 q 406 357 413 403 q 399 290 399 311 q 416 210 399 239 q 474 181 433 181 q 551 210 507 181 q 639 298 594 239 q 715 446 683 357 q 686 621 686 532 q 720 810 686 722 q 822 952 754 897 q 992 1007 890 1007 q 1058 1001 1024 1007 q 1121 981 1092 996 q 1092 815 1108 906 q 1058 633 1075 725 q 1026 457 1040 540 q 1002 313 1011 374 q 993 228 993 253 q 1003 108 993 157 q 1035 26 1014 60 q 863 -36 951 -36 m 879 1064 q 786 1092 824 1064 q 749 1168 749 1119 q 776 1253 749 1219 q 845 1302 804 1286 q 922 1318 886 1318 q 1016 1290 979 1318 q 1053 1213 1053 1261 q 1028 1134 1053 1168 q 965 1082 1004 1100 q 879 1064 925 1064 m 461 1064 q 368 1092 406 1064 q 331 1168 331 1119 q 358 1253 331 1219 q 427 1302 386 1286 q 504 1318 468 1318 q 598 1290 561 1318 q 635 1213 635 1261 q 610 1134 635 1168 q 547 1082 586 1100 q 461 1064 507 1064 z "},"Ù":{"ha":1149,"x_min":90,"x_max":1121,"o":"m 863 -36 q 746 3 796 -36 q 696 131 696 43 q 696 148 696 139 q 697 167 696 157 l 683 171 q 314 -35 546 -35 q 144 28 197 -35 q 90 201 90 90 q 103 345 90 254 q 135 544 117 436 q 172 758 154 653 l 99 907 q 242 979 175 951 q 385 1007 310 1007 q 471 969 450 1007 q 492 878 492 932 q 485 816 492 860 q 467 713 478 772 q 445 588 457 653 q 423 463 433 524 q 406 357 413 403 q 399 290 399 311 q 416 210 399 239 q 474 181 433 181 q 551 210 507 181 q 639 298 594 239 q 715 446 683 357 q 686 621 686 532 q 720 810 686 722 q 822 952 754 897 q 992 1007 890 1007 q 1058 1001 1024 1007 q 1121 981 1092 996 q 1092 815 1108 906 q 1058 633 1075 725 q 1026 457 1040 540 q 1002 313 1011 374 q 993 228 993 253 q 1003 108 993 157 q 1035 26 1014 60 q 863 -36 951 -36 m 847 1046 q 761 1060 803 1046 q 678 1092 719 1074 q 594 1125 638 1111 q 504 1139 551 1139 q 488 1138 497 1139 q 472 1136 479 1138 q 462 1188 465 1161 q 458 1238 458 1214 q 482 1341 458 1313 q 536 1369 506 1369 q 628 1341 582 1369 q 722 1274 674 1313 q 820 1199 769 1235 q 925 1151 871 1164 q 898 1069 921 1093 q 847 1046 875 1046 z "},"Ű":{"ha":1149,"x_min":90,"x_max":1147,"o":"m 863 -36 q 746 3 796 -36 q 696 131 696 43 q 696 148 696 139 q 697 167 696 157 l 683 171 q 314 -35 546 -35 q 144 28 197 -35 q 90 201 90 90 q 103 345 90 254 q 135 544 117 436 q 172 758 154 653 l 99 907 q 242 979 175 951 q 385 1007 310 1007 q 471 969 450 1007 q 492 878 492 932 q 485 816 492 860 q 467 713 478 772 q 445 588 457 653 q 423 463 433 524 q 406 357 413 403 q 399 290 399 311 q 416 210 399 239 q 474 181 433 181 q 551 210 507 181 q 639 298 594 239 q 715 446 683 357 q 686 621 686 532 q 720 810 686 722 q 822 952 754 897 q 992 1007 890 1007 q 1058 1001 1024 1007 q 1121 981 1092 996 q 1092 815 1108 906 q 1058 633 1075 725 q 1026 457 1040 540 q 1002 313 1011 374 q 993 228 993 253 q 1003 108 993 157 q 1035 26 1014 60 q 863 -36 951 -36 m 803 1039 q 744 1064 772 1039 q 696 1149 717 1089 q 766 1191 735 1163 q 826 1253 797 1219 q 885 1319 856 1288 q 947 1372 914 1351 q 1022 1392 981 1392 q 1074 1380 1044 1392 q 1125 1329 1103 1368 q 1147 1208 1147 1290 q 1067 1183 1108 1208 q 981 1124 1025 1157 q 892 1065 938 1090 q 803 1039 847 1039 m 343 1039 q 285 1064 313 1039 q 236 1149 257 1089 q 306 1191 275 1163 q 367 1253 338 1219 q 425 1319 396 1288 q 488 1372 454 1351 q 563 1392 521 1392 q 614 1380 585 1392 q 665 1329 643 1368 q 688 1208 688 1290 q 607 1183 649 1208 q 522 1124 565 1157 q 433 1065 478 1090 q 343 1039 388 1039 z "},"Ū":{"ha":1149,"x_min":90,"x_max":1121,"o":"m 863 -36 q 746 3 796 -36 q 696 131 696 43 q 696 148 696 139 q 697 167 696 157 l 683 171 q 314 -35 546 -35 q 144 28 197 -35 q 90 201 90 90 q 103 345 90 254 q 135 544 117 436 q 172 758 154 653 l 99 907 q 242 979 175 951 q 385 1007 310 1007 q 471 969 450 1007 q 492 878 492 932 q 485 816 492 860 q 467 713 478 772 q 445 588 457 653 q 423 463 433 524 q 406 357 413 403 q 399 290 399 311 q 416 210 399 239 q 474 181 433 181 q 551 210 507 181 q 639 298 594 239 q 715 446 683 357 q 686 621 686 532 q 720 810 686 722 q 822 952 754 897 q 992 1007 890 1007 q 1058 1001 1024 1007 q 1121 981 1092 996 q 1092 815 1108 906 q 1058 633 1075 725 q 1026 457 1040 540 q 1002 313 1011 374 q 993 228 993 253 q 1003 108 993 157 q 1035 26 1014 60 q 863 -36 951 -36 m 479 1090 q 445 1106 460 1090 q 431 1164 431 1121 q 442 1241 431 1207 q 471 1311 453 1275 q 525 1298 492 1301 q 574 1294 558 1294 q 710 1299 640 1294 q 853 1303 781 1303 q 926 1281 900 1303 q 951 1204 951 1258 q 947 1155 951 1181 q 932 1104 943 1129 q 881 1119 915 1115 q 826 1124 847 1124 q 711 1115 772 1124 q 591 1099 650 1107 q 479 1090 532 1090 z "},"Ų":{"ha":1149,"x_min":90,"x_max":1121,"o":"m 863 -36 q 746 3 796 -36 q 696 131 696 43 q 696 148 696 139 q 697 167 696 157 l 683 171 q 314 -35 546 -35 q 144 28 197 -35 q 90 201 90 90 q 103 345 90 254 q 135 544 117 436 q 172 758 154 653 l 99 907 q 242 979 175 951 q 385 1007 310 1007 q 471 969 450 1007 q 492 878 492 932 q 485 816 492 860 q 467 713 478 772 q 445 588 457 653 q 423 463 433 524 q 406 357 413 403 q 399 290 399 311 q 416 210 399 239 q 474 181 433 181 q 551 210 507 181 q 639 298 594 239 q 715 446 683 357 q 686 621 686 532 q 720 810 686 722 q 822 952 754 897 q 992 1007 890 1007 q 1058 1001 1024 1007 q 1121 981 1092 996 q 1092 815 1108 906 q 1058 633 1075 725 q 1026 457 1040 540 q 1002 313 1011 374 q 993 228 993 253 q 1003 108 993 157 q 1035 26 1014 60 q 863 -36 951 -36 m 849 -396 q 694 -347 742 -396 q 646 -233 646 -299 q 685 -118 646 -174 q 789 -23 724 -62 q 933 31 854 17 l 1006 31 l 1006 8 q 865 -75 908 -25 q 822 -186 822 -125 q 844 -240 822 -221 q 896 -258 865 -258 q 954 -239 929 -258 q 993 -190 979 -219 q 1007 -132 1007 -161 q 1001 -97 1007 -112 q 1088 -144 1061 -112 q 1114 -212 1114 -175 q 1081 -298 1114 -256 q 988 -368 1047 -340 q 849 -396 929 -396 z "},"Ů":{"ha":1149,"x_min":90,"x_max":1121,"o":"m 863 -36 q 746 3 796 -36 q 696 131 696 43 q 696 148 696 139 q 697 167 696 157 l 683 171 q 314 -35 546 -35 q 144 28 197 -35 q 90 201 90 90 q 103 345 90 254 q 135 544 117 436 q 172 758 154 653 l 99 907 q 242 979 175 951 q 385 1007 310 1007 q 471 969 450 1007 q 492 878 492 932 q 485 816 492 860 q 467 713 478 772 q 445 588 457 653 q 423 463 433 524 q 406 357 413 403 q 399 290 399 311 q 416 210 399 239 q 474 181 433 181 q 551 210 507 181 q 639 298 594 239 q 715 446 683 357 q 686 621 686 532 q 720 810 686 722 q 822 952 754 897 q 992 1007 890 1007 q 1058 1001 1024 1007 q 1121 981 1092 996 q 1092 815 1108 906 q 1058 633 1075 725 q 1026 457 1040 540 q 1002 313 1011 374 q 993 228 993 253 q 1003 108 993 157 q 1035 26 1014 60 q 863 -36 951 -36 m 665 1017 q 501 1065 560 1017 q 443 1190 443 1114 q 478 1308 443 1258 q 574 1387 513 1358 q 717 1415 636 1415 q 881 1367 824 1415 q 939 1242 939 1319 q 904 1123 939 1174 q 808 1044 869 1072 q 665 1017 746 1017 m 668 1107 q 738 1149 708 1107 q 767 1243 767 1190 q 751 1299 767 1275 q 683 1322 736 1322 q 666 1322 674 1322 q 647 1319 658 1321 q 610 1258 622 1292 q 599 1196 599 1225 q 617 1133 599 1160 q 668 1107 636 1107 z "},"Ũ":{"ha":1149,"x_min":90,"x_max":1121,"o":"m 863 -36 q 746 3 796 -36 q 696 131 696 43 q 696 148 696 139 q 697 167 696 157 l 683 171 q 314 -35 546 -35 q 144 28 197 -35 q 90 201 90 90 q 103 345 90 254 q 135 544 117 436 q 172 758 154 653 l 99 907 q 242 979 175 951 q 385 1007 310 1007 q 471 969 450 1007 q 492 878 492 932 q 485 816 492 860 q 467 713 478 772 q 445 588 457 653 q 423 463 433 524 q 406 357 413 403 q 399 290 399 311 q 416 210 399 239 q 474 181 433 181 q 551 210 507 181 q 639 298 594 239 q 715 446 683 357 q 686 621 686 532 q 720 810 686 722 q 822 952 754 897 q 992 1007 890 1007 q 1058 1001 1024 1007 q 1121 981 1092 996 q 1092 815 1108 906 q 1058 633 1075 725 q 1026 457 1040 540 q 1002 313 1011 374 q 993 228 993 253 q 1003 108 993 157 q 1035 26 1014 60 q 863 -36 951 -36 m 497 1064 q 433 1083 458 1064 q 408 1151 408 1101 q 446 1297 408 1215 q 504 1276 475 1283 q 561 1269 533 1269 q 674 1290 621 1269 q 780 1331 728 1311 q 886 1351 832 1351 q 950 1333 925 1351 q 975 1264 975 1314 q 938 1118 975 1200 q 879 1140 908 1133 q 822 1146 850 1146 q 710 1126 764 1146 q 603 1085 656 1106 q 497 1064 551 1064 z "},"V":{"ha":1011,"x_min":0,"x_max":1025,"o":"m 422 -35 q 224 5 282 -35 q 165 135 165 44 q 166 280 165 221 q 167 390 167 339 q 161 550 167 469 q 139 704 156 631 q 89 838 122 778 q 0 935 56 897 q 217 1007 94 1007 q 351 958 301 1007 q 426 828 401 910 q 459 649 451 747 q 467 453 467 551 q 465 329 467 389 q 463 219 463 269 l 499 219 q 567 376 531 289 q 635 554 603 464 q 687 725 667 644 q 707 860 707 806 q 703 902 707 883 q 692 935 699 921 q 791 989 744 971 q 886 1007 838 1007 q 994 963 963 1007 q 1025 850 1025 919 q 1006 729 1025 799 q 955 582 986 660 q 889 427 924 504 q 822 282 854 350 q 768 164 789 214 l 788 88 q 690 28 749 56 q 562 -17 631 0 q 422 -35 493 -35 z "},"W":{"ha":1414,"x_min":0,"x_max":1428,"o":"m 422 -35 q 224 5 282 -35 q 165 135 165 44 q 166 280 165 221 q 167 390 167 339 q 161 550 167 469 q 139 704 156 631 q 89 838 122 778 q 0 935 56 897 q 217 1007 94 1007 q 351 958 301 1007 q 426 828 401 910 q 459 649 451 747 q 467 453 467 551 q 465 329 467 389 q 463 219 463 269 l 499 219 q 573 413 538 303 q 632 628 608 522 q 610 760 625 696 q 571 896 596 824 q 664 952 619 933 q 769 971 708 971 q 899 933 863 971 q 936 831 936 896 q 917 706 936 776 q 869 554 897 636 q 869 476 869 522 q 867 380 868 429 q 866 288 867 331 q 865 219 865 244 l 901 219 q 969 376 933 289 q 1038 554 1006 464 q 1090 725 1069 644 q 1110 860 1110 806 q 1106 902 1110 883 q 1094 935 1101 921 q 1194 989 1147 971 q 1289 1007 1240 1007 q 1397 963 1365 1007 q 1428 850 1428 919 q 1408 729 1428 799 q 1358 582 1389 660 q 1292 427 1326 504 q 1224 282 1257 350 q 1171 164 1192 214 l 1190 88 q 1063 -1 1136 32 q 883 -35 990 -35 q 741 -19 793 -35 q 665 31 689 -3 q 556 -16 615 3 q 422 -35 496 -35 z "},"Ẃ":{"ha":1414,"x_min":0,"x_max":1428,"o":"m 422 -35 q 224 5 282 -35 q 165 135 165 44 q 166 280 165 221 q 167 390 167 339 q 161 550 167 469 q 139 704 156 631 q 89 838 122 778 q 0 935 56 897 q 217 1007 94 1007 q 351 958 301 1007 q 426 828 401 910 q 459 649 451 747 q 467 453 467 551 q 465 329 467 389 q 463 219 463 269 l 499 219 q 573 413 538 303 q 632 628 608 522 q 610 760 625 696 q 571 896 596 824 q 664 952 619 933 q 769 971 708 971 q 899 933 863 971 q 936 831 936 896 q 917 706 936 776 q 869 554 897 636 q 869 476 869 522 q 867 380 868 429 q 866 288 867 331 q 865 219 865 244 l 901 219 q 969 376 933 289 q 1038 554 1006 464 q 1090 725 1069 644 q 1110 860 1110 806 q 1106 902 1110 883 q 1094 935 1101 921 q 1194 989 1147 971 q 1289 1007 1240 1007 q 1397 963 1365 1007 q 1428 850 1428 919 q 1408 729 1428 799 q 1358 582 1389 660 q 1292 427 1326 504 q 1224 282 1257 350 q 1171 164 1192 214 l 1190 88 q 1063 -1 1136 32 q 883 -35 990 -35 q 741 -19 793 -35 q 665 31 689 -3 q 556 -16 615 3 q 422 -35 496 -35 m 621 1046 q 570 1069 593 1046 q 543 1151 547 1093 q 648 1199 597 1164 q 747 1274 699 1235 q 840 1341 794 1313 q 932 1369 886 1369 q 987 1341 964 1369 q 1010 1238 1010 1313 q 1006 1188 1010 1214 q 996 1136 1003 1161 q 980 1138 989 1138 q 964 1139 971 1139 q 874 1125 917 1139 q 790 1092 831 1111 q 707 1060 749 1074 q 621 1046 665 1046 z "},"Ŵ":{"ha":1414,"x_min":0,"x_max":1428,"o":"m 422 -35 q 224 5 282 -35 q 165 135 165 44 q 166 280 165 221 q 167 390 167 339 q 161 550 167 469 q 139 704 156 631 q 89 838 122 778 q 0 935 56 897 q 217 1007 94 1007 q 351 958 301 1007 q 426 828 401 910 q 459 649 451 747 q 467 453 467 551 q 465 329 467 389 q 463 219 463 269 l 499 219 q 573 413 538 303 q 632 628 608 522 q 610 760 625 696 q 571 896 596 824 q 664 952 619 933 q 769 971 708 971 q 899 933 863 971 q 936 831 936 896 q 917 706 936 776 q 869 554 897 636 q 869 476 869 522 q 867 380 868 429 q 866 288 867 331 q 865 219 865 244 l 901 219 q 969 376 933 289 q 1038 554 1006 464 q 1090 725 1069 644 q 1110 860 1110 806 q 1106 902 1110 883 q 1094 935 1101 921 q 1194 989 1147 971 q 1289 1007 1240 1007 q 1397 963 1365 1007 q 1428 850 1428 919 q 1408 729 1428 799 q 1358 582 1389 660 q 1292 427 1326 504 q 1224 282 1257 350 q 1171 164 1192 214 l 1190 88 q 1063 -1 1136 32 q 883 -35 990 -35 q 741 -19 793 -35 q 665 31 689 -3 q 556 -16 615 3 q 422 -35 496 -35 m 567 1033 q 506 1041 524 1033 q 488 1060 488 1049 q 507 1114 488 1081 q 555 1185 526 1147 q 613 1256 583 1222 q 660 1310 642 1289 q 714 1327 676 1319 q 800 1340 751 1335 q 896 1344 849 1344 q 1010 1333 961 1344 q 1058 1293 1058 1321 q 1051 1206 1058 1244 q 1044 1122 1044 1168 q 1050 1079 1044 1099 q 1064 1044 1056 1060 q 1016 1036 1040 1039 q 965 1033 992 1033 q 858 1065 883 1033 q 832 1147 832 1097 q 835 1201 832 1172 q 842 1258 839 1229 l 806 1258 q 746 1157 769 1214 q 722 1050 722 1100 q 640 1037 679 1040 q 567 1033 601 1033 z "},"Ẅ":{"ha":1414,"x_min":0,"x_max":1428,"o":"m 422 -35 q 224 5 282 -35 q 165 135 165 44 q 166 280 165 221 q 167 390 167 339 q 161 550 167 469 q 139 704 156 631 q 89 838 122 778 q 0 935 56 897 q 217 1007 94 1007 q 351 958 301 1007 q 426 828 401 910 q 459 649 451 747 q 467 453 467 551 q 465 329 467 389 q 463 219 463 269 l 499 219 q 573 413 538 303 q 632 628 608 522 q 610 760 625 696 q 571 896 596 824 q 664 952 619 933 q 769 971 708 971 q 899 933 863 971 q 936 831 936 896 q 917 706 936 776 q 869 554 897 636 q 869 476 869 522 q 867 380 868 429 q 866 288 867 331 q 865 219 865 244 l 901 219 q 969 376 933 289 q 1038 554 1006 464 q 1090 725 1069 644 q 1110 860 1110 806 q 1106 902 1110 883 q 1094 935 1101 921 q 1194 989 1147 971 q 1289 1007 1240 1007 q 1397 963 1365 1007 q 1428 850 1428 919 q 1408 729 1428 799 q 1358 582 1389 660 q 1292 427 1326 504 q 1224 282 1257 350 q 1171 164 1192 214 l 1190 88 q 1063 -1 1136 32 q 883 -35 990 -35 q 741 -19 793 -35 q 665 31 689 -3 q 556 -16 615 3 q 422 -35 496 -35 m 964 1064 q 871 1092 908 1064 q 833 1168 833 1119 q 861 1253 833 1219 q 930 1302 889 1286 q 1007 1318 971 1318 q 1101 1290 1064 1318 q 1138 1213 1138 1261 q 1113 1134 1138 1168 q 1049 1082 1089 1100 q 964 1064 1010 1064 m 546 1064 q 453 1092 490 1064 q 415 1168 415 1119 q 443 1253 415 1219 q 512 1302 471 1286 q 589 1318 553 1318 q 683 1290 646 1318 q 719 1213 719 1261 q 695 1134 719 1168 q 631 1082 671 1100 q 546 1064 592 1064 z "},"Ẁ":{"ha":1414,"x_min":0,"x_max":1428,"o":"m 422 -35 q 224 5 282 -35 q 165 135 165 44 q 166 280 165 221 q 167 390 167 339 q 161 550 167 469 q 139 704 156 631 q 89 838 122 778 q 0 935 56 897 q 217 1007 94 1007 q 351 958 301 1007 q 426 828 401 910 q 459 649 451 747 q 467 453 467 551 q 465 329 467 389 q 463 219 463 269 l 499 219 q 573 413 538 303 q 632 628 608 522 q 610 760 625 696 q 571 896 596 824 q 664 952 619 933 q 769 971 708 971 q 899 933 863 971 q 936 831 936 896 q 917 706 936 776 q 869 554 897 636 q 869 476 869 522 q 867 380 868 429 q 866 288 867 331 q 865 219 865 244 l 901 219 q 969 376 933 289 q 1038 554 1006 464 q 1090 725 1069 644 q 1110 860 1110 806 q 1106 902 1110 883 q 1094 935 1101 921 q 1194 989 1147 971 q 1289 1007 1240 1007 q 1397 963 1365 1007 q 1428 850 1428 919 q 1408 729 1428 799 q 1358 582 1389 660 q 1292 427 1326 504 q 1224 282 1257 350 q 1171 164 1192 214 l 1190 88 q 1063 -1 1136 32 q 883 -35 990 -35 q 741 -19 793 -35 q 665 31 689 -3 q 556 -16 615 3 q 422 -35 496 -35 m 932 1046 q 846 1060 888 1046 q 763 1092 804 1074 q 679 1125 722 1111 q 589 1139 636 1139 q 573 1138 582 1139 q 557 1136 564 1138 q 547 1188 550 1161 q 543 1238 543 1214 q 567 1341 543 1313 q 621 1369 590 1369 q 713 1341 667 1369 q 806 1274 758 1313 q 905 1199 854 1235 q 1010 1151 956 1164 q 983 1069 1006 1093 q 932 1046 960 1046 z "},"X":{"ha":1040,"x_min":14,"x_max":1047,"o":"m 158 -35 q 47 6 79 -35 q 14 96 14 46 q 94 278 14 178 q 346 504 175 379 l 222 738 q 157 837 196 788 q 53 908 118 886 q 167 985 106 963 q 276 1007 228 1007 q 383 986 340 1007 q 466 913 426 965 q 556 764 506 860 l 613 656 q 683 756 657 706 q 710 858 710 807 q 706 901 710 882 q 696 935 703 919 q 903 1007 803 1007 q 1014 967 981 1007 q 1047 876 1047 926 q 969 690 1047 792 q 717 460 890 588 l 838 235 q 903 135 864 185 q 1007 64 942 86 q 894 -12 956 10 q 783 -35 832 -35 q 677 -14 721 -35 q 594 60 633 7 q 504 208 556 114 l 446 317 q 377 215 403 265 q 351 114 351 164 q 364 38 351 69 q 158 -35 258 -35 z "},"Y":{"ha":933,"x_min":-14,"x_max":947,"o":"m 214 -246 q 142 -239 181 -246 q 68 -214 103 -232 q 11 -164 33 -196 q -11 -81 -11 -132 q 6 2 -11 -44 q 57 96 22 49 q 140 26 89 50 q 247 3 192 3 q 367 35 311 3 q 447 135 424 68 q 379 121 404 125 q 322 117 354 117 q 215 147 254 117 q 169 250 175 176 q 163 394 165 317 q 152 553 160 472 q 126 708 144 633 q 75 844 108 783 q -14 942 42 904 q 84 991 42 975 q 174 1007 126 1007 q 301 972 250 1007 q 383 876 351 936 q 430 742 414 817 q 453 586 446 667 q 462 429 460 506 q 467 290 464 353 l 486 290 q 537 425 511 350 q 583 578 563 500 q 617 728 604 657 q 631 851 631 800 q 624 903 631 882 q 610 942 618 925 q 803 1007 714 1007 q 913 962 879 1007 q 947 846 947 917 q 931 733 947 804 q 885 571 914 661 q 817 384 856 481 q 738 197 779 288 q 596 -49 668 50 q 433 -197 524 -147 q 214 -246 342 -246 z "},"Ý":{"ha":933,"x_min":-14,"x_max":947,"o":"m 214 -246 q 142 -239 181 -246 q 68 -214 103 -232 q 11 -164 33 -196 q -11 -81 -11 -132 q 6 2 -11 -44 q 57 96 22 49 q 140 26 89 50 q 247 3 192 3 q 367 35 311 3 q 447 135 424 68 q 379 121 404 125 q 322 117 354 117 q 215 147 254 117 q 169 250 175 176 q 163 394 165 317 q 152 553 160 472 q 126 708 144 633 q 75 844 108 783 q -14 942 42 904 q 84 991 42 975 q 174 1007 126 1007 q 301 972 250 1007 q 383 876 351 936 q 430 742 414 817 q 453 586 446 667 q 462 429 460 506 q 467 290 464 353 l 486 290 q 537 425 511 350 q 583 578 563 500 q 617 728 604 657 q 631 851 631 800 q 624 903 631 882 q 610 942 618 925 q 803 1007 714 1007 q 913 962 879 1007 q 947 846 947 917 q 931 733 947 804 q 885 571 914 661 q 817 384 856 481 q 738 197 779 288 q 596 -49 668 50 q 433 -197 524 -147 q 214 -246 342 -246 m 353 1046 q 302 1069 325 1046 q 275 1151 279 1093 q 380 1199 329 1164 q 478 1274 431 1235 q 572 1341 526 1313 q 664 1369 618 1369 q 719 1341 696 1369 q 742 1238 742 1313 q 738 1188 742 1214 q 728 1136 735 1161 q 712 1138 721 1138 q 696 1139 703 1139 q 606 1125 649 1139 q 522 1092 563 1111 q 439 1060 481 1074 q 353 1046 397 1046 z "},"Ŷ":{"ha":933,"x_min":-14,"x_max":947,"o":"m 214 -246 q 142 -239 181 -246 q 68 -214 103 -232 q 11 -164 33 -196 q -11 -81 -11 -132 q 6 2 -11 -44 q 57 96 22 49 q 140 26 89 50 q 247 3 192 3 q 367 35 311 3 q 447 135 424 68 q 379 121 404 125 q 322 117 354 117 q 215 147 254 117 q 169 250 175 176 q 163 394 165 317 q 152 553 160 472 q 126 708 144 633 q 75 844 108 783 q -14 942 42 904 q 84 991 42 975 q 174 1007 126 1007 q 301 972 250 1007 q 383 876 351 936 q 430 742 414 817 q 453 586 446 667 q 462 429 460 506 q 467 290 464 353 l 486 290 q 537 425 511 350 q 583 578 563 500 q 617 728 604 657 q 631 851 631 800 q 624 903 631 882 q 610 942 618 925 q 803 1007 714 1007 q 913 962 879 1007 q 947 846 947 917 q 931 733 947 804 q 885 571 914 661 q 817 384 856 481 q 738 197 779 288 q 596 -49 668 50 q 433 -197 524 -147 q 214 -246 342 -246 m 299 1033 q 238 1041 256 1033 q 219 1060 219 1049 q 239 1114 219 1081 q 287 1185 258 1147 q 344 1256 315 1222 q 392 1310 374 1289 q 446 1327 408 1319 q 532 1340 483 1335 q 628 1344 581 1344 q 742 1333 693 1344 q 790 1293 790 1321 q 783 1206 790 1244 q 776 1122 776 1168 q 782 1079 776 1099 q 796 1044 788 1060 q 748 1036 772 1039 q 697 1033 724 1033 q 590 1065 615 1033 q 564 1147 564 1097 q 567 1201 564 1172 q 574 1258 571 1229 l 538 1258 q 478 1157 501 1214 q 454 1050 454 1100 q 372 1037 411 1040 q 299 1033 333 1033 z "},"Ÿ":{"ha":933,"x_min":-14,"x_max":947,"o":"m 214 -246 q 142 -239 181 -246 q 68 -214 103 -232 q 11 -164 33 -196 q -11 -81 -11 -132 q 6 2 -11 -44 q 57 96 22 49 q 140 26 89 50 q 247 3 192 3 q 367 35 311 3 q 447 135 424 68 q 379 121 404 125 q 322 117 354 117 q 215 147 254 117 q 169 250 175 176 q 163 394 165 317 q 152 553 160 472 q 126 708 144 633 q 75 844 108 783 q -14 942 42 904 q 84 991 42 975 q 174 1007 126 1007 q 301 972 250 1007 q 383 876 351 936 q 430 742 414 817 q 453 586 446 667 q 462 429 460 506 q 467 290 464 353 l 486 290 q 537 425 511 350 q 583 578 563 500 q 617 728 604 657 q 631 851 631 800 q 624 903 631 882 q 610 942 618 925 q 803 1007 714 1007 q 913 962 879 1007 q 947 846 947 917 q 931 733 947 804 q 885 571 914 661 q 817 384 856 481 q 738 197 779 288 q 596 -49 668 50 q 433 -197 524 -147 q 214 -246 342 -246 m 696 1064 q 603 1092 640 1064 q 565 1168 565 1119 q 593 1253 565 1219 q 662 1302 621 1286 q 739 1318 703 1318 q 833 1290 796 1318 q 869 1213 869 1261 q 845 1134 869 1168 q 781 1082 821 1100 q 696 1064 742 1064 m 278 1064 q 185 1092 222 1064 q 147 1168 147 1119 q 175 1253 147 1219 q 244 1302 203 1286 q 321 1318 285 1318 q 415 1290 378 1318 q 451 1213 451 1261 q 427 1134 451 1168 q 363 1082 403 1100 q 278 1064 324 1064 z "},"Ỳ":{"ha":933,"x_min":-14,"x_max":947,"o":"m 214 -246 q 142 -239 181 -246 q 68 -214 103 -232 q 11 -164 33 -196 q -11 -81 -11 -132 q 6 2 -11 -44 q 57 96 22 49 q 140 26 89 50 q 247 3 192 3 q 367 35 311 3 q 447 135 424 68 q 379 121 404 125 q 322 117 354 117 q 215 147 254 117 q 169 250 175 176 q 163 394 165 317 q 152 553 160 472 q 126 708 144 633 q 75 844 108 783 q -14 942 42 904 q 84 991 42 975 q 174 1007 126 1007 q 301 972 250 1007 q 383 876 351 936 q 430 742 414 817 q 453 586 446 667 q 462 429 460 506 q 467 290 464 353 l 486 290 q 537 425 511 350 q 583 578 563 500 q 617 728 604 657 q 631 851 631 800 q 624 903 631 882 q 610 942 618 925 q 803 1007 714 1007 q 913 962 879 1007 q 947 846 947 917 q 931 733 947 804 q 885 571 914 661 q 817 384 856 481 q 738 197 779 288 q 596 -49 668 50 q 433 -197 524 -147 q 214 -246 342 -246 m 664 1046 q 578 1060 619 1046 q 495 1092 536 1074 q 411 1125 454 1111 q 321 1139 368 1139 q 305 1138 314 1139 q 289 1136 296 1138 q 278 1188 282 1161 q 275 1238 275 1214 q 299 1341 275 1313 q 353 1369 322 1369 q 444 1341 399 1369 q 538 1274 490 1313 q 637 1199 586 1235 q 742 1151 688 1164 q 715 1069 738 1093 q 664 1046 692 1046 z "},"Z":{"ha":936,"x_min":-28,"x_max":936,"o":"m 667 -35 q 490 -10 581 -35 q 306 75 400 15 q 210 -4 258 19 q 121 -28 161 -28 q 13 10 54 -28 q -28 114 -28 49 q -6 201 -28 158 q 62 273 17 244 q 174 301 107 301 l 440 657 q 264 683 342 660 q 141 756 186 707 q 96 883 96 804 q 99 937 96 907 q 110 1001 103 967 q 242 962 165 979 q 399 932 319 944 q 544 913 479 919 q 642 907 610 907 q 713 983 672 960 q 797 1006 753 1006 q 901 963 867 1006 q 936 864 936 921 q 904 776 936 813 q 819 715 872 739 l 464 271 l 708 244 l 876 321 q 885 266 883 293 q 888 211 888 239 q 858 71 888 125 q 778 -9 828 17 q 667 -35 728 -35 z "},"Ź":{"ha":936,"x_min":-28,"x_max":936,"o":"m 667 -35 q 490 -10 581 -35 q 306 75 400 15 q 210 -4 258 19 q 121 -28 161 -28 q 13 10 54 -28 q -28 114 -28 49 q -6 201 -28 158 q 62 273 17 244 q 174 301 107 301 l 440 657 q 264 683 342 660 q 141 756 186 707 q 96 883 96 804 q 99 937 96 907 q 110 1001 103 967 q 242 962 165 979 q 399 932 319 944 q 544 913 479 919 q 642 907 610 907 q 713 983 672 960 q 797 1006 753 1006 q 901 963 867 1006 q 936 864 936 921 q 904 776 936 813 q 819 715 872 739 l 464 271 l 708 244 l 876 321 q 885 266 883 293 q 888 211 888 239 q 858 71 888 125 q 778 -9 828 17 q 667 -35 728 -35 m 371 1046 q 320 1069 343 1046 q 293 1151 297 1093 q 398 1199 347 1164 q 497 1274 449 1235 q 590 1341 544 1313 q 682 1369 636 1369 q 737 1341 714 1369 q 760 1238 760 1313 q 756 1188 760 1214 q 746 1136 753 1161 q 730 1138 739 1138 q 714 1139 721 1139 q 624 1125 667 1139 q 540 1092 581 1111 q 457 1060 499 1074 q 371 1046 415 1046 z "},"Ž":{"ha":936,"x_min":-28,"x_max":936,"o":"m 667 -35 q 490 -10 581 -35 q 306 75 400 15 q 210 -4 258 19 q 121 -28 161 -28 q 13 10 54 -28 q -28 114 -28 49 q -6 201 -28 158 q 62 273 17 244 q 174 301 107 301 l 440 657 q 264 683 342 660 q 141 756 186 707 q 96 883 96 804 q 99 937 96 907 q 110 1001 103 967 q 242 962 165 979 q 399 932 319 944 q 544 913 479 919 q 642 907 610 907 q 713 983 672 960 q 797 1006 753 1006 q 901 963 867 1006 q 936 864 936 921 q 904 776 936 813 q 819 715 872 739 l 464 271 l 708 244 l 876 321 q 885 266 883 293 q 888 211 888 239 q 858 71 888 125 q 778 -9 828 17 q 667 -35 728 -35 m 521 1028 q 403 1046 453 1028 q 354 1107 354 1064 l 354 1222 q 342 1279 354 1258 q 311 1313 329 1300 q 372 1331 338 1324 q 442 1339 407 1339 q 523 1317 492 1339 q 554 1235 554 1294 q 549 1178 554 1211 q 539 1114 544 1146 l 581 1114 q 621 1180 604 1138 q 638 1265 638 1222 q 637 1289 638 1276 q 635 1314 636 1301 q 696 1332 663 1325 q 768 1339 729 1339 q 851 1324 828 1339 q 875 1285 875 1308 q 858 1231 875 1261 q 817 1171 842 1201 q 768 1113 793 1140 q 725 1065 743 1085 q 634 1038 690 1049 q 521 1028 578 1028 z "},"Ż":{"ha":936,"x_min":-28,"x_max":936,"o":"m 667 -35 q 490 -10 581 -35 q 306 75 400 15 q 210 -4 258 19 q 121 -28 161 -28 q 13 10 54 -28 q -28 114 -28 49 q -6 201 -28 158 q 62 273 17 244 q 174 301 107 301 l 440 657 q 264 683 342 660 q 141 756 186 707 q 96 883 96 804 q 99 937 96 907 q 110 1001 103 967 q 242 962 165 979 q 399 932 319 944 q 544 913 479 919 q 642 907 610 907 q 713 983 672 960 q 797 1006 753 1006 q 901 963 867 1006 q 936 864 936 921 q 904 776 936 813 q 819 715 872 739 l 464 271 l 708 244 l 876 321 q 885 266 883 293 q 888 211 888 239 q 858 71 888 125 q 778 -9 828 17 q 667 -35 728 -35 m 500 1039 q 384 1076 426 1039 q 342 1171 342 1113 q 402 1312 342 1258 q 553 1365 463 1365 q 669 1328 626 1365 q 711 1232 711 1292 q 651 1092 711 1146 q 500 1039 590 1039 z "},"a":{"ha":1022,"x_min":56,"x_max":960,"o":"m 315 -35 q 178 6 238 -35 q 88 119 119 46 q 56 292 56 193 q 97 506 56 407 q 210 678 138 604 q 382 792 283 751 q 596 833 481 833 q 653 831 629 833 q 706 822 678 829 q 715 754 714 783 q 786 787 747 775 q 858 799 825 799 q 960 689 960 799 q 947 591 960 653 q 916 455 933 529 q 885 303 899 381 q 872 160 872 226 q 915 33 872 69 q 750 -35 838 -35 q 631 15 669 -35 q 593 171 593 65 l 579 178 q 472 22 542 78 q 315 -35 401 -35 m 425 218 q 531 257 479 218 q 617 364 582 296 q 628 466 622 418 q 645 568 635 514 q 671 696 656 622 q 537 669 600 696 q 424 594 474 642 q 345 487 374 547 q 317 360 317 426 q 345 255 317 292 q 425 218 374 218 z "},"á":{"ha":1022,"x_min":56,"x_max":960,"o":"m 315 -35 q 178 6 238 -35 q 88 119 119 46 q 56 292 56 193 q 97 506 56 407 q 210 678 138 604 q 382 792 283 751 q 596 833 481 833 q 653 831 629 833 q 706 822 678 829 q 715 754 714 783 q 786 787 747 775 q 858 799 825 799 q 960 689 960 799 q 947 591 960 653 q 916 455 933 529 q 885 303 899 381 q 872 160 872 226 q 915 33 872 69 q 750 -35 838 -35 q 631 15 669 -35 q 593 171 593 65 l 579 178 q 472 22 542 78 q 315 -35 401 -35 m 425 218 q 531 257 479 218 q 617 364 582 296 q 628 466 622 418 q 645 568 635 514 q 671 696 656 622 q 537 669 600 696 q 424 594 474 642 q 345 487 374 547 q 317 360 317 426 q 345 255 317 292 q 425 218 374 218 m 453 907 q 402 931 425 907 q 375 1013 379 954 q 480 1060 429 1025 q 578 1135 531 1096 q 672 1202 626 1174 q 764 1231 718 1231 q 819 1202 796 1231 q 842 1099 842 1174 q 838 1049 842 1075 q 828 997 835 1022 q 812 999 821 999 q 796 1000 803 1000 q 706 986 749 1000 q 622 953 663 972 q 539 921 581 935 q 453 907 497 907 z "},"ă":{"ha":1022,"x_min":56,"x_max":960,"o":"m 315 -35 q 178 6 238 -35 q 88 119 119 46 q 56 292 56 193 q 97 506 56 407 q 210 678 138 604 q 382 792 283 751 q 596 833 481 833 q 653 831 629 833 q 706 822 678 829 q 715 754 714 783 q 786 787 747 775 q 858 799 825 799 q 960 689 960 799 q 947 591 960 653 q 916 455 933 529 q 885 303 899 381 q 872 160 872 226 q 915 33 872 69 q 750 -35 838 -35 q 631 15 669 -35 q 593 171 593 65 l 579 178 q 472 22 542 78 q 315 -35 401 -35 m 425 218 q 531 257 479 218 q 617 364 582 296 q 628 466 622 418 q 645 568 635 514 q 671 696 656 622 q 537 669 600 696 q 424 594 474 642 q 345 487 374 547 q 317 360 317 426 q 345 255 317 292 q 425 218 374 218 m 544 919 q 408 959 461 919 q 356 1088 356 999 q 358 1138 356 1113 q 369 1192 361 1163 q 468 1124 413 1142 q 594 1106 524 1106 q 733 1136 664 1106 q 854 1219 803 1167 q 859 1185 857 1201 q 861 1153 861 1168 q 832 1047 861 1090 q 756 974 803 1003 q 653 933 708 946 q 544 919 597 919 z "},"â":{"ha":1022,"x_min":56,"x_max":960,"o":"m 315 -35 q 178 6 238 -35 q 88 119 119 46 q 56 292 56 193 q 97 506 56 407 q 210 678 138 604 q 382 792 283 751 q 596 833 481 833 q 653 831 629 833 q 706 822 678 829 q 715 754 714 783 q 786 787 747 775 q 858 799 825 799 q 960 689 960 799 q 947 591 960 653 q 916 455 933 529 q 885 303 899 381 q 872 160 872 226 q 915 33 872 69 q 750 -35 838 -35 q 631 15 669 -35 q 593 171 593 65 l 579 178 q 472 22 542 78 q 315 -35 401 -35 m 425 218 q 531 257 479 218 q 617 364 582 296 q 628 466 622 418 q 645 568 635 514 q 671 696 656 622 q 537 669 600 696 q 424 594 474 642 q 345 487 374 547 q 317 360 317 426 q 345 255 317 292 q 425 218 374 218 m 399 894 q 338 902 356 894 q 319 921 319 910 q 339 975 319 942 q 387 1046 358 1008 q 444 1117 415 1083 q 492 1171 474 1150 q 546 1188 508 1181 q 632 1201 583 1196 q 728 1206 681 1206 q 842 1194 793 1206 q 890 1154 890 1182 q 883 1067 890 1106 q 876 983 876 1029 q 882 940 876 960 q 896 906 888 921 q 848 897 872 900 q 797 894 824 894 q 690 926 715 894 q 664 1008 664 958 q 667 1062 664 1033 q 674 1119 671 1090 l 638 1119 q 578 1018 601 1075 q 554 911 554 961 q 472 898 511 901 q 399 894 433 894 z "},"ä":{"ha":1022,"x_min":56,"x_max":969,"o":"m 315 -35 q 178 6 238 -35 q 88 119 119 46 q 56 292 56 193 q 97 506 56 407 q 210 678 138 604 q 382 792 283 751 q 596 833 481 833 q 653 831 629 833 q 706 822 678 829 q 715 754 714 783 q 786 787 747 775 q 858 799 825 799 q 960 689 960 799 q 947 591 960 653 q 916 455 933 529 q 885 303 899 381 q 872 160 872 226 q 915 33 872 69 q 750 -35 838 -35 q 631 15 669 -35 q 593 171 593 65 l 579 178 q 472 22 542 78 q 315 -35 401 -35 m 425 218 q 531 257 479 218 q 617 364 582 296 q 628 466 622 418 q 645 568 635 514 q 671 696 656 622 q 537 669 600 696 q 424 594 474 642 q 345 487 374 547 q 317 360 317 426 q 345 255 317 292 q 425 218 374 218 m 796 925 q 703 953 740 925 q 665 1029 665 981 q 693 1114 665 1081 q 762 1163 721 1147 q 839 1179 803 1179 q 933 1151 896 1179 q 969 1074 969 1122 q 945 995 969 1029 q 881 943 921 961 q 796 925 842 925 m 378 925 q 285 953 322 925 q 247 1029 247 981 q 275 1114 247 1081 q 344 1163 303 1147 q 421 1179 385 1179 q 515 1151 478 1179 q 551 1074 551 1122 q 527 995 551 1029 q 463 943 503 961 q 378 925 424 925 z "},"à":{"ha":1022,"x_min":56,"x_max":960,"o":"m 315 -35 q 178 6 238 -35 q 88 119 119 46 q 56 292 56 193 q 97 506 56 407 q 210 678 138 604 q 382 792 283 751 q 596 833 481 833 q 653 831 629 833 q 706 822 678 829 q 715 754 714 783 q 786 787 747 775 q 858 799 825 799 q 960 689 960 799 q 947 591 960 653 q 916 455 933 529 q 885 303 899 381 q 872 160 872 226 q 915 33 872 69 q 750 -35 838 -35 q 631 15 669 -35 q 593 171 593 65 l 579 178 q 472 22 542 78 q 315 -35 401 -35 m 425 218 q 531 257 479 218 q 617 364 582 296 q 628 466 622 418 q 645 568 635 514 q 671 696 656 622 q 537 669 600 696 q 424 594 474 642 q 345 487 374 547 q 317 360 317 426 q 345 255 317 292 q 425 218 374 218 m 764 907 q 678 921 719 907 q 595 953 636 935 q 511 986 554 972 q 421 1000 468 1000 q 405 999 414 1000 q 389 997 396 999 q 378 1049 382 1022 q 375 1099 375 1075 q 399 1202 375 1174 q 453 1231 422 1231 q 544 1202 499 1231 q 638 1135 590 1174 q 737 1060 686 1096 q 842 1013 788 1025 q 815 931 838 954 q 764 907 792 907 z "},"ā":{"ha":1022,"x_min":56,"x_max":960,"o":"m 315 -35 q 178 6 238 -35 q 88 119 119 46 q 56 292 56 193 q 97 506 56 407 q 210 678 138 604 q 382 792 283 751 q 596 833 481 833 q 653 831 629 833 q 706 822 678 829 q 715 754 714 783 q 786 787 747 775 q 858 799 825 799 q 960 689 960 799 q 947 591 960 653 q 916 455 933 529 q 885 303 899 381 q 872 160 872 226 q 915 33 872 69 q 750 -35 838 -35 q 631 15 669 -35 q 593 171 593 65 l 579 178 q 472 22 542 78 q 315 -35 401 -35 m 425 218 q 531 257 479 218 q 617 364 582 296 q 628 466 622 418 q 645 568 635 514 q 671 696 656 622 q 537 669 600 696 q 424 594 474 642 q 345 487 374 547 q 317 360 317 426 q 345 255 317 292 q 425 218 374 218 m 396 951 q 362 967 376 951 q 347 1025 347 982 q 358 1102 347 1068 q 388 1172 369 1136 q 442 1159 408 1163 q 490 1156 475 1156 q 627 1160 557 1156 q 769 1164 697 1164 q 842 1142 817 1164 q 868 1065 868 1119 q 864 1016 868 1042 q 849 965 860 990 q 798 981 832 976 q 743 985 764 985 q 628 976 689 985 q 508 960 567 968 q 396 951 449 951 z "},"ą":{"ha":1022,"x_min":56,"x_max":989,"o":"m 315 -35 q 178 6 238 -35 q 88 119 119 46 q 56 292 56 193 q 97 506 56 407 q 210 678 138 604 q 382 792 283 751 q 596 833 481 833 q 653 831 629 833 q 706 822 678 829 q 715 754 714 783 q 786 787 747 775 q 858 799 825 799 q 960 689 960 799 q 947 591 960 653 q 916 455 933 529 q 885 303 899 381 q 872 160 872 226 q 915 33 872 69 q 750 -35 838 -35 q 631 15 669 -35 q 593 171 593 65 l 579 178 q 472 22 542 78 q 315 -35 401 -35 m 425 218 q 531 257 479 218 q 617 364 582 296 q 628 466 622 418 q 645 568 635 514 q 671 696 656 622 q 537 669 600 696 q 424 594 474 642 q 345 487 374 547 q 317 360 317 426 q 345 255 317 292 q 425 218 374 218 m 724 -397 q 569 -349 617 -397 q 521 -235 521 -300 q 560 -119 521 -175 q 664 -24 599 -64 q 808 29 729 15 l 881 29 l 881 7 q 740 -76 783 -26 q 697 -187 697 -126 q 719 -241 697 -222 q 771 -260 740 -260 q 829 -240 804 -260 q 868 -192 854 -221 q 882 -133 882 -162 q 876 -99 882 -114 q 963 -145 936 -114 q 989 -214 989 -176 q 956 -299 989 -257 q 863 -369 922 -342 q 724 -397 804 -397 z "},"å":{"ha":1022,"x_min":56,"x_max":960,"o":"m 315 -35 q 178 6 238 -35 q 88 119 119 46 q 56 292 56 193 q 97 506 56 407 q 210 678 138 604 q 382 792 283 751 q 596 833 481 833 q 653 831 629 833 q 706 822 678 829 q 715 754 714 783 q 786 787 747 775 q 858 799 825 799 q 960 689 960 799 q 947 591 960 653 q 916 455 933 529 q 885 303 899 381 q 872 160 872 226 q 915 33 872 69 q 750 -35 838 -35 q 631 15 669 -35 q 593 171 593 65 l 579 178 q 472 22 542 78 q 315 -35 401 -35 m 425 218 q 531 257 479 218 q 617 364 582 296 q 628 466 622 418 q 645 568 635 514 q 671 696 656 622 q 537 669 600 696 q 424 594 474 642 q 345 487 374 547 q 317 360 317 426 q 345 255 317 292 q 425 218 374 218 m 582 878 q 418 926 476 878 q 360 1051 360 975 q 394 1169 360 1119 q 491 1248 429 1219 q 633 1276 553 1276 q 798 1228 740 1276 q 856 1103 856 1181 q 821 984 856 1035 q 724 906 786 933 q 582 878 663 878 m 585 968 q 654 1010 625 968 q 683 1104 683 1051 q 668 1160 683 1136 q 600 1183 653 1183 q 583 1183 590 1183 q 564 1181 575 1182 q 527 1119 539 1153 q 515 1057 515 1086 q 534 994 515 1021 q 585 968 553 968 z "},"ǻ":{"ha":1022,"x_min":56,"x_max":1032,"o":"m 626 878 q 463 926 521 878 q 404 1051 404 975 q 439 1169 404 1119 q 535 1248 474 1219 q 678 1276 597 1276 q 691 1276 685 1276 q 703 1275 697 1276 q 793 1341 750 1306 q 878 1403 836 1376 q 963 1429 921 1429 q 1011 1404 990 1429 q 1032 1311 1032 1379 q 1029 1266 1032 1289 q 1019 1219 1026 1243 q 1006 1222 1014 1221 q 992 1222 999 1222 q 930 1215 960 1222 q 872 1196 900 1207 q 900 1103 900 1156 q 865 984 900 1035 q 769 906 831 933 q 626 878 707 878 m 629 968 q 699 1010 669 968 q 728 1104 728 1051 q 713 1160 728 1136 q 644 1183 697 1183 q 627 1183 635 1183 q 608 1181 619 1182 q 572 1119 583 1153 q 560 1057 560 1086 q 578 994 560 1021 q 629 968 597 968 m 315 -35 q 178 6 238 -35 q 88 119 119 46 q 56 292 56 193 q 97 506 56 407 q 210 678 138 604 q 382 792 283 751 q 596 833 481 833 q 653 831 629 833 q 706 822 678 829 q 715 754 714 783 q 786 787 747 775 q 858 799 825 799 q 960 689 960 799 q 947 591 960 653 q 916 455 933 529 q 885 303 899 381 q 872 160 872 226 q 915 33 872 69 q 750 -35 838 -35 q 631 15 669 -35 q 593 171 593 65 l 579 178 q 472 22 542 78 q 315 -35 401 -35 m 425 218 q 531 257 479 218 q 617 364 582 296 q 628 466 622 418 q 645 568 635 514 q 671 696 656 622 q 537 669 600 696 q 424 594 474 642 q 345 487 374 547 q 317 360 317 426 q 345 255 317 292 q 425 218 374 218 z "},"ã":{"ha":1022,"x_min":56,"x_max":960,"o":"m 315 -35 q 178 6 238 -35 q 88 119 119 46 q 56 292 56 193 q 97 506 56 407 q 210 678 138 604 q 382 792 283 751 q 596 833 481 833 q 653 831 629 833 q 706 822 678 829 q 715 754 714 783 q 786 787 747 775 q 858 799 825 799 q 960 689 960 799 q 947 591 960 653 q 916 455 933 529 q 885 303 899 381 q 872 160 872 226 q 915 33 872 69 q 750 -35 838 -35 q 631 15 669 -35 q 593 171 593 65 l 579 178 q 472 22 542 78 q 315 -35 401 -35 m 425 218 q 531 257 479 218 q 617 364 582 296 q 628 466 622 418 q 645 568 635 514 q 671 696 656 622 q 537 669 600 696 q 424 594 474 642 q 345 487 374 547 q 317 360 317 426 q 345 255 317 292 q 425 218 374 218 m 414 925 q 350 944 375 925 q 325 1013 325 963 q 363 1158 325 1076 q 421 1138 392 1144 q 478 1131 450 1131 q 591 1151 538 1131 q 697 1192 644 1172 q 803 1213 749 1213 q 867 1194 842 1213 q 892 1125 892 1175 q 854 979 892 1061 q 796 1001 825 994 q 739 1007 767 1007 q 626 987 681 1007 q 520 946 572 967 q 414 925 468 925 z "},"æ":{"ha":1374,"x_min":56,"x_max":1325,"o":"m 315 -35 q 178 6 238 -35 q 88 119 119 46 q 56 292 56 193 q 97 506 56 407 q 210 678 138 604 q 382 792 283 751 q 596 833 481 833 q 653 831 629 833 q 706 822 678 829 q 713 769 710 801 q 718 722 717 738 q 884 808 799 783 q 1063 833 969 833 q 1261 774 1197 833 q 1325 624 1325 714 q 1274 477 1325 546 q 1111 366 1224 408 q 811 322 999 324 q 852 183 815 233 q 944 132 889 132 q 1003 145 972 132 q 1054 192 1033 158 q 1075 286 1075 226 q 1224 265 1169 286 q 1278 190 1278 244 q 1235 88 1278 140 q 1112 1 1192 36 q 921 -35 1032 -35 q 710 13 794 -35 q 586 157 625 61 l 571 157 q 465 16 532 67 q 315 -35 397 -35 m 824 433 q 986 471 925 442 q 1075 538 1047 500 q 1103 607 1103 575 q 1085 653 1103 635 q 1039 671 1068 671 q 946 636 989 671 q 872 547 903 601 q 824 433 840 492 m 408 218 q 497 257 454 218 q 569 364 540 296 q 588 490 576 422 q 624 667 600 557 q 470 627 540 667 q 358 518 400 588 q 317 360 317 449 q 341 255 317 292 q 408 218 365 218 z "},"ǽ":{"ha":1374,"x_min":56,"x_max":1325,"o":"m 315 -35 q 178 6 238 -35 q 88 119 119 46 q 56 292 56 193 q 97 506 56 407 q 210 678 138 604 q 382 792 283 751 q 596 833 481 833 q 653 831 629 833 q 706 822 678 829 q 713 769 710 801 q 718 722 717 738 q 884 808 799 783 q 1063 833 969 833 q 1261 774 1197 833 q 1325 624 1325 714 q 1274 477 1325 546 q 1111 366 1224 408 q 811 322 999 324 q 852 183 815 233 q 944 132 889 132 q 1003 145 972 132 q 1054 192 1033 158 q 1075 286 1075 226 q 1224 265 1169 286 q 1278 190 1278 244 q 1235 88 1278 140 q 1112 1 1192 36 q 921 -35 1032 -35 q 710 13 794 -35 q 586 157 625 61 l 571 157 q 465 16 532 67 q 315 -35 397 -35 m 824 433 q 986 471 925 442 q 1075 538 1047 500 q 1103 607 1103 575 q 1085 653 1103 635 q 1039 671 1068 671 q 946 636 989 671 q 872 547 903 601 q 824 433 840 492 m 408 218 q 497 257 454 218 q 569 364 540 296 q 588 490 576 422 q 624 667 600 557 q 470 627 540 667 q 358 518 400 588 q 317 360 317 449 q 341 255 317 292 q 408 218 365 218 m 629 907 q 578 931 601 907 q 551 1013 556 954 q 656 1060 606 1025 q 755 1135 707 1096 q 849 1202 803 1174 q 940 1231 894 1231 q 995 1202 972 1231 q 1018 1099 1018 1174 q 1015 1049 1018 1075 q 1004 997 1011 1022 q 988 999 997 999 q 972 1000 979 1000 q 882 986 925 1000 q 798 953 839 972 q 715 921 757 935 q 629 907 674 907 z "},"b":{"ha":1026,"x_min":92,"x_max":964,"o":"m 404 -35 q 170 37 249 -35 q 92 264 92 108 q 104 399 92 308 q 137 610 117 489 q 182 864 157 731 l 104 975 q 240 1047 176 1018 q 367 1076 303 1076 q 454 1053 426 1076 q 482 978 482 1031 q 474 884 482 942 q 453 760 465 826 q 428 629 442 693 l 442 622 q 563 771 492 721 q 733 821 635 821 q 860 777 808 821 q 938 660 911 733 q 964 500 964 588 q 913 268 964 368 q 777 101 861 168 q 595 -1 693 33 q 404 -35 497 -35 m 367 126 q 513 156 449 126 q 622 236 576 186 q 690 347 667 286 q 714 468 714 407 q 700 542 714 506 q 660 601 686 578 q 601 625 635 625 q 512 596 550 625 q 448 519 474 567 q 406 413 422 471 q 381 299 390 356 q 369 197 372 243 q 367 126 367 151 z "},"c":{"ha":886,"x_min":63,"x_max":858,"o":"m 456 -35 q 247 12 335 -35 q 110 140 158 58 q 63 331 63 222 q 103 535 63 443 q 217 694 143 628 q 388 797 290 761 q 600 833 486 833 q 791 787 724 833 q 858 671 858 740 q 810 569 858 604 q 701 535 763 535 q 614 563 660 535 q 540 649 568 590 q 437 572 479 624 q 373 456 394 519 q 351 332 351 393 q 386 191 351 250 q 489 132 421 132 q 575 169 536 132 q 614 286 614 206 q 763 265 708 286 q 817 190 817 244 q 772 88 817 140 q 647 1 728 36 q 456 -35 567 -35 z "},"ć":{"ha":886,"x_min":63,"x_max":858,"o":"m 456 -35 q 247 12 335 -35 q 110 140 158 58 q 63 331 63 222 q 103 535 63 443 q 217 694 143 628 q 388 797 290 761 q 600 833 486 833 q 791 787 724 833 q 858 671 858 740 q 810 569 858 604 q 701 535 763 535 q 614 563 660 535 q 540 649 568 590 q 437 572 479 624 q 373 456 394 519 q 351 332 351 393 q 386 191 351 250 q 489 132 421 132 q 575 169 536 132 q 614 286 614 206 q 763 265 708 286 q 817 190 817 244 q 772 88 817 140 q 647 1 728 36 q 456 -35 567 -35 m 385 907 q 334 931 357 907 q 307 1013 311 954 q 412 1060 361 1025 q 510 1135 463 1096 q 604 1202 558 1174 q 696 1231 650 1231 q 751 1202 728 1231 q 774 1099 774 1174 q 770 1049 774 1075 q 760 997 767 1022 q 744 999 753 999 q 728 1000 735 1000 q 638 986 681 1000 q 553 953 594 972 q 471 921 513 935 q 385 907 429 907 z "},"č":{"ha":886,"x_min":63,"x_max":858,"o":"m 456 -35 q 247 12 335 -35 q 110 140 158 58 q 63 331 63 222 q 103 535 63 443 q 217 694 143 628 q 388 797 290 761 q 600 833 486 833 q 791 787 724 833 q 858 671 858 740 q 810 569 858 604 q 701 535 763 535 q 614 563 660 535 q 540 649 568 590 q 437 572 479 624 q 373 456 394 519 q 351 332 351 393 q 386 191 351 250 q 489 132 421 132 q 575 169 536 132 q 614 286 614 206 q 763 265 708 286 q 817 190 817 244 q 772 88 817 140 q 647 1 728 36 q 456 -35 567 -35 m 468 881 q 351 899 400 881 q 301 960 301 917 l 301 1075 q 289 1132 301 1111 q 258 1165 276 1153 q 319 1184 285 1176 q 389 1192 354 1192 q 470 1169 439 1192 q 501 1088 501 1147 q 497 1031 501 1064 q 486 967 492 999 l 528 967 q 568 1033 551 990 q 585 1118 585 1075 q 584 1142 585 1129 q 582 1167 583 1154 q 643 1185 610 1178 q 715 1192 676 1192 q 799 1176 775 1192 q 822 1138 822 1161 q 806 1084 822 1114 q 765 1024 789 1054 q 715 965 740 993 q 672 918 690 938 q 581 891 638 901 q 468 881 525 881 z "},"ç":{"ha":886,"x_min":54,"x_max":858,"o":"m 456 -35 q 247 12 335 -35 q 110 140 158 58 q 63 331 63 222 q 103 535 63 443 q 217 694 143 628 q 388 797 290 761 q 600 833 486 833 q 791 787 724 833 q 858 671 858 740 q 810 569 858 604 q 701 535 763 535 q 614 563 660 535 q 540 649 568 590 q 437 572 479 624 q 373 456 394 519 q 351 332 351 393 q 386 191 351 250 q 489 132 421 132 q 575 169 536 132 q 614 286 614 206 q 763 265 708 286 q 817 190 817 244 q 772 88 817 140 q 647 1 728 36 q 456 -35 567 -35 m 263 -399 q 139 -375 185 -399 q 74 -317 93 -351 q 54 -250 54 -283 q 78 -167 54 -204 q 144 -106 101 -129 q 240 -83 186 -83 q 212 -126 222 -99 q 201 -181 201 -153 q 223 -242 201 -222 q 272 -261 244 -261 q 347 -228 311 -261 q 383 -135 383 -194 q 353 -47 383 -90 q 260 24 324 -3 l 260 39 l 313 39 q 449 12 396 39 q 528 -60 503 -15 q 554 -154 554 -104 q 520 -269 554 -212 q 422 -362 486 -325 q 263 -399 357 -399 z "},"ĉ":{"ha":886,"x_min":63,"x_max":858,"o":"m 456 -35 q 247 12 335 -35 q 110 140 158 58 q 63 331 63 222 q 103 535 63 443 q 217 694 143 628 q 388 797 290 761 q 600 833 486 833 q 791 787 724 833 q 858 671 858 740 q 810 569 858 604 q 701 535 763 535 q 614 563 660 535 q 540 649 568 590 q 437 572 479 624 q 373 456 394 519 q 351 332 351 393 q 386 191 351 250 q 489 132 421 132 q 575 169 536 132 q 614 286 614 206 q 763 265 708 286 q 817 190 817 244 q 772 88 817 140 q 647 1 728 36 q 456 -35 567 -35 m 331 894 q 269 902 288 894 q 251 921 251 910 q 271 975 251 942 q 319 1046 290 1008 q 376 1117 347 1083 q 424 1171 406 1150 q 478 1188 440 1181 q 564 1201 515 1196 q 660 1206 613 1206 q 774 1194 725 1206 q 822 1154 822 1182 q 815 1067 822 1106 q 808 983 808 1029 q 814 940 808 960 q 828 906 819 921 q 780 897 804 900 q 729 894 756 894 q 622 926 647 894 q 596 1008 596 958 q 599 1062 596 1033 q 606 1119 603 1090 l 569 1119 q 510 1018 533 1075 q 486 911 486 961 q 404 898 443 901 q 331 894 365 894 z "},"ċ":{"ha":886,"x_min":63,"x_max":858,"o":"m 456 -35 q 247 12 335 -35 q 110 140 158 58 q 63 331 63 222 q 103 535 63 443 q 217 694 143 628 q 388 797 290 761 q 600 833 486 833 q 791 787 724 833 q 858 671 858 740 q 810 569 858 604 q 701 535 763 535 q 614 563 660 535 q 540 649 568 590 q 437 572 479 624 q 373 456 394 519 q 351 332 351 393 q 386 191 351 250 q 489 132 421 132 q 575 169 536 132 q 614 286 614 206 q 763 265 708 286 q 817 190 817 244 q 772 88 817 140 q 647 1 728 36 q 456 -35 567 -35 m 514 900 q 398 937 440 900 q 356 1032 356 974 q 416 1173 356 1119 q 567 1226 476 1226 q 683 1190 640 1226 q 725 1093 725 1153 q 665 953 725 1007 q 514 900 604 900 z "},"d":{"ha":1039,"x_min":63,"x_max":1004,"o":"m 328 -35 q 197 3 257 -35 q 99 115 136 42 q 63 292 63 188 q 95 467 63 378 q 194 632 128 557 q 363 753 261 707 q 603 799 464 799 q 647 797 625 799 q 692 793 668 796 q 698 828 693 803 q 704 864 703 854 l 626 975 q 767 1047 700 1018 q 900 1076 833 1076 q 981 1053 958 1076 q 1004 978 1004 1031 q 992 856 1004 929 q 961 698 979 783 q 924 522 943 613 q 893 349 906 432 q 881 197 881 265 q 891 92 881 132 q 924 33 901 53 q 758 -35 846 -35 q 665 -12 699 -35 q 615 42 631 10 q 600 101 600 74 l 586 108 q 463 0 531 35 q 328 -35 394 -35 m 467 174 q 540 192 503 174 q 611 249 578 210 q 636 462 621 351 q 674 676 651 572 q 523 647 589 676 q 413 567 457 617 q 347 460 369 518 q 324 344 324 401 q 366 218 324 263 q 467 174 408 174 z "},"ð":{"ha":936,"x_min":42,"x_max":950,"o":"m 390 -35 q 195 15 272 -35 q 80 143 118 64 q 42 313 42 222 q 70 469 42 392 q 154 610 99 546 q 292 712 210 674 q 481 750 374 750 q 526 747 504 750 q 571 740 549 744 q 479 867 539 814 q 324 976 419 919 q 422 1040 361 1011 q 546 1068 483 1068 q 647 1037 603 1068 q 722 953 690 1006 q 794 993 758 976 q 865 1010 829 1010 q 924 990 899 1010 q 950 919 950 969 q 943 873 950 899 q 921 817 936 847 q 899 819 907 819 q 883 819 890 819 q 836 815 861 819 q 788 801 811 810 q 827 609 815 708 q 839 432 839 510 q 800 228 839 315 q 696 82 761 140 q 551 -6 631 24 q 390 -35 471 -35 m 425 154 q 513 185 469 154 q 587 275 557 215 q 617 422 617 335 q 584 533 617 497 q 507 569 551 569 q 419 538 464 569 q 343 449 374 507 q 313 306 313 390 q 346 191 313 228 q 425 154 379 154 z "},"ď":{"ha":1039,"x_min":63,"x_max":1378,"o":"m 328 -35 q 197 3 257 -35 q 99 115 136 42 q 63 292 63 188 q 95 467 63 378 q 194 632 128 557 q 363 753 261 707 q 603 799 464 799 q 647 797 625 799 q 692 793 668 796 q 698 828 693 803 q 704 864 703 854 l 626 975 q 767 1047 700 1018 q 900 1076 833 1076 q 981 1053 958 1076 q 1004 978 1004 1031 q 992 856 1004 929 q 961 698 979 783 q 924 522 943 613 q 893 349 906 432 q 881 197 881 265 q 891 92 881 132 q 924 33 901 53 q 758 -35 846 -35 q 665 -12 699 -35 q 615 42 631 10 q 600 101 600 74 l 586 108 q 463 0 531 35 q 328 -35 394 -35 m 467 174 q 540 192 503 174 q 611 249 578 210 q 636 462 621 351 q 674 676 651 572 q 523 647 589 676 q 413 567 457 617 q 347 460 369 518 q 324 344 324 401 q 366 218 324 263 q 467 174 408 174 m 1171 904 l 1083 1017 q 1108 1091 1086 1057 q 1167 1146 1131 1125 q 1244 1167 1203 1167 q 1343 1123 1308 1167 q 1378 1022 1378 1079 q 1339 863 1378 938 q 1228 735 1300 788 q 1057 661 1156 682 l 1039 717 q 1110 769 1081 736 q 1155 838 1139 801 q 1171 904 1171 874 z "},"đ":{"ha":1039,"x_min":63,"x_max":1164,"o":"m 328 -35 q 197 3 257 -35 q 99 115 136 42 q 63 292 63 188 q 94 450 63 369 q 191 598 126 531 q 356 707 256 665 q 592 749 456 749 q 635 747 614 749 q 681 743 657 746 l 703 844 q 635 828 669 835 q 565 821 601 821 q 511 838 532 821 q 490 899 490 854 q 503 958 490 925 q 539 1021 517 992 q 608 1005 572 1010 q 678 1000 644 1000 q 738 1006 707 1000 l 742 1028 l 664 1139 q 804 1211 738 1182 q 938 1240 871 1240 q 1019 1217 996 1240 q 1042 1142 1042 1194 q 1039 1085 1042 1117 q 1049 1085 1043 1085 q 1131 1065 1097 1085 q 1164 997 1164 1046 q 1117 885 1164 943 q 1063 903 1090 897 q 1008 913 1036 910 q 969 733 992 828 q 927 543 947 639 q 894 358 907 447 q 881 197 881 269 q 891 92 881 132 q 924 33 901 53 q 758 -35 846 -35 q 665 -12 699 -35 q 615 42 631 10 q 600 101 600 74 l 586 108 q 463 0 531 35 q 328 -35 394 -35 m 467 174 q 540 192 503 174 q 611 249 578 210 q 631 437 618 339 q 663 626 644 535 q 477 583 553 626 q 363 474 401 539 q 324 344 324 410 q 366 218 324 263 q 467 174 408 174 z "},"e":{"ha":913,"x_min":63,"x_max":864,"o":"m 460 -35 q 242 11 331 -35 q 108 140 153 57 q 63 331 63 222 q 103 535 63 443 q 218 694 144 628 q 390 797 292 761 q 601 833 488 833 q 800 774 736 833 q 864 624 864 714 q 813 477 864 546 q 650 366 763 408 q 350 322 538 324 q 391 183 354 233 q 483 132 428 132 q 542 145 511 132 q 593 192 572 158 q 614 286 614 226 q 763 265 708 286 q 817 190 817 244 q 774 88 817 140 q 651 1 731 36 q 460 -35 571 -35 m 363 433 q 525 471 464 442 q 614 538 586 500 q 642 607 642 575 q 625 653 642 635 q 578 671 608 671 q 485 636 528 671 q 410 547 442 601 q 363 433 379 492 z "},"é":{"ha":913,"x_min":63,"x_max":864,"o":"m 460 -35 q 242 11 331 -35 q 108 140 153 57 q 63 331 63 222 q 103 535 63 443 q 218 694 144 628 q 390 797 292 761 q 601 833 488 833 q 800 774 736 833 q 864 624 864 714 q 813 477 864 546 q 650 366 763 408 q 350 322 538 324 q 391 183 354 233 q 483 132 428 132 q 542 145 511 132 q 593 192 572 158 q 614 286 614 226 q 763 265 708 286 q 817 190 817 244 q 774 88 817 140 q 651 1 731 36 q 460 -35 571 -35 m 363 433 q 525 471 464 442 q 614 538 586 500 q 642 607 642 575 q 625 653 642 635 q 578 671 608 671 q 485 636 528 671 q 410 547 442 601 q 363 433 379 492 m 399 907 q 348 931 371 907 q 321 1013 325 954 q 426 1060 375 1025 q 524 1135 476 1096 q 618 1202 572 1174 q 710 1231 664 1231 q 765 1202 742 1231 q 788 1099 788 1174 q 784 1049 788 1075 q 774 997 781 1022 q 758 999 767 999 q 742 1000 749 1000 q 651 986 694 1000 q 567 953 608 972 q 485 921 526 935 q 399 907 443 907 z "},"ĕ":{"ha":913,"x_min":63,"x_max":864,"o":"m 460 -35 q 242 11 331 -35 q 108 140 153 57 q 63 331 63 222 q 103 535 63 443 q 218 694 144 628 q 390 797 292 761 q 601 833 488 833 q 800 774 736 833 q 864 624 864 714 q 813 477 864 546 q 650 366 763 408 q 350 322 538 324 q 391 183 354 233 q 483 132 428 132 q 542 145 511 132 q 593 192 572 158 q 614 286 614 226 q 763 265 708 286 q 817 190 817 244 q 774 88 817 140 q 651 1 731 36 q 460 -35 571 -35 m 363 433 q 525 471 464 442 q 614 538 586 500 q 642 607 642 575 q 625 653 642 635 q 578 671 608 671 q 485 636 528 671 q 410 547 442 601 q 363 433 379 492 m 490 919 q 354 959 407 919 q 301 1088 301 999 q 304 1138 301 1113 q 315 1192 307 1163 q 414 1124 358 1142 q 540 1106 469 1106 q 679 1136 610 1106 q 800 1219 749 1167 q 805 1185 803 1201 q 807 1153 807 1168 q 778 1047 807 1090 q 701 974 749 1003 q 599 933 654 946 q 490 919 543 919 z "},"ě":{"ha":913,"x_min":63,"x_max":864,"o":"m 460 -35 q 242 11 331 -35 q 108 140 153 57 q 63 331 63 222 q 103 535 63 443 q 218 694 144 628 q 390 797 292 761 q 601 833 488 833 q 800 774 736 833 q 864 624 864 714 q 813 477 864 546 q 650 366 763 408 q 350 322 538 324 q 391 183 354 233 q 483 132 428 132 q 542 145 511 132 q 593 192 572 158 q 614 286 614 226 q 763 265 708 286 q 817 190 817 244 q 774 88 817 140 q 651 1 731 36 q 460 -35 571 -35 m 363 433 q 525 471 464 442 q 614 538 586 500 q 642 607 642 575 q 625 653 642 635 q 578 671 608 671 q 485 636 528 671 q 410 547 442 601 q 363 433 379 492 m 482 881 q 365 899 414 881 q 315 960 315 917 l 315 1075 q 303 1132 315 1111 q 272 1165 290 1153 q 333 1184 299 1176 q 403 1192 368 1192 q 484 1169 453 1192 q 515 1088 515 1147 q 510 1031 515 1064 q 500 967 506 999 l 542 967 q 582 1033 565 990 q 599 1118 599 1075 q 598 1142 599 1129 q 596 1167 597 1154 q 657 1185 624 1178 q 729 1192 690 1192 q 813 1176 789 1192 q 836 1138 836 1161 q 819 1084 836 1114 q 778 1024 803 1054 q 729 965 754 993 q 686 918 704 938 q 595 891 651 901 q 482 881 539 881 z "},"ê":{"ha":913,"x_min":63,"x_max":864,"o":"m 460 -35 q 242 11 331 -35 q 108 140 153 57 q 63 331 63 222 q 103 535 63 443 q 218 694 144 628 q 390 797 292 761 q 601 833 488 833 q 800 774 736 833 q 864 624 864 714 q 813 477 864 546 q 650 366 763 408 q 350 322 538 324 q 391 183 354 233 q 483 132 428 132 q 542 145 511 132 q 593 192 572 158 q 614 286 614 226 q 763 265 708 286 q 817 190 817 244 q 774 88 817 140 q 651 1 731 36 q 460 -35 571 -35 m 363 433 q 525 471 464 442 q 614 538 586 500 q 642 607 642 575 q 625 653 642 635 q 578 671 608 671 q 485 636 528 671 q 410 547 442 601 q 363 433 379 492 m 344 894 q 283 902 301 894 q 265 921 265 910 q 285 975 265 942 q 333 1046 304 1008 q 390 1117 361 1083 q 438 1171 419 1150 q 492 1188 454 1181 q 578 1201 529 1196 q 674 1206 626 1206 q 788 1194 739 1206 q 836 1154 836 1182 q 829 1067 836 1106 q 822 983 822 1029 q 828 940 822 960 q 842 906 833 921 q 794 897 818 900 q 743 894 769 894 q 635 926 661 894 q 610 1008 610 958 q 613 1062 610 1033 q 619 1119 617 1090 l 583 1119 q 524 1018 547 1075 q 500 911 500 961 q 418 898 457 901 q 344 894 379 894 z "},"ë":{"ha":913,"x_min":63,"x_max":915,"o":"m 460 -35 q 242 11 331 -35 q 108 140 153 57 q 63 331 63 222 q 103 535 63 443 q 218 694 144 628 q 390 797 292 761 q 601 833 488 833 q 800 774 736 833 q 864 624 864 714 q 813 477 864 546 q 650 366 763 408 q 350 322 538 324 q 391 183 354 233 q 483 132 428 132 q 542 145 511 132 q 593 192 572 158 q 614 286 614 226 q 763 265 708 286 q 817 190 817 244 q 774 88 817 140 q 651 1 731 36 q 460 -35 571 -35 m 363 433 q 525 471 464 442 q 614 538 586 500 q 642 607 642 575 q 625 653 642 635 q 578 671 608 671 q 485 636 528 671 q 410 547 442 601 q 363 433 379 492 m 742 925 q 649 953 686 925 q 611 1029 611 981 q 639 1114 611 1081 q 708 1163 667 1147 q 785 1179 749 1179 q 878 1151 842 1179 q 915 1074 915 1122 q 891 995 915 1029 q 827 943 867 961 q 742 925 788 925 m 324 925 q 231 953 268 925 q 193 1029 193 981 q 221 1114 193 1081 q 290 1163 249 1147 q 367 1179 331 1179 q 460 1151 424 1179 q 497 1074 497 1122 q 473 995 497 1029 q 409 943 449 961 q 324 925 369 925 z "},"ė":{"ha":913,"x_min":63,"x_max":864,"o":"m 460 -35 q 242 11 331 -35 q 108 140 153 57 q 63 331 63 222 q 103 535 63 443 q 218 694 144 628 q 390 797 292 761 q 601 833 488 833 q 800 774 736 833 q 864 624 864 714 q 813 477 864 546 q 650 366 763 408 q 350 322 538 324 q 391 183 354 233 q 483 132 428 132 q 542 145 511 132 q 593 192 572 158 q 614 286 614 226 q 763 265 708 286 q 817 190 817 244 q 774 88 817 140 q 651 1 731 36 q 460 -35 571 -35 m 363 433 q 525 471 464 442 q 614 538 586 500 q 642 607 642 575 q 625 653 642 635 q 578 671 608 671 q 485 636 528 671 q 410 547 442 601 q 363 433 379 492 m 528 900 q 412 937 454 900 q 369 1032 369 974 q 430 1173 369 1119 q 581 1226 490 1226 q 697 1190 654 1226 q 739 1093 739 1153 q 678 953 739 1007 q 528 900 618 900 z "},"è":{"ha":913,"x_min":63,"x_max":864,"o":"m 460 -35 q 242 11 331 -35 q 108 140 153 57 q 63 331 63 222 q 103 535 63 443 q 218 694 144 628 q 390 797 292 761 q 601 833 488 833 q 800 774 736 833 q 864 624 864 714 q 813 477 864 546 q 650 366 763 408 q 350 322 538 324 q 391 183 354 233 q 483 132 428 132 q 542 145 511 132 q 593 192 572 158 q 614 286 614 226 q 763 265 708 286 q 817 190 817 244 q 774 88 817 140 q 651 1 731 36 q 460 -35 571 -35 m 363 433 q 525 471 464 442 q 614 538 586 500 q 642 607 642 575 q 625 653 642 635 q 578 671 608 671 q 485 636 528 671 q 410 547 442 601 q 363 433 379 492 m 710 907 q 624 921 665 907 q 541 953 582 935 q 457 986 500 972 q 367 1000 414 1000 q 351 999 360 1000 q 335 997 342 999 q 324 1049 328 1022 q 321 1099 321 1075 q 344 1202 321 1174 q 399 1231 368 1231 q 490 1202 444 1231 q 584 1135 536 1174 q 683 1060 632 1096 q 788 1013 733 1025 q 760 931 783 954 q 710 907 738 907 z "},"ē":{"ha":913,"x_min":63,"x_max":864,"o":"m 460 -35 q 242 11 331 -35 q 108 140 153 57 q 63 331 63 222 q 103 535 63 443 q 218 694 144 628 q 390 797 292 761 q 601 833 488 833 q 800 774 736 833 q 864 624 864 714 q 813 477 864 546 q 650 366 763 408 q 350 322 538 324 q 391 183 354 233 q 483 132 428 132 q 542 145 511 132 q 593 192 572 158 q 614 286 614 226 q 763 265 708 286 q 817 190 817 244 q 774 88 817 140 q 651 1 731 36 q 460 -35 571 -35 m 363 433 q 525 471 464 442 q 614 538 586 500 q 642 607 642 575 q 625 653 642 635 q 578 671 608 671 q 485 636 528 671 q 410 547 442 601 q 363 433 379 492 m 342 951 q 308 967 322 951 q 293 1025 293 982 q 304 1102 293 1068 q 333 1172 315 1136 q 388 1159 354 1163 q 436 1156 421 1156 q 573 1160 503 1156 q 715 1164 643 1164 q 788 1142 763 1164 q 814 1065 814 1119 q 810 1016 814 1042 q 794 965 806 990 q 744 981 778 976 q 689 985 710 985 q 574 976 635 985 q 453 960 513 968 q 342 951 394 951 z "},"ę":{"ha":913,"x_min":63,"x_max":864,"o":"m 460 -35 q 242 11 331 -35 q 108 140 153 57 q 63 331 63 222 q 103 535 63 443 q 218 694 144 628 q 390 797 292 761 q 601 833 488 833 q 800 774 736 833 q 864 624 864 714 q 813 477 864 546 q 650 366 763 408 q 350 322 538 324 q 391 183 354 233 q 483 132 428 132 q 542 145 511 132 q 593 192 572 158 q 614 286 614 226 q 763 265 708 286 q 817 190 817 244 q 774 88 817 140 q 651 1 731 36 q 460 -35 571 -35 m 363 433 q 525 471 464 442 q 614 538 586 500 q 642 607 642 575 q 625 653 642 635 q 578 671 608 671 q 485 636 528 671 q 410 547 442 601 q 363 433 379 492 m 510 -396 q 355 -347 403 -396 q 307 -233 307 -299 q 346 -118 307 -174 q 450 -23 385 -62 q 594 31 515 17 l 667 31 l 667 8 q 526 -75 569 -25 q 483 -186 483 -125 q 505 -240 483 -221 q 557 -258 526 -258 q 615 -239 590 -258 q 654 -190 640 -219 q 668 -132 668 -161 q 663 -97 668 -112 q 749 -144 722 -112 q 775 -212 775 -175 q 742 -298 775 -256 q 649 -368 708 -340 q 510 -396 590 -396 z "},"f":{"ha":600,"x_min":67,"x_max":663,"o":"m 243 -292 q 152 -263 186 -292 q 103 -188 118 -235 q 88 -86 88 -142 q 99 28 88 -51 q 129 219 110 107 q 174 464 149 331 q 124 453 149 458 q 76 440 100 447 q 69 475 71 457 q 67 503 67 493 q 106 606 67 574 q 200 640 146 639 q 192 688 194 664 q 190 735 190 711 q 209 872 190 806 q 265 992 228 939 q 360 1077 303 1046 q 493 1108 417 1108 q 586 1085 549 1108 q 643 1026 624 1063 q 663 951 663 990 q 622 848 663 894 q 499 801 581 801 q 383 835 438 801 l 364 819 l 413 654 q 560 692 485 664 q 569 626 569 661 q 545 537 569 576 q 469 486 521 497 q 442 353 457 431 q 413 192 428 276 q 390 32 399 108 q 381 -97 381 -44 q 391 -172 381 -139 q 424 -224 401 -204 q 243 -292 322 -292 z "},"g":{"ha":1013,"x_min":69,"x_max":943,"o":"m 319 -326 q 203 -308 256 -326 q 119 -256 150 -290 q 88 -172 88 -221 q 101 -106 88 -142 q 144 -29 114 -69 q 223 -99 176 -75 q 336 -124 269 -124 q 438 -94 386 -124 q 529 -3 489 -65 q 586 157 569 58 l 572 164 q 453 53 521 88 q 319 19 385 19 q 185 61 242 19 q 99 177 129 103 q 69 350 69 251 q 100 517 69 432 q 194 674 131 603 q 358 790 258 746 q 596 833 457 833 q 649 831 624 833 q 706 822 675 829 q 711 791 708 808 q 715 754 714 774 q 783 788 749 778 q 847 799 817 799 q 921 773 899 799 q 943 694 943 747 q 931 500 943 608 q 890 276 918 392 q 816 54 863 161 q 701 -139 769 -53 q 538 -276 632 -225 q 319 -326 443 -326 m 469 231 q 542 249 504 231 q 611 306 579 267 q 643 499 628 396 q 672 696 658 601 q 489 653 565 696 q 372 540 413 610 q 332 389 332 469 q 373 274 332 317 q 469 231 414 231 z "},"ğ":{"ha":1013,"x_min":69,"x_max":943,"o":"m 319 -326 q 203 -308 256 -326 q 119 -256 150 -290 q 88 -172 88 -221 q 101 -106 88 -142 q 144 -29 114 -69 q 223 -99 176 -75 q 336 -124 269 -124 q 438 -94 386 -124 q 529 -3 489 -65 q 586 157 569 58 l 572 164 q 453 53 521 88 q 319 19 385 19 q 185 61 242 19 q 99 177 129 103 q 69 350 69 251 q 100 517 69 432 q 194 674 131 603 q 358 790 258 746 q 596 833 457 833 q 649 831 624 833 q 706 822 675 829 q 711 791 708 808 q 715 754 714 774 q 783 788 749 778 q 847 799 817 799 q 921 773 899 799 q 943 694 943 747 q 931 500 943 608 q 890 276 918 392 q 816 54 863 161 q 701 -139 769 -53 q 538 -276 632 -225 q 319 -326 443 -326 m 469 231 q 542 249 504 231 q 611 306 579 267 q 643 499 628 396 q 672 696 658 601 q 489 653 565 696 q 372 540 413 610 q 332 389 332 469 q 373 274 332 317 q 469 231 414 231 m 531 919 q 394 959 447 919 q 342 1088 342 999 q 344 1138 342 1113 q 356 1192 347 1163 q 454 1124 399 1142 q 581 1106 510 1106 q 719 1136 650 1106 q 840 1219 789 1167 q 845 1185 843 1201 q 847 1153 847 1168 q 818 1047 847 1090 q 742 974 789 1003 q 639 933 694 946 q 531 919 583 919 z "},"ĝ":{"ha":1013,"x_min":69,"x_max":943,"o":"m 319 -326 q 203 -308 256 -326 q 119 -256 150 -290 q 88 -172 88 -221 q 101 -106 88 -142 q 144 -29 114 -69 q 223 -99 176 -75 q 336 -124 269 -124 q 438 -94 386 -124 q 529 -3 489 -65 q 586 157 569 58 l 572 164 q 453 53 521 88 q 319 19 385 19 q 185 61 242 19 q 99 177 129 103 q 69 350 69 251 q 100 517 69 432 q 194 674 131 603 q 358 790 258 746 q 596 833 457 833 q 649 831 624 833 q 706 822 675 829 q 711 791 708 808 q 715 754 714 774 q 783 788 749 778 q 847 799 817 799 q 921 773 899 799 q 943 694 943 747 q 931 500 943 608 q 890 276 918 392 q 816 54 863 161 q 701 -139 769 -53 q 538 -276 632 -225 q 319 -326 443 -326 m 469 231 q 542 249 504 231 q 611 306 579 267 q 643 499 628 396 q 672 696 658 601 q 489 653 565 696 q 372 540 413 610 q 332 389 332 469 q 373 274 332 317 q 469 231 414 231 m 385 894 q 324 902 342 894 q 306 921 306 910 q 325 975 306 942 q 373 1046 344 1008 q 431 1117 401 1083 q 478 1171 460 1150 q 532 1188 494 1181 q 618 1201 569 1196 q 714 1206 667 1206 q 828 1194 779 1206 q 876 1154 876 1182 q 869 1067 876 1106 q 863 983 863 1029 q 868 940 863 960 q 882 906 874 921 q 834 897 858 900 q 783 894 810 894 q 676 926 701 894 q 650 1008 650 958 q 653 1062 650 1033 q 660 1119 657 1090 l 624 1119 q 564 1018 588 1075 q 540 911 540 961 q 458 898 497 901 q 385 894 419 894 z "},"ģ":{"ha":1013,"x_min":69,"x_max":943,"o":"m 319 -326 q 203 -308 256 -326 q 119 -256 150 -290 q 88 -172 88 -221 q 101 -106 88 -142 q 144 -29 114 -69 q 223 -99 176 -75 q 336 -124 269 -124 q 438 -94 386 -124 q 529 -3 489 -65 q 586 157 569 58 l 572 164 q 453 53 521 88 q 319 19 385 19 q 185 61 242 19 q 99 177 129 103 q 69 350 69 251 q 100 517 69 432 q 194 674 131 603 q 358 790 258 746 q 596 833 457 833 q 649 831 624 833 q 706 822 675 829 q 711 791 708 808 q 715 754 714 774 q 783 788 749 778 q 847 799 817 799 q 921 773 899 799 q 943 694 943 747 q 931 500 943 608 q 890 276 918 392 q 816 54 863 161 q 701 -139 769 -53 q 538 -276 632 -225 q 319 -326 443 -326 m 469 231 q 542 249 504 231 q 611 306 579 267 q 643 499 628 396 q 672 696 658 601 q 489 653 565 696 q 372 540 413 610 q 332 389 332 469 q 373 274 332 317 q 469 231 414 231 m 553 900 q 454 944 489 900 q 419 1044 419 989 q 458 1205 419 1131 q 569 1332 497 1279 q 740 1406 642 1385 l 758 1350 q 688 1298 718 1331 q 642 1229 658 1265 q 626 1163 626 1193 l 714 1050 q 690 976 713 1011 q 631 921 667 942 q 553 900 596 900 z "},"ġ":{"ha":1013,"x_min":69,"x_max":943,"o":"m 319 -326 q 203 -308 256 -326 q 119 -256 150 -290 q 88 -172 88 -221 q 101 -106 88 -142 q 144 -29 114 -69 q 223 -99 176 -75 q 336 -124 269 -124 q 438 -94 386 -124 q 529 -3 489 -65 q 586 157 569 58 l 572 164 q 453 53 521 88 q 319 19 385 19 q 185 61 242 19 q 99 177 129 103 q 69 350 69 251 q 100 517 69 432 q 194 674 131 603 q 358 790 258 746 q 596 833 457 833 q 649 831 624 833 q 706 822 675 829 q 711 791 708 808 q 715 754 714 774 q 783 788 749 778 q 847 799 817 799 q 921 773 899 799 q 943 694 943 747 q 931 500 943 608 q 890 276 918 392 q 816 54 863 161 q 701 -139 769 -53 q 538 -276 632 -225 q 319 -326 443 -326 m 469 231 q 542 249 504 231 q 611 306 579 267 q 643 499 628 396 q 672 696 658 601 q 489 653 565 696 q 372 540 413 610 q 332 389 332 469 q 373 274 332 317 q 469 231 414 231 m 568 900 q 452 937 494 900 q 410 1032 410 974 q 470 1173 410 1119 q 621 1226 531 1226 q 737 1190 694 1226 q 779 1093 779 1153 q 719 953 779 1007 q 568 900 658 900 z "},"h":{"ha":1074,"x_min":97,"x_max":1011,"o":"m 260 -35 q 135 10 172 -35 q 97 138 97 54 q 105 246 97 179 q 125 394 113 313 q 153 560 138 475 q 182 724 168 646 q 207 864 196 803 l 129 975 q 269 1047 203 1018 q 403 1076 336 1076 q 484 1053 461 1076 q 507 978 507 1031 q 501 860 507 921 q 485 744 494 800 q 466 647 475 689 q 451 586 457 606 l 465 579 q 644 776 547 719 q 843 833 742 833 q 969 792 928 833 q 1011 665 1011 751 q 991 506 1011 590 q 950 334 971 422 q 929 160 929 246 q 958 33 929 74 q 806 -35 885 -35 q 681 10 718 -35 q 643 138 643 54 q 656 240 643 183 q 685 354 668 296 q 714 464 701 413 q 726 553 726 515 q 716 599 726 582 q 679 615 706 615 q 592 582 642 615 q 494 488 542 549 q 415 344 446 428 q 383 160 383 261 q 413 33 383 74 q 260 -35 339 -35 z "},"ħ":{"ha":1074,"x_min":47,"x_max":986,"o":"m 260 -35 q 135 10 172 -35 q 97 138 97 54 q 106 266 97 188 q 131 440 115 344 q 164 635 146 535 q 199 829 182 736 q 161 823 181 825 q 122 821 142 821 q 68 838 89 821 q 47 899 47 854 q 60 958 47 925 q 96 1021 74 992 q 165 1005 129 1010 q 231 1000 200 1000 q 236 1028 233 1015 l 158 1139 q 299 1211 232 1182 q 432 1240 365 1240 q 513 1217 490 1240 q 536 1142 536 1194 q 532 1076 536 1119 q 568 1083 550 1081 q 606 1085 586 1085 q 688 1065 654 1085 q 721 997 721 1046 q 674 885 721 943 q 603 907 639 900 q 532 914 567 914 q 511 914 522 914 q 490 778 501 846 q 469 659 479 711 q 451 586 458 607 l 465 579 q 616 701 529 653 q 792 749 703 749 q 938 708 890 749 q 986 581 986 667 q 972 448 986 518 q 944 305 958 378 q 929 160 929 232 q 958 33 929 74 q 806 -35 885 -35 q 681 10 718 -35 q 643 138 643 54 q 658 248 643 186 q 687 369 672 310 q 701 468 701 429 q 691 514 701 497 q 654 531 681 531 q 574 503 619 531 q 484 427 528 476 q 412 310 440 378 q 383 160 383 242 q 413 33 383 74 q 260 -35 339 -35 z "},"ĥ":{"ha":1074,"x_min":96,"x_max":1011,"o":"m 260 -35 q 135 10 172 -35 q 97 138 97 54 q 105 246 97 179 q 125 394 113 313 q 153 560 138 475 q 182 724 168 646 q 207 864 196 803 l 129 975 q 269 1047 203 1018 q 403 1076 336 1076 q 484 1053 461 1076 q 507 978 507 1031 q 501 860 507 921 q 485 744 494 800 q 466 647 475 689 q 451 586 457 606 l 465 579 q 644 776 547 719 q 843 833 742 833 q 969 792 928 833 q 1011 665 1011 751 q 991 506 1011 590 q 950 334 971 422 q 929 160 929 246 q 958 33 929 74 q 806 -35 885 -35 q 681 10 718 -35 q 643 138 643 54 q 656 240 643 183 q 685 354 668 296 q 714 464 701 413 q 726 553 726 515 q 716 599 726 582 q 679 615 706 615 q 592 582 642 615 q 494 488 542 549 q 415 344 446 428 q 383 160 383 261 q 413 33 383 74 q 260 -35 339 -35 m 175 1103 q 114 1110 132 1103 q 96 1129 96 1118 q 115 1183 96 1150 q 163 1254 135 1217 q 221 1325 192 1292 q 268 1379 250 1358 q 322 1397 285 1389 q 408 1409 360 1404 q 504 1414 457 1414 q 618 1402 569 1414 q 667 1363 667 1390 q 660 1276 667 1314 q 653 1192 653 1238 q 658 1149 653 1168 q 672 1114 664 1129 q 624 1106 649 1108 q 574 1103 600 1103 q 466 1135 492 1103 q 440 1217 440 1167 q 444 1270 440 1242 q 450 1328 447 1299 l 414 1328 q 354 1226 378 1283 q 331 1119 331 1169 q 249 1106 288 1110 q 175 1103 210 1103 z "},"i":{"ha":539,"x_min":90,"x_max":525,"o":"m 338 924 q 232 951 274 924 q 190 1026 190 979 q 221 1102 190 1072 q 295 1147 251 1132 q 378 1163 339 1163 q 483 1135 442 1163 q 525 1060 525 1108 q 499 988 525 1019 q 430 940 472 957 q 338 924 388 924 m 254 -35 q 128 10 165 -35 q 90 138 90 54 q 99 223 90 168 q 121 345 107 278 q 150 482 135 413 q 179 613 165 551 l 101 729 q 242 803 175 774 q 375 833 308 833 q 456 808 433 833 q 479 731 479 783 q 469 663 479 710 q 443 551 458 615 q 413 417 428 488 q 387 280 397 347 q 376 160 376 213 q 387 85 376 118 q 419 33 397 53 q 254 -35 342 -35 z "},"ı":{"ha":539,"x_min":90,"x_max":479,"o":"m 254 -35 q 128 10 165 -35 q 90 138 90 54 q 99 223 90 168 q 121 345 107 278 q 150 482 135 413 q 179 613 165 551 l 101 729 q 242 803 175 774 q 375 833 308 833 q 456 808 433 833 q 479 731 479 783 q 469 663 479 710 q 443 551 458 615 q 413 417 428 488 q 387 280 397 347 q 376 160 376 213 q 387 85 376 118 q 419 33 397 53 q 254 -35 342 -35 z "},"í":{"ha":539,"x_min":90,"x_max":565,"o":"m 254 -35 q 128 10 165 -35 q 90 138 90 54 q 99 223 90 168 q 121 345 107 278 q 150 482 135 413 q 179 613 165 551 l 101 729 q 242 803 175 774 q 375 833 308 833 q 456 808 433 833 q 479 731 479 783 q 469 663 479 710 q 443 551 458 615 q 413 417 428 488 q 387 280 397 347 q 376 160 376 213 q 387 85 376 118 q 419 33 397 53 q 254 -35 342 -35 m 176 907 q 126 931 149 907 q 99 1013 103 954 q 203 1060 153 1025 q 302 1135 254 1096 q 396 1202 350 1174 q 488 1231 442 1231 q 542 1202 519 1231 q 565 1099 565 1174 q 562 1049 565 1075 q 551 997 558 1022 q 535 999 544 999 q 519 1000 526 1000 q 429 986 472 1000 q 345 953 386 972 q 263 921 304 935 q 176 907 221 907 z "},"ĭ":{"ha":539,"x_min":79,"x_max":585,"o":"m 254 -35 q 128 10 165 -35 q 90 138 90 54 q 99 223 90 168 q 121 345 107 278 q 150 482 135 413 q 179 613 165 551 l 101 729 q 242 803 175 774 q 375 833 308 833 q 456 808 433 833 q 479 731 479 783 q 469 663 479 710 q 443 551 458 615 q 413 417 428 488 q 387 280 397 347 q 376 160 376 213 q 387 85 376 118 q 419 33 397 53 q 254 -35 342 -35 m 268 919 q 132 959 185 919 q 79 1088 79 999 q 82 1138 79 1113 q 93 1192 85 1163 q 192 1124 136 1142 q 318 1106 247 1106 q 457 1136 388 1106 q 578 1219 526 1167 q 583 1185 581 1201 q 585 1153 585 1168 q 556 1047 585 1090 q 479 974 526 1003 q 376 933 432 946 q 268 919 321 919 z "},"î":{"ha":539,"x_min":43,"x_max":619,"o":"m 254 -35 q 128 10 165 -35 q 90 138 90 54 q 99 223 90 168 q 121 345 107 278 q 150 482 135 413 q 179 613 165 551 l 101 729 q 242 803 175 774 q 375 833 308 833 q 456 808 433 833 q 479 731 479 783 q 469 663 479 710 q 443 551 458 615 q 413 417 428 488 q 387 280 397 347 q 376 160 376 213 q 387 85 376 118 q 419 33 397 53 q 254 -35 342 -35 m 122 894 q 61 902 79 894 q 43 921 43 910 q 63 975 43 942 q 110 1046 82 1008 q 168 1117 139 1083 q 215 1171 197 1150 q 269 1188 232 1181 q 356 1201 307 1196 q 451 1206 404 1206 q 565 1194 517 1206 q 614 1154 614 1182 q 607 1067 614 1106 q 600 983 600 1029 q 606 940 600 960 q 619 906 611 921 q 572 897 596 900 q 521 894 547 894 q 413 926 439 894 q 388 1008 388 958 q 391 1062 388 1033 q 397 1119 394 1090 l 361 1119 q 301 1018 325 1075 q 278 911 278 961 q 196 898 235 901 q 122 894 157 894 z "},"ï":{"ha":539,"x_min":-29,"x_max":693,"o":"m 254 -35 q 128 10 165 -35 q 90 138 90 54 q 99 223 90 168 q 121 345 107 278 q 150 482 135 413 q 179 613 165 551 l 101 729 q 242 803 175 774 q 375 833 308 833 q 456 808 433 833 q 479 731 479 783 q 469 663 479 710 q 443 551 458 615 q 413 417 428 488 q 387 280 397 347 q 376 160 376 213 q 387 85 376 118 q 419 33 397 53 q 254 -35 342 -35 m 519 925 q 426 953 464 925 q 389 1029 389 981 q 417 1114 389 1081 q 485 1163 444 1147 q 563 1179 526 1179 q 656 1151 619 1179 q 693 1074 693 1122 q 669 995 693 1029 q 605 943 644 961 q 519 925 565 925 m 101 925 q 8 953 46 925 q -29 1029 -29 981 q -1 1114 -29 1081 q 67 1163 26 1147 q 144 1179 108 1179 q 238 1151 201 1179 q 275 1074 275 1122 q 251 995 275 1029 q 187 943 226 961 q 101 925 147 925 z "},"ì":{"ha":539,"x_min":90,"x_max":565,"o":"m 254 -35 q 128 10 165 -35 q 90 138 90 54 q 99 223 90 168 q 121 345 107 278 q 150 482 135 413 q 179 613 165 551 l 101 729 q 242 803 175 774 q 375 833 308 833 q 456 808 433 833 q 479 731 479 783 q 469 663 479 710 q 443 551 458 615 q 413 417 428 488 q 387 280 397 347 q 376 160 376 213 q 387 85 376 118 q 419 33 397 53 q 254 -35 342 -35 m 488 907 q 401 921 443 907 q 319 953 360 935 q 235 986 278 972 q 144 1000 192 1000 q 128 999 138 1000 q 113 997 119 999 q 102 1049 106 1022 q 99 1099 99 1075 q 122 1202 99 1174 q 176 1231 146 1231 q 268 1202 222 1231 q 362 1135 314 1174 q 460 1060 410 1096 q 565 1013 511 1025 q 538 931 561 954 q 488 907 515 907 z "},"ĳ":{"ha":1083,"x_min":90,"x_max":1060,"o":"m 338 924 q 232 951 274 924 q 190 1026 190 979 q 221 1102 190 1072 q 295 1147 251 1132 q 378 1163 339 1163 q 483 1135 442 1163 q 525 1060 525 1108 q 499 988 525 1019 q 430 940 472 957 q 338 924 388 924 m 254 -35 q 128 10 165 -35 q 90 138 90 54 q 99 223 90 168 q 121 345 107 278 q 150 482 135 413 q 179 613 165 551 l 101 729 q 242 803 175 774 q 375 833 308 833 q 456 808 433 833 q 479 731 479 783 q 469 663 479 710 q 443 551 458 615 q 413 417 428 488 q 387 280 397 347 q 376 160 376 213 q 387 85 376 118 q 419 33 397 53 q 254 -35 342 -35 m 872 924 q 767 951 808 924 q 725 1026 725 979 q 756 1102 725 1072 q 830 1147 786 1132 q 913 1163 874 1163 q 1018 1135 976 1163 q 1060 1060 1060 1108 q 1033 988 1060 1019 q 965 940 1007 957 q 872 924 922 924 m 610 -292 q 484 -251 524 -292 q 444 -157 444 -211 q 487 -57 444 -93 q 599 -21 529 -21 q 667 -36 639 -21 q 718 -67 696 -51 l 732 -47 q 672 22 693 -7 q 644 80 651 51 q 636 146 636 108 q 644 210 636 161 q 663 329 651 260 q 688 473 675 399 q 714 613 701 547 l 636 729 q 776 803 710 774 q 910 833 843 833 q 991 808 968 833 q 1014 731 1014 783 q 1007 651 1014 706 q 988 524 1000 597 q 961 369 976 451 q 931 206 946 288 q 900 51 915 124 q 847 -113 883 -35 q 751 -242 810 -192 q 610 -292 693 -292 z "},"ī":{"ha":539,"x_min":71,"x_max":592,"o":"m 254 -35 q 128 10 165 -35 q 90 138 90 54 q 99 223 90 168 q 121 345 107 278 q 150 482 135 413 q 179 613 165 551 l 101 729 q 242 803 175 774 q 375 833 308 833 q 456 808 433 833 q 479 731 479 783 q 469 663 479 710 q 443 551 458 615 q 413 417 428 488 q 387 280 397 347 q 376 160 376 213 q 387 85 376 118 q 419 33 397 53 q 254 -35 342 -35 m 119 951 q 85 967 100 951 q 71 1025 71 982 q 82 1102 71 1068 q 111 1172 93 1136 q 165 1159 132 1163 q 214 1156 199 1156 q 351 1160 281 1156 q 493 1164 421 1164 q 566 1142 540 1164 q 592 1065 592 1119 q 588 1016 592 1042 q 572 965 583 990 q 522 981 556 976 q 467 985 488 985 q 351 976 413 985 q 231 960 290 968 q 119 951 172 951 z "},"į":{"ha":539,"x_min":-6,"x_max":517,"o":"m 254 -35 q 128 10 165 -35 q 90 138 90 54 q 99 223 90 168 q 121 345 107 278 q 150 482 135 413 q 179 613 165 551 l 101 729 q 242 803 175 774 q 375 833 308 833 q 456 808 433 833 q 479 731 479 783 q 469 663 479 710 q 443 551 458 615 q 413 417 428 488 q 387 280 397 347 q 376 160 376 213 q 387 85 376 118 q 419 33 397 53 q 254 -35 342 -35 m 306 900 q 190 937 232 900 q 147 1032 147 974 q 208 1173 147 1119 q 358 1226 268 1226 q 474 1190 432 1226 q 517 1093 517 1153 q 456 953 517 1007 q 306 900 396 900 m 197 -396 q 42 -347 90 -396 q -6 -233 -6 -299 q 33 -118 -6 -174 q 138 -23 72 -62 q 282 31 203 17 l 354 31 l 354 8 q 214 -75 257 -25 q 171 -186 171 -125 q 192 -240 171 -221 q 244 -258 214 -258 q 303 -239 278 -258 q 342 -190 328 -219 q 356 -132 356 -161 q 350 -97 356 -112 q 436 -144 410 -112 q 463 -212 463 -175 q 429 -298 463 -256 q 337 -368 396 -340 q 197 -396 278 -396 z "},"ĩ":{"ha":539,"x_min":49,"x_max":615,"o":"m 254 -35 q 128 10 165 -35 q 90 138 90 54 q 99 223 90 168 q 121 345 107 278 q 150 482 135 413 q 179 613 165 551 l 101 729 q 242 803 175 774 q 375 833 308 833 q 456 808 433 833 q 479 731 479 783 q 469 663 479 710 q 443 551 458 615 q 413 417 428 488 q 387 280 397 347 q 376 160 376 213 q 387 85 376 118 q 419 33 397 53 q 254 -35 342 -35 m 138 925 q 74 944 99 925 q 49 1013 49 963 q 86 1158 49 1076 q 144 1138 115 1144 q 201 1131 174 1131 q 315 1151 261 1131 q 420 1192 368 1172 q 526 1213 472 1213 q 590 1194 565 1213 q 615 1125 615 1175 q 578 979 615 1061 q 519 1001 549 994 q 463 1007 490 1007 q 350 987 404 1007 q 244 946 296 967 q 138 925 192 925 z "},"j":{"ha":544,"x_min":-94,"x_max":521,"o":"m 333 924 q 228 951 269 924 q 186 1026 186 979 q 217 1102 186 1072 q 291 1147 247 1132 q 374 1163 335 1163 q 479 1135 438 1163 q 521 1060 521 1108 q 494 988 521 1019 q 426 940 468 957 q 333 924 383 924 m 71 -292 q -55 -251 -15 -292 q -94 -157 -94 -211 q -52 -57 -94 -93 q 60 -21 -10 -21 q 128 -36 100 -21 q 179 -67 157 -51 l 193 -47 q 133 22 154 -7 q 105 80 113 51 q 97 146 97 108 q 105 210 97 161 q 124 329 113 260 q 149 473 136 399 q 175 613 163 547 l 97 729 q 238 803 171 774 q 371 833 304 833 q 452 808 429 833 q 475 731 475 783 q 468 651 475 706 q 449 524 461 597 q 422 369 438 451 q 392 206 407 288 q 361 51 376 124 q 308 -113 344 -35 q 213 -242 271 -192 q 71 -292 154 -292 z "},"ȷ":{"ha":544,"x_min":-94,"x_max":475,"o":"m 71 -292 q -55 -251 -15 -292 q -94 -157 -94 -211 q -52 -57 -94 -93 q 60 -21 -10 -21 q 128 -36 100 -21 q 179 -67 157 -51 l 193 -47 q 133 22 154 -7 q 105 80 113 51 q 97 146 97 108 q 105 210 97 161 q 124 329 113 260 q 149 473 136 399 q 175 613 163 547 l 97 729 q 238 803 171 774 q 371 833 304 833 q 452 808 429 833 q 475 731 475 783 q 468 651 475 706 q 449 524 461 597 q 422 369 438 451 q 392 206 407 288 q 361 51 376 124 q 308 -113 344 -35 q 213 -242 271 -192 q 71 -292 154 -292 z "},"ĵ":{"ha":544,"x_min":-94,"x_max":617,"o":"m 71 -292 q -55 -251 -15 -292 q -94 -157 -94 -211 q -52 -57 -94 -93 q 60 -21 -10 -21 q 128 -36 100 -21 q 179 -67 157 -51 l 193 -47 q 133 22 154 -7 q 105 80 113 51 q 97 146 97 108 q 105 210 97 161 q 124 329 113 260 q 149 473 136 399 q 175 613 163 547 l 97 729 q 238 803 171 774 q 371 833 304 833 q 452 808 429 833 q 475 731 475 783 q 468 651 475 706 q 449 524 461 597 q 422 369 438 451 q 392 206 407 288 q 361 51 376 124 q 308 -113 344 -35 q 213 -242 271 -192 q 71 -292 154 -292 m 119 894 q 58 902 76 894 q 40 921 40 910 q 60 975 40 942 q 108 1046 79 1008 q 165 1117 136 1083 q 213 1171 194 1150 q 267 1188 229 1181 q 353 1201 304 1196 q 449 1206 401 1206 q 563 1194 514 1206 q 611 1154 611 1182 q 604 1067 611 1106 q 597 983 597 1029 q 603 940 597 960 q 617 906 608 921 q 569 897 593 900 q 518 894 544 894 q 410 926 436 894 q 385 1008 385 958 q 388 1062 385 1033 q 394 1119 392 1090 l 358 1119 q 299 1018 322 1075 q 275 911 275 961 q 193 898 232 901 q 119 894 154 894 z "},"k":{"ha":1006,"x_min":90,"x_max":978,"o":"m 247 -35 q 126 18 163 -35 q 90 179 90 71 q 98 269 90 210 q 118 406 106 329 q 146 565 131 482 q 175 725 161 647 q 200 864 189 803 l 122 975 q 263 1047 196 1018 q 396 1076 329 1076 q 477 1053 454 1076 q 500 978 500 1031 q 489 865 500 932 q 461 719 478 799 q 426 555 444 639 q 396 392 408 471 l 483 469 q 576 551 533 514 q 644 627 618 589 q 669 710 669 665 q 667 744 669 729 q 658 774 664 760 q 844 833 757 833 q 938 797 903 833 q 972 700 972 760 q 940 592 972 643 q 856 499 907 540 q 753 428 806 458 q 824 243 783 331 q 907 97 865 156 q 978 22 949 38 q 900 -21 950 -7 q 806 -35 850 -35 q 661 24 719 -35 q 556 215 603 82 l 521 314 l 378 243 q 376 220 376 232 q 376 197 376 208 q 387 101 376 143 q 419 33 397 58 q 247 -35 322 -35 z "},"ķ":{"ha":1006,"x_min":90,"x_max":978,"o":"m 247 -35 q 126 18 163 -35 q 90 179 90 71 q 98 269 90 210 q 118 406 106 329 q 146 565 131 482 q 175 725 161 647 q 200 864 189 803 l 122 975 q 263 1047 196 1018 q 396 1076 329 1076 q 477 1053 454 1076 q 500 978 500 1031 q 489 865 500 932 q 461 719 478 799 q 426 555 444 639 q 396 392 408 471 l 483 469 q 576 551 533 514 q 644 627 618 589 q 669 710 669 665 q 667 744 669 729 q 658 774 664 760 q 844 833 757 833 q 938 797 903 833 q 972 700 972 760 q 940 592 972 643 q 856 499 907 540 q 753 428 806 458 q 824 243 783 331 q 907 97 865 156 q 978 22 949 38 q 900 -21 950 -7 q 806 -35 850 -35 q 661 24 719 -35 q 556 215 603 82 l 521 314 l 378 243 q 376 220 376 232 q 376 197 376 208 q 387 101 376 143 q 419 33 397 58 q 247 -35 322 -35 m 351 -589 l 333 -533 q 404 -481 375 -514 q 449 -412 433 -449 q 465 -346 465 -376 l 378 -233 q 403 -159 381 -193 q 461 -104 425 -125 q 539 -83 497 -83 q 638 -127 603 -83 q 672 -228 672 -171 q 633 -387 672 -312 q 522 -515 594 -462 q 351 -589 450 -568 z "},"ĸ":{"ha":1015,"x_min":90,"x_max":988,"o":"m 254 -35 q 128 10 165 -35 q 90 138 90 54 q 99 223 90 168 q 121 345 107 278 q 150 482 135 413 q 179 613 165 551 l 101 729 q 242 803 175 774 q 375 833 308 833 q 456 808 433 833 q 479 731 479 783 q 467 657 479 708 q 440 538 456 606 q 408 396 424 469 l 493 469 q 585 551 543 514 q 653 627 628 589 q 679 710 679 665 q 676 744 679 729 q 668 774 674 760 q 854 833 767 833 q 947 797 913 833 q 982 700 982 760 q 949 592 982 643 q 866 499 917 540 q 763 428 815 458 q 834 243 793 331 q 917 97 875 156 q 988 22 958 38 q 910 -21 960 -7 q 815 -35 860 -35 q 670 24 729 -35 q 565 215 611 82 l 531 314 l 381 239 q 376 160 376 196 q 387 85 376 118 q 419 33 397 53 q 254 -35 342 -35 z "},"l":{"ha":535,"x_min":97,"x_max":507,"o":"m 254 -35 q 133 18 169 -35 q 97 179 97 71 q 105 269 97 210 q 125 406 113 329 q 153 565 138 482 q 182 725 168 647 q 207 864 196 803 l 129 975 q 269 1047 203 1018 q 403 1076 336 1076 q 484 1053 461 1076 q 507 978 507 1031 q 494 856 507 929 q 464 698 482 783 q 427 522 446 613 q 396 349 408 432 q 383 197 383 265 q 394 101 383 143 q 426 33 404 58 q 254 -35 329 -35 z "},"ĺ":{"ha":535,"x_min":97,"x_max":571,"o":"m 254 -35 q 133 18 169 -35 q 97 179 97 71 q 105 269 97 210 q 125 406 113 329 q 153 565 138 482 q 182 725 168 647 q 207 864 196 803 l 129 975 q 269 1047 203 1018 q 403 1076 336 1076 q 484 1053 461 1076 q 507 978 507 1031 q 494 856 507 929 q 464 698 482 783 q 427 522 446 613 q 396 349 408 432 q 383 197 383 265 q 394 101 383 143 q 426 33 404 58 q 254 -35 329 -35 m 182 1047 q 131 1071 154 1047 q 104 1153 108 1094 q 209 1201 158 1165 q 308 1275 260 1236 q 401 1342 356 1314 q 493 1371 447 1371 q 548 1342 525 1371 q 571 1239 571 1314 q 567 1189 571 1215 q 557 1138 564 1163 q 541 1140 550 1139 q 525 1140 532 1140 q 435 1126 478 1140 q 351 1094 392 1113 q 268 1061 310 1075 q 182 1047 226 1047 z "},"ľ":{"ha":535,"x_min":97,"x_max":874,"o":"m 254 -35 q 133 18 169 -35 q 97 179 97 71 q 105 269 97 210 q 125 406 113 329 q 153 565 138 482 q 182 725 168 647 q 207 864 196 803 l 129 975 q 269 1047 203 1018 q 403 1076 336 1076 q 484 1053 461 1076 q 507 978 507 1031 q 494 856 507 929 q 464 698 482 783 q 427 522 446 613 q 396 349 408 432 q 383 197 383 265 q 394 101 383 143 q 426 33 404 58 q 254 -35 329 -35 m 667 904 l 579 1017 q 604 1091 582 1057 q 663 1146 626 1125 q 740 1167 699 1167 q 839 1123 804 1167 q 874 1022 874 1079 q 835 863 874 938 q 724 735 796 788 q 553 661 651 682 l 535 717 q 606 769 576 736 q 651 838 635 801 q 667 904 667 874 z "},"ļ":{"ha":535,"x_min":28,"x_max":507,"o":"m 254 -35 q 133 18 169 -35 q 97 179 97 71 q 105 269 97 210 q 125 406 113 329 q 153 565 138 482 q 182 725 168 647 q 207 864 196 803 l 129 975 q 269 1047 203 1018 q 403 1076 336 1076 q 484 1053 461 1076 q 507 978 507 1031 q 494 856 507 929 q 464 698 482 783 q 427 522 446 613 q 396 349 408 432 q 383 197 383 265 q 394 101 383 143 q 426 33 404 58 q 254 -35 329 -35 m 46 -589 l 28 -533 q 99 -481 69 -514 q 144 -412 128 -449 q 160 -346 160 -376 l 72 -233 q 97 -159 75 -193 q 156 -104 119 -125 q 233 -83 192 -83 q 332 -127 297 -83 q 367 -228 367 -171 q 328 -387 367 -312 q 217 -515 289 -462 q 46 -589 144 -568 z "},"ŀ":{"ha":817,"x_min":97,"x_max":858,"o":"m 254 -35 q 133 18 169 -35 q 97 179 97 71 q 105 269 97 210 q 125 406 113 329 q 153 565 138 482 q 182 725 168 647 q 207 864 196 803 l 129 975 q 269 1047 203 1018 q 403 1076 336 1076 q 484 1053 461 1076 q 507 978 507 1031 q 494 856 507 929 q 464 698 482 783 q 427 522 446 613 q 396 349 408 432 q 383 197 383 265 q 394 101 383 143 q 426 33 404 58 q 254 -35 329 -35 m 683 389 q 577 431 619 389 q 535 535 535 474 q 558 622 535 582 q 622 686 582 661 q 710 711 661 711 q 816 669 774 711 q 858 565 858 626 q 835 479 858 519 q 772 414 811 439 q 683 389 732 389 z "},"ł":{"ha":535,"x_min":19,"x_max":569,"o":"m 254 -35 q 133 18 169 -35 q 97 179 97 71 q 106 279 97 213 q 129 428 115 346 q 110 426 119 426 q 47 441 74 426 q 19 496 19 456 q 31 546 19 518 q 65 599 43 574 q 100 588 82 590 q 136 585 118 585 q 157 585 146 585 q 183 734 169 661 q 207 864 197 807 l 129 975 q 269 1047 203 1018 q 403 1076 336 1076 q 484 1053 461 1076 q 507 978 507 1031 q 493 849 507 926 q 460 681 479 771 q 479 682 469 682 q 542 667 515 682 q 569 613 569 653 q 558 563 569 590 q 524 510 547 535 q 490 521 507 518 q 453 524 472 524 q 426 522 440 524 q 397 349 410 433 q 383 197 383 265 q 394 101 383 143 q 426 33 404 58 q 254 -35 329 -35 z "},"m":{"ha":1571,"x_min":76,"x_max":1508,"o":"m 239 -35 q 114 10 151 -35 q 76 138 76 54 q 85 227 76 167 q 106 362 93 288 q 135 511 119 436 q 164 644 150 586 l 92 756 q 215 810 149 788 q 349 833 281 833 q 435 805 407 833 q 463 728 463 776 q 453 653 463 692 q 431 586 443 614 l 444 579 q 617 776 526 719 q 808 833 707 833 q 929 797 882 833 q 976 678 976 760 q 963 586 976 636 l 976 579 q 1149 776 1058 719 q 1340 833 1239 833 q 1467 792 1425 833 q 1508 665 1508 751 q 1488 506 1508 590 q 1447 334 1468 422 q 1426 160 1426 246 q 1456 33 1426 74 q 1303 -35 1382 -35 q 1178 10 1215 -35 q 1140 138 1140 54 q 1153 240 1140 183 q 1182 354 1165 296 q 1211 464 1199 413 q 1224 553 1224 515 q 1213 599 1224 582 q 1176 615 1203 615 q 1091 582 1139 615 q 998 488 1043 549 q 924 344 953 428 q 894 160 894 261 q 924 33 894 74 q 771 -35 850 -35 q 646 10 683 -35 q 608 138 608 54 q 621 240 608 183 q 650 354 633 296 q 679 464 667 413 q 692 553 692 515 q 681 599 692 582 q 644 615 671 615 q 559 582 607 615 q 466 488 511 549 q 392 344 421 428 q 363 160 363 261 q 392 33 363 74 q 239 -35 318 -35 z "},"n":{"ha":1053,"x_min":76,"x_max":990,"o":"m 239 -35 q 114 10 151 -35 q 76 138 76 54 q 85 227 76 167 q 106 362 93 288 q 135 511 119 436 q 164 644 150 586 l 92 756 q 215 810 149 788 q 349 833 281 833 q 435 805 407 833 q 463 728 463 776 q 453 653 463 692 q 431 586 443 614 l 444 579 q 624 776 526 719 q 822 833 721 833 q 949 792 907 833 q 990 665 990 751 q 970 506 990 590 q 929 334 950 422 q 908 160 908 246 q 938 33 908 74 q 785 -35 864 -35 q 660 10 697 -35 q 622 138 622 54 q 635 240 622 183 q 664 354 647 296 q 693 464 681 413 q 706 553 706 515 q 695 599 706 582 q 658 615 685 615 q 571 582 621 615 q 473 488 521 549 q 394 344 425 428 q 363 160 363 261 q 392 33 363 74 q 239 -35 318 -35 z "},"ń":{"ha":1053,"x_min":76,"x_max":990,"o":"m 239 -35 q 114 10 151 -35 q 76 138 76 54 q 85 227 76 167 q 106 362 93 288 q 135 511 119 436 q 164 644 150 586 l 92 756 q 215 810 149 788 q 349 833 281 833 q 435 805 407 833 q 463 728 463 776 q 453 653 463 692 q 431 586 443 614 l 444 579 q 624 776 526 719 q 822 833 721 833 q 949 792 907 833 q 990 665 990 751 q 970 506 990 590 q 929 334 950 422 q 908 160 908 246 q 938 33 908 74 q 785 -35 864 -35 q 660 10 697 -35 q 622 138 622 54 q 635 240 622 183 q 664 354 647 296 q 693 464 681 413 q 706 553 706 515 q 695 599 706 582 q 658 615 685 615 q 571 582 621 615 q 473 488 521 549 q 394 344 425 428 q 363 160 363 261 q 392 33 363 74 q 239 -35 318 -35 m 468 907 q 417 931 440 907 q 390 1013 394 954 q 495 1060 444 1025 q 594 1135 546 1096 q 688 1202 642 1174 q 779 1231 733 1231 q 834 1202 811 1231 q 857 1099 857 1174 q 853 1049 857 1075 q 843 997 850 1022 q 827 999 836 999 q 811 1000 818 1000 q 721 986 764 1000 q 637 953 678 972 q 554 921 596 935 q 468 907 513 907 z "},"ŉ":{"ha":1053,"x_min":-1,"x_max":990,"o":"m 17 828 l -1 883 q 69 935 40 903 q 115 1004 99 968 q 131 1071 131 1040 l 43 1183 q 68 1258 46 1224 q 126 1313 90 1292 q 204 1333 163 1333 q 303 1290 268 1333 q 338 1189 338 1246 q 299 1029 338 1104 q 188 901 260 954 q 17 828 115 849 m 239 -35 q 114 10 151 -35 q 76 138 76 54 q 85 227 76 167 q 106 362 93 288 q 135 511 119 436 q 164 644 150 586 l 92 756 q 215 810 149 788 q 349 833 281 833 q 435 805 407 833 q 463 728 463 776 q 453 653 463 692 q 431 586 443 614 l 444 579 q 624 776 526 719 q 822 833 721 833 q 949 792 907 833 q 990 665 990 751 q 970 506 990 590 q 929 334 950 422 q 908 160 908 246 q 938 33 908 74 q 785 -35 864 -35 q 660 10 697 -35 q 622 138 622 54 q 635 240 622 183 q 664 354 647 296 q 693 464 681 413 q 706 553 706 515 q 695 599 706 582 q 658 615 685 615 q 571 582 621 615 q 473 488 521 549 q 394 344 425 428 q 363 160 363 261 q 392 33 363 74 q 239 -35 318 -35 z "},"ň":{"ha":1053,"x_min":76,"x_max":990,"o":"m 239 -35 q 114 10 151 -35 q 76 138 76 54 q 85 227 76 167 q 106 362 93 288 q 135 511 119 436 q 164 644 150 586 l 92 756 q 215 810 149 788 q 349 833 281 833 q 435 805 407 833 q 463 728 463 776 q 453 653 463 692 q 431 586 443 614 l 444 579 q 624 776 526 719 q 822 833 721 833 q 949 792 907 833 q 990 665 990 751 q 970 506 990 590 q 929 334 950 422 q 908 160 908 246 q 938 33 908 74 q 785 -35 864 -35 q 660 10 697 -35 q 622 138 622 54 q 635 240 622 183 q 664 354 647 296 q 693 464 681 413 q 706 553 706 515 q 695 599 706 582 q 658 615 685 615 q 571 582 621 615 q 473 488 521 549 q 394 344 425 428 q 363 160 363 261 q 392 33 363 74 q 239 -35 318 -35 m 551 881 q 434 899 483 881 q 385 960 385 917 l 385 1075 q 372 1132 385 1111 q 342 1165 360 1153 q 403 1184 368 1176 q 472 1192 438 1192 q 553 1169 522 1192 q 585 1088 585 1147 q 580 1031 585 1064 q 569 967 575 999 l 611 967 q 651 1033 635 990 q 668 1118 668 1075 q 667 1142 668 1129 q 665 1167 667 1154 q 726 1185 693 1178 q 799 1192 760 1192 q 882 1176 858 1192 q 906 1138 906 1161 q 889 1084 906 1114 q 848 1024 872 1054 q 799 965 824 993 q 756 918 774 938 q 665 891 721 901 q 551 881 608 881 z "},"ņ":{"ha":1053,"x_min":76,"x_max":990,"o":"m 239 -35 q 114 10 151 -35 q 76 138 76 54 q 85 227 76 167 q 106 362 93 288 q 135 511 119 436 q 164 644 150 586 l 92 756 q 215 810 149 788 q 349 833 281 833 q 435 805 407 833 q 463 728 463 776 q 453 653 463 692 q 431 586 443 614 l 444 579 q 624 776 526 719 q 822 833 721 833 q 949 792 907 833 q 990 665 990 751 q 970 506 990 590 q 929 334 950 422 q 908 160 908 246 q 938 33 908 74 q 785 -35 864 -35 q 660 10 697 -35 q 622 138 622 54 q 635 240 622 183 q 664 354 647 296 q 693 464 681 413 q 706 553 706 515 q 695 599 706 582 q 658 615 685 615 q 571 582 621 615 q 473 488 521 549 q 394 344 425 428 q 363 160 363 261 q 392 33 363 74 q 239 -35 318 -35 m 319 -589 l 301 -533 q 372 -481 343 -514 q 417 -412 401 -449 q 433 -346 433 -376 l 346 -233 q 371 -159 349 -193 q 429 -104 393 -125 q 507 -83 465 -83 q 606 -127 571 -83 q 640 -228 640 -171 q 601 -387 640 -312 q 490 -515 563 -462 q 319 -589 418 -568 z "},"ñ":{"ha":1053,"x_min":76,"x_max":990,"o":"m 239 -35 q 114 10 151 -35 q 76 138 76 54 q 85 227 76 167 q 106 362 93 288 q 135 511 119 436 q 164 644 150 586 l 92 756 q 215 810 149 788 q 349 833 281 833 q 435 805 407 833 q 463 728 463 776 q 453 653 463 692 q 431 586 443 614 l 444 579 q 624 776 526 719 q 822 833 721 833 q 949 792 907 833 q 990 665 990 751 q 970 506 990 590 q 929 334 950 422 q 908 160 908 246 q 938 33 908 74 q 785 -35 864 -35 q 660 10 697 -35 q 622 138 622 54 q 635 240 622 183 q 664 354 647 296 q 693 464 681 413 q 706 553 706 515 q 695 599 706 582 q 658 615 685 615 q 571 582 621 615 q 473 488 521 549 q 394 344 425 428 q 363 160 363 261 q 392 33 363 74 q 239 -35 318 -35 m 429 925 q 365 944 390 925 q 340 1013 340 963 q 378 1158 340 1076 q 436 1138 407 1144 q 493 1131 465 1131 q 606 1151 553 1131 q 712 1192 660 1172 q 818 1213 764 1213 q 882 1194 857 1213 q 907 1125 907 1175 q 869 979 907 1061 q 811 1001 840 994 q 754 1007 782 1007 q 642 987 696 1007 q 535 946 588 967 q 429 925 483 925 z "}}}
